<svg xmlns="http://www.w3.org/2000/svg" xmlns:xlink="http://www.w3.org/1999/xlink" enable-background="new 0 0 3000 2000" viewBox="0 0 3000 2000"><switch><g><path fill="#e6e6e6" d="M577.063,1181.158c72.618,41.927,73.001,109.893,0.855,151.82
							c-72.147,41.927-189.485,41.927-262.103,0c-72.595-41.913-72.978-109.88-0.831-151.807
							C387.129,1139.245,504.467,1139.245,577.063,1181.158z"/><path fill="#e65a5a" d="M414.167,930.159c-15.517-2.609-34.617,1.181-52.427,10.899
							c-23.409,14.258-49.016,41.26-65.939,69.511c-16.001,28.777-26.533,64.37-27.102,91.643
							c0.542,19.923,6.713,38.046,16.577,50.166c6.407,7.876,10.715,13.216,15.682,19.379c-9.775-12.135-14.697-29.407-14.76-51.818
							c-0.09-31.723,9.579-64.402,28.998-98.047c19.428-33.64,42.939-58.431,70.546-74.37
							c19.753-11.404,37.397-15.844,52.925-13.319C427.812,932.44,421.023,931.311,414.167,930.159z"/><path fill="#ff7474" d="M456.162,940.505c-19.345-11.254-42.825-8.915-70.42,7.017
							c-27.607,15.939-51.118,40.73-70.546,74.37c-19.418,33.645-29.088,66.324-28.998,98.047
							c0.09,31.723,9.912,53.148,29.458,64.284l104.743,60.87c-19.545-11.136-29.368-32.562-29.458-64.284
							c-0.09-31.723,9.579-64.402,28.998-98.047c19.428-33.64,42.939-58.431,70.546-74.37c27.595-15.932,51.075-18.271,70.42-7.017
							L456.162,940.505z"/><path fill="#e65a5a" d="M575.173,1013.587c-3.965-4.911-8.721-8.982-14.268-12.212
							c-19.345-11.254-42.825-8.915-70.42,7.017c-27.607,15.939-51.118,40.73-70.546,74.37
							c-19.418,33.645-29.088,66.324-28.998,98.047c0.09,31.722,9.912,53.148,29.458,64.284c5.472,3.119,11.258,5.176,17.359,6.173
							c13.063,2.135,21.336,3.532,24.451,4.057c-4.774-0.807-9.216-2.213-13.188-4.233c-16.11-10.225-26.81-33.56-27.532-60.087
							c0.569-27.273,11.102-62.866,27.102-91.643c16.924-28.25,42.531-55.253,65.939-69.511
							c23.376-12.755,48.974-15.298,65.777-6.564c3.842,2.492,7.374,5.742,10.531,9.612
							C584.757,1025.446,579.715,1019.213,575.173,1013.587z"/><path fill="#b84848" d="M514.529,1029.849c23.376-12.755,48.974-15.298,65.777-6.564
								c15.939,10.339,26.532,33.716,27.26,60.286c-0.575,27.321-11.002,62.834-26.83,91.501
								c-16.698,28.089-42.227,55.05-65.599,69.286c-23.413,12.773-49.09,15.393-66.117,6.732
								c-16.11-10.225-26.81-33.56-27.532-60.087c0.569-27.274,11.102-62.866,27.102-91.643
								C465.514,1071.11,491.121,1044.108,514.529,1029.849z"/><path fill="#e65a5a" d="M308.612,874.016c-1.17-1.482-3.348-4.241-6.799-8.512c-0.179-0.221-3.812-9.824-10.184-25.166
							c-5.636-15.911-9.734-31.354-9.771-45.687c0.428-28.103,3.297-58.149,10.138-88.492c7.111-29.456,17.807-61.722,30.322-91.518
							c6.707-15.399,17.095-36.562,30.299-62.876c13.531-26.583,30.556-58.74,50.708-96.234
							c21.288-38.694,36.145-71.27,46.575-99.275c11.868-30.013,15.98-51.806,15.935-70.11c0.361-24.227-3.788-40.04-12.015-49.962
							c0,0.402,0.599,0.722,0.855,1.031c0.257,0.309,0.599,0.722,0.856,1.031c0.257,0.309,0.599,0.722,0.856,1.032
							c0.514,0.619,1.199,1.445,1.713,2.064c1.43,1.722,2.861,3.444,4.292,5.165c2.873,3.455,5.749,6.907,8.627,10.357
							c8.149,9.766,12.254,25.435,12.315,47.008c0.048,16.791-5,38.805-15.14,66.037c-10.14,27.231-25.373,59.681-45.697,97.344
							c-20.323,37.662-37.286,69.854-50.884,96.57c-13.598,26.716-23.832,47.958-30.697,63.719
							c-13.73,31.526-24.121,62.865-31.15,94.019c-7.027,31.169-10.493,61.429-10.41,90.817
							c0.044,15.395,3.442,31.422,10.193,48.079c6.763,16.666,10.541,26.392,11.373,29.181L308.612,874.016z"/><path fill="#ff7474" d="M462.444,249.579l104.743,60.87c13.847,8.047,20.811,26.144,20.891,54.292
							c0.048,16.791-5,38.805-15.14,66.036c-10.14,27.232-25.373,59.681-45.697,97.343c-20.323,37.662-37.286,69.854-50.884,96.57
							c-13.598,26.716-23.832,47.958-30.697,63.719c-13.73,31.526-24.121,62.865-31.15,94.019
							c-7.027,31.169-10.493,61.429-10.41,90.818c0.044,15.395,3.442,31.422,10.193,48.079
							c6.763,16.666,10.541,26.392,11.373,29.181l-104.743-60.87c-0.832-2.789-4.61-12.515-11.373-29.181
							c-6.751-16.657-10.15-32.684-10.193-48.079c-0.083-29.389,3.383-59.648,10.41-90.817c7.029-31.155,17.42-62.494,31.15-94.019
							c6.865-15.762,17.099-37.003,30.697-63.719c13.598-26.716,30.561-58.908,50.884-96.57
							c20.324-37.663,35.557-70.112,45.697-97.344c10.14-27.232,15.187-49.245,15.14-66.037
							C483.256,275.723,476.291,257.626,462.444,249.579z"/><path fill="#e65a5a" d="M454.607,954.299c-5.868-0.89-5.868-0.89-28.94-3.792c-0.832-2.789-4.61-12.514-11.373-29.181
							c-6.751-16.657-10.15-32.684-10.193-48.079c-0.083-29.389,3.383-59.648,10.41-90.818c7.029-31.155,17.42-62.494,31.15-94.019
							c6.865-15.762,17.099-37.003,30.697-63.719c13.598-26.716,30.561-58.908,50.884-96.57
							c20.324-37.663,35.557-70.112,45.697-97.343c10.14-27.232,15.187-49.245,15.14-66.036c-0.093-32.653-9.45-51.78-28.069-57.383
							c-1.099-0.331-2.231-0.615-3.395-0.851l0,0c3.168,0.644,6.336,1.287,9.503,1.931c1.809,0.367,3.617,0.735,5.426,1.102
							c4.066,0.826,8.133,1.651,12.199,2.477c1.449,0.294,2.861,0.648,4.237,1.061c20.427,6.146,31.22,23.401,30.646,61.859
							c0.045,18.304-4.068,40.097-15.935,70.11c-10.43,28.005-25.287,60.582-46.575,99.276
							c-20.152,37.495-37.177,69.651-50.708,96.234c-13.204,26.315-23.593,47.477-30.299,62.876
							c-12.515,29.797-23.212,62.062-30.322,91.518c-6.841,30.343-9.71,60.389-10.138,88.492
							c0.037,14.334,4.135,29.776,9.771,45.687C450.861,944.638,454.503,954.283,454.607,954.299z"/><path fill="#e65a5a" d="M521.704,67.086c8.255,1.514,16.511,3.018,24.769,4.515
							c-16.741-3.035-34.831-2.66-54.272,1.126c-27.481,5.352-57.661,17.519-90.546,36.505
							c-21.313,12.305-41.594,25.49-60.843,39.554c-19.249,14.064-37.466,29.007-54.651,44.829
							c-17.185,15.822-33.338,32.522-48.459,50.101c-15.121,17.578-29.21,36.035-42.266,55.368l-15.683-16.749
							c8.419-12.467,22.739-30.666,36.898-47.6c14.762-17.162,31.064-33.545,47.371-48.972
							c16.844-15.508,35.135-30.121,53.65-44.004c18.95-13.846,39.252-26.72,59.982-38.991
							c31.414-17.504,61.713-30.486,88.485-35.699C485.295,63.874,504.447,63.919,521.704,67.086z"/><polygon fill="#cc5050" points="258.535 397.912 236.271 370.854 179.753 282.335 195.436 299.084"/><polygon fill="#e65a5a" points="363.278 458.782 258.535 397.912 195.436 299.084 300.179 359.954"/><path fill="#ff7474" d="M300.179,359.954l-104.743-60.87c13.057-19.334,27.145-37.79,42.266-55.368
							c15.121-17.578,31.274-34.279,48.459-50.101c17.185-15.822,35.402-30.765,54.651-44.829
							c19.249-14.064,39.53-27.249,60.843-39.554c32.885-18.986,63.065-31.153,90.546-36.505
							c27.481-5.352,52.263-3.888,74.352,4.389l104.743,60.87c-22.088-8.276-46.87-9.74-74.352-4.388
							c-27.481,5.352-57.661,17.519-90.546,36.505c-21.313,12.305-41.594,25.49-60.843,39.554
							c-19.249,14.064-37.466,29.007-54.651,44.829c-17.185,15.822-33.338,32.522-48.459,50.101
							C327.324,322.164,313.235,340.62,300.179,359.954z"/><polygon fill="#cc5050" points="389.06 459.646 363.278 458.782 300.179 359.954 332.542 371.126"/><path fill="#b84848" d="M691.171,160.121c19.963,8.481,37.305,22.35,47.969,43.036
								c10.678,20.71,15.441,49.57,16.192,81.632c-0.354,22.888-1.83,45.793-5.667,67.568c-4.152,20.945-9.565,42.642-17.217,62.879
								c-7.744,20.467-19.071,44.638-32.346,71.217c-13.88,27.109-31.136,57.645-50.783,91.004
								c-20.666,34.317-37.098,64.339-50.381,90.734c-14.063,27.119-23.227,49.33-29.544,68.356
								c-12.523,37.698-19.381,73.617-18.611,110.685c0.036,8.333,2.611,26.688,7.188,47.213l-103.399,59.698
								c0.457,1.541-3.233-8.352-10.153-25.013c-5.636-15.911-9.734-31.354-9.771-45.687c0.428-28.103,3.297-58.149,10.138-88.492
								c7.111-29.456,17.807-61.722,30.322-91.518c6.707-15.399,17.096-36.562,30.299-62.876
								c13.531-26.583,30.556-58.74,50.708-96.234c21.288-38.694,36.145-71.27,46.575-99.276
								c11.867-30.013,15.98-51.806,15.935-70.11c0.574-38.458-10.219-55.713-30.646-61.859
								c-20.057-6.013-47.63,0.385-87.609,24.507c-19.123,11.042-37.75,25.982-58.193,49.929
								c-19.501,22.017-39.085,48.345-53.118,72.134l-56.518-88.52c8.419-12.467,22.739-30.666,36.898-47.6
								c14.762-17.162,31.064-33.545,47.371-48.972c16.844-15.508,35.135-30.121,53.65-44.004
								c18.95-13.846,39.252-26.72,59.982-38.991c31.414-17.504,61.713-30.486,88.485-35.699
								C644.519,151.592,670.103,153.107,691.171,160.121z"/><path fill="#e65a5a" d="M332.542,371.126l-32.364-11.172c13.057-19.334,27.145-37.79,42.266-55.368
							c15.121-17.578,31.274-34.279,48.459-50.101c17.185-15.822,35.402-30.765,54.651-44.829
							c19.249-14.064,39.53-27.249,60.843-39.554c32.885-18.986,63.065-31.153,90.546-36.505
							c27.481-5.352,52.263-3.888,74.352,4.388l19.876,22.135c-21.068-7.014-46.652-8.529-72.243-4.261
							c-26.773,5.213-57.071,18.195-88.485,35.699c-20.73,12.271-41.032,25.145-59.982,38.991
							c-18.514,13.883-36.805,28.496-53.65,44.004c-16.307,15.427-32.608,31.81-47.371,48.972
							C355.281,340.46,340.961,358.659,332.542,371.126z"/><defs><path id="a" d="M514.529,1029.849c23.376-12.755,48.974-15.298,65.777-6.564c15.939,10.339,26.532,33.716,27.26,60.286
							c-0.575,27.321-11.002,62.834-26.83,91.501c-16.698,28.089-42.227,55.05-65.599,69.286
							c-23.413,12.773-49.09,15.393-66.117,6.732c-16.11-10.225-26.81-33.56-27.532-60.087
							c0.569-27.274,11.102-62.866,27.102-91.643C465.514,1071.11,491.121,1044.108,514.529,1029.849z M618.928,155.861
							c-26.772,5.213-57.071,18.195-88.485,35.699c-20.73,12.271-41.032,25.145-59.982,38.991
							c-18.514,13.883-36.805,28.496-53.65,44.004c-16.307,15.427-32.608,31.81-47.371,48.972
							c-14.159,16.934-28.479,35.133-36.898,47.6l56.518,88.52c14.033-23.789,33.617-50.117,53.118-72.134
							c20.443-23.948,39.071-38.887,58.193-49.929c39.979-24.121,67.552-30.52,87.609-24.507
							c20.427,6.147,31.219,23.401,30.645,61.859c0.045,18.304-4.068,40.097-15.935,70.11
							c-10.43,28.005-25.287,60.582-46.575,99.275c-20.152,37.494-37.177,69.651-50.708,96.234
							c-13.204,26.315-23.593,47.477-30.299,62.876c-12.515,29.797-23.212,62.062-30.322,91.518
							c-6.841,30.343-9.71,60.389-10.138,88.492c0.037,14.334,4.135,29.776,9.771,45.687c6.92,16.661,10.61,26.554,10.153,25.013
							l103.399-59.698c-4.577-20.524-7.152-38.88-7.188-47.213c-0.77-37.068,6.088-72.987,18.611-110.685
							c6.318-19.026,15.482-41.237,29.544-68.356c13.283-26.396,29.716-56.417,50.382-90.734
							c19.647-33.36,36.902-63.895,50.783-91.004c13.275-26.579,24.602-50.749,32.346-71.217
							c7.651-20.237,13.065-41.934,17.217-62.879c3.836-21.775,5.312-44.68,5.667-67.568c-0.751-32.062-5.514-60.921-16.192-81.632
							c-10.664-20.685-28.006-34.555-47.969-43.036C670.103,153.108,644.519,151.592,618.928,155.861z"/></defs><clipPath id="b"><use overflow="visible" xlink:href="#a"/></clipPath><g clip-path="url(#b)"><path fill="#d9d9d9" d="M817.686,646.119c28.666-8.983,50.105,8.088,50.205,43.228l1.029,362.763
							c0.116,40.88-28.638,90.684-64.215,111.224L432.38,1378.296c-35.576,20.54-64.518,4.046-64.634-36.833L366.718,978.7
							c-0.1-35.14,21.224-76.9,49.795-100.963l-0.412-145.304c-0.36-127.09,89.357-282.486,199.959-346.342
							c110.602-63.856,200.854-12.365,201.215,114.725L817.686,646.119z M749.74,683.412l-0.407-143.372
							c-0.238-84.043-59.913-118.108-133.053-75.881c-73.14,42.227-132.426,144.974-132.188,229.017l0.406,143.372L749.74,683.412
							L749.74,683.412z M645.187,1061.845c23.31-25.484,39.544-61.724,39.455-92.998c-0.12-42.402-30.136-59.508-67.037-38.203
							c-36.901,21.305-66.722,72.957-66.602,115.359c0.089,31.275,16.424,48.711,39.801,47.24l0.143,50.543
							c0.049,17.277,12.27,24.183,27.306,15.502c14.985-8.651,27.127-29.624,27.078-46.901L645.187,1061.845L645.187,1061.845z"/></g><path fill="#e6e6e6" d="M634.246,1464.692c-19.924,0-38.851-4.625-53.297-13.019l-51.115-29.705
						c-16.622-9.661-26.144-23.912-26.122-39.104c0.022-15.259,9.666-29.57,26.457-39.265l382.244-220.689
						c14.513-8.38,33.474-12.995,53.387-12.995c19.926,0,38.854,4.622,53.294,13.015l51.121,29.707
						c16.625,9.663,26.147,23.915,26.125,39.103c-0.02,15.257-9.666,29.569-26.463,39.266l-382.244,220.688
						c-14.516,8.383-33.477,12.999-53.381,12.999C634.249,1464.692,634.249,1464.692,634.246,1464.692z"/><path fill="#c99e00" d="M537.075,991.554l51.117,29.706c25.402,14.762,66.684,14.752,92.235,0.001l382.244-220.688
											c12.86-7.424,19.286-17.169,19.258-26.9l1.141,402.462c0.027,9.731-6.398,19.476-19.258,26.9l-382.244,220.688
											c-25.551,14.752-66.833,14.762-92.235,0l-51.117-29.706c-12.611-7.328-18.923-16.92-18.95-26.526l-1.141-402.462
											C518.152,974.634,524.465,984.226,537.075,991.554z"/><path fill="#ffd844" d="M537.376,938.128c-25.551,14.752-25.685,38.674-0.301,53.426l51.117,29.706
												c25.402,14.762,66.684,14.752,92.235,0l382.244-220.688c25.551-14.752,25.703-38.664,0.301-53.426l-51.117-29.706
												c-25.385-14.752-66.684-14.752-92.235,0L537.376,938.128z"/><path fill="#e6e6e6" d="M597.06,922.317c-24.127,13.93-24.254,36.512-0.311,50.426
														c23.97,13.93,62.956,13.93,87.084,0c24.127-13.93,24.227-36.496,0.256-50.426
														C660.146,908.403,621.187,908.387,597.06,922.317z"/><path fill="#d9d9d9" d="M907.797,742.002c-24.127,13.93-24.254,36.512-0.311,50.426
														c23.97,13.93,62.956,13.93,87.084,0s24.227-36.496,0.256-50.426C970.883,728.088,931.925,728.072,907.797,742.002z"/><path fill="#dcdcdc" d="M585.144,943.796c-0.341-1.765-0.409-3.539-0.248-5.311c0,0.007,0,0.014,0,0.02
											C584.901,940.292,584.999,942.052,585.144,943.796z"/><path fill="#dcdcdc" d="M896.025,765.999c-0.065-0.78-0.069-1.578-0.111-2.366
											c0.073,1.017,0.165,2.027,0.286,3.027C896.149,766.44,896.068,766.221,896.025,765.999z"/><path fill="#dcdcdc" d="M1007.055,762.797l-0.003-1.103C1007.062,762.062,1007.067,762.429,1007.055,762.797z"/><path fill="#fff" d="M895.777,760.688c0.7-7.719,6.096-15.328,16.305-21.222
											c21.831-12.604,57.113-12.604,78.825,0.014c10.578,6.147,15.929,14.158,16.145,22.215l0.003,1.103
											c-0.259,8.094-5.708,16.152-16.405,22.328c-21.831,12.604-57.114,12.604-78.803,0c-8.935-5.192-14.1-11.713-15.648-18.463
											c-0.12-1-0.213-2.01-0.286-3.027c-0.052-0.973-0.134-1.937-0.137-2.925C895.777,760.702,895.777,760.695,895.777,760.688z
											"/><path fill="#5e5e5e" d="M860.868,499.836c72.062-23.182,145.453,15.347,145.736,103.574l0.449,158.284l0.003,1.103
											c-0.259,8.094-5.708,16.152-16.405,22.328c-21.831,12.604-57.114,12.604-78.803,0c-8.935-5.192-14.1-11.713-15.648-18.463
											c-0.12-1-0.213-2.01-0.286-3.027c-0.052-0.973-0.134-1.937-0.137-2.925v-0.02c0.002-0.024,0.01-0.047,0.012-0.071
											c-0.017-0.524-0.064-1.04-0.065-1.569c0-14.784-0.084-29.567-0.126-44.351c-0.018-6.344-0.036-12.687-0.054-19.031
											c-0.008-2.924-0.019-6.822-0.028-9.746c-0.117-41.482-0.236-82.96-0.353-124.443v0c-0.061-4.001-0.294-9.334-0.591-13.324
											c-0.189-2.531-0.711-5.88-1.028-8.398c-0.459-3.65-1.631-8.436-2.615-11.98c-1.514-5.449-3.792-10.688-6.142-14.476
											C874.12,500.337,860.868,499.836,860.868,499.836z"/><path fill="#8a8a8a" d="M584.432,742.713c-0.062-0.597-0.094-1.19-0.096-1.779
										c0.053-20.2,2.151-34.251,2.391-35.786c1.544-9.916,4.112-23.057,6.262-32.858c1.142-5.207,3.208-12.018,4.703-17.135
										c3.692-12.637,9.993-28.978,11.802-33.122c2.13-4.879,4.76-11.482,7.109-16.259c2.363-4.804,5.408-11.261,7.877-16.01
										c2.477-4.764,5.921-11.042,8.605-15.693c21.339-36.978,44.107-62.405,52.905-71.621c3.839-4.021,8.934-9.418,13.047-13.156
										c7.448-6.768,17.629-15.523,25.462-21.841c4.375-3.529,10.579-7.759,15.25-10.888c3.966-2.656,9.465-5.868,13.522-8.383
										c0,0-0.001,0-0.001,0l0.002-0.001l0.002-0.001c0.001-0.001,0.002-0.001,0.002-0.001
										c5.938-3.294,13.894-7.643,20.115-10.358c7.494-3.27,17.738-7.059,25.524-9.555c6.068-1.945,14.422-3.666,20.694-4.79
										c4.966-0.89,11.668-1.693,16.709-1.912c6.181-0.269,14.456-0.391,20.622,0.12c3.984,0.33,9.279,0.976,13.231,1.581
										c2.861,0.437,6.641,1.231,9.459,1.889c3.588,0.838,8.313,2.2,11.828,3.306c2.677,0.843,6.189,2.148,8.797,3.185
										c3.335,1.326,7.691,3.318,10.917,4.889c1.469,0.715,3.174,1.648,4.835,2.568c1.134,0.594,2.257,1.209,3.364,1.852
										l11.168,6.49c2.595,1.53,9.488,5.595,16.87,11.46c2.888,2.295,6.608,5.52,9.328,8.012c2.058,1.886,4.648,4.565,6.587,6.574
										c2.763,2.861,6.141,6.961,8.629,10.063c1.807,2.253,3.992,5.43,5.679,7.774c2.712,3.766,5.903,9.096,8.047,13.212
										c2.684,5.155,6.085,12.142,8.154,17.574c2.484,6.519,5.398,15.386,6.991,22.178c1.438,6.133,3.106,14.389,3.829,20.646
										c0.979,8.469,1.552,19.839,1.836,28.36c-4.022-14.781-11.217-29.56-19.291-41.863
										c-32.823-50.017-76.267-65.358-142.002-27.372c-82.588,47.641-149.725,163.927-149.42,258.806l0.446,157.418
										c-0.007-0.001-0.013-0.001-0.02-0.001v0c-0.126,8.199-5.598,16.383-16.432,22.638c-21.831,12.604-57.114,12.604-78.803,0
										c-9.227-5.362-14.472-12.14-15.823-19.125c-0.145-1.744-0.243-3.504-0.248-5.291c0-0.007,0-0.013,0-0.02
										c0-17.922-0.102-35.843-0.153-53.765c-0.008-5.803-0.038-13.54-0.055-19.342c-0.117-41.483-0.236-82.963-0.353-124.446
										C584.337,741.521,584.37,742.115,584.432,742.713z"/><path fill="#666" d="M601.476,960.964c0-0.007,0-0.014,0-0.021c0-18.75-0.106-37.498-0.16-56.247
											c-0.008-6.071-0.04-14.165-0.057-20.235c-0.122-43.398-0.247-86.793-0.369-130.191c0.002,0.617,0.035,1.238,0.101,1.863
											c-0.065-0.625-0.099-1.245-0.1-1.861c0.056-21.132,2.251-35.832,2.501-37.439c1.615-10.373,4.302-24.121,6.551-34.375
											c1.195-5.447,3.356-12.573,4.92-17.926c3.862-13.22,10.454-30.316,12.347-34.652c2.228-5.105,4.979-12.012,7.437-17.01
											c2.471-5.025,5.657-11.781,8.24-16.749c2.591-4.984,6.194-11.552,9.002-16.417c22.324-38.686,46.143-65.287,55.347-74.928
											c4.016-4.206,9.346-9.852,13.65-13.764c7.792-7.081,18.442-16.24,26.637-22.85c4.577-3.692,11.068-8.117,15.954-11.39
											c4.149-2.779,9.902-6.139,14.147-8.77c0,0-0.001,0-0.001,0.001l0.002-0.001l0.002-0.001
											c0.001-0.001,0.002-0.001,0.002-0.001c6.212-3.446,14.536-7.996,21.044-10.836c7.84-3.421,18.557-7.385,26.702-9.996
											c6.348-2.035,15.087-3.836,21.649-5.011c1.465-0.262,3.081-0.515,4.754-0.752c-5.165-0.159-10.886-0.042-15.461,0.157
											c-5.041,0.219-11.743,1.022-16.709,1.912c-6.272,1.124-14.626,2.845-20.694,4.79c-7.786,2.496-18.03,6.285-25.524,9.555
											c-6.221,2.714-14.177,7.064-20.115,10.358c0,0-0.001,0-0.002,0.001l-0.002,0.001l-0.002,0.001c0,0,0.001,0,0.001,0
											c-4.057,2.515-9.557,5.727-13.522,8.383c-4.671,3.128-10.875,7.359-15.25,10.887
											c-7.833,6.318-18.014,15.073-25.462,21.842c-4.114,3.738-9.209,9.135-13.047,13.156
											c-8.798,9.216-31.566,34.643-52.905,71.621c-2.683,4.65-6.128,10.929-8.604,15.692c-2.469,4.749-5.514,11.207-7.877,16.01
											c-2.349,4.777-4.979,11.38-7.109,16.259c-1.809,4.144-8.11,20.485-11.802,33.122c-1.495,5.117-3.561,11.928-4.703,17.135
											c-2.15,9.802-4.718,22.943-6.262,32.859c-0.239,1.536-2.338,15.587-2.391,35.786c0.002,0.588,0.034,1.182,0.096,1.779
											c-0.062-0.598-0.094-1.192-0.096-1.781c0.117,41.483,0.236,82.963,0.353,124.446c0.016,5.803,0.047,13.54,0.055,19.342
											c0.051,17.922,0.153,35.843,0.153,53.765c0,0.007,0,0.014,0,0.02c0.005,1.787,0.103,3.547,0.248,5.291
											c1.351,6.986,6.595,13.763,15.823,19.125c0.198,0.115,0.416,0.211,0.616,0.323
											C601.551,962.483,601.478,961.734,601.476,960.964z"/><path fill="#4a4a4a" d="M824.737,1126.891c-0.032-11.376,2.62-23.562,7.211-35.421l74.149,43.091l0.157,55.479
											c0.048,16.964-11.874,37.614-26.637,46.137c-7.418,4.283-14.141,4.68-18.997,1.858c-4.797-2.788-7.773-8.717-7.796-17.147
											l-0.157-55.479l-21.069-12.244C827.268,1146.698,824.768,1137.845,824.737,1126.891z"/><path fill="#636363" d="M840.624,1161.81c-3.538-2.056-6.57-4.975-9.027-8.645l21.069,12.244
												C848.235,1165.099,844.183,1163.879,840.624,1161.81C835.105,1158.603,840.624,1161.81,840.624,1161.81z"/><path fill="#5e5e5e" d="M831.948,1091.469c1.076-2.781,2.273-5.54,3.558-8.27c0.171-0.364,0.339-0.729,0.514-1.091
											c0.63-1.308,1.279-2.609,1.954-3.899c0.145-0.277,0.3-0.55,0.447-0.826c1.199-2.253,2.469-4.47,3.797-6.651
											c0.375-0.615,0.747-1.232,1.132-1.841c0.655-1.039,1.322-2.069,2.004-3.087c0.572-0.853,1.163-1.689,1.754-2.525
											c0.927-1.315,1.875-2.609,2.846-3.881c0.727-0.952,1.458-1.897,2.208-2.822c0.578-0.715,1.162-1.423,1.753-2.121
											c1.082-1.276,2.182-2.528,3.306-3.745c0.475-0.515,0.957-1.018,1.439-1.522c1.128-1.177,2.274-2.324,3.439-3.436
											c0.476-0.455,0.954-0.905,1.436-1.349c1.467-1.349,2.95-2.667,4.467-3.902c0.116-0.095,0.235-0.179,0.352-0.273
											c1.469-1.185,2.965-2.301,4.475-3.37c0.421-0.298,0.843-0.592,1.267-0.881c1.631-1.111,3.276-2.179,4.946-3.143
											c15.151-8.747,28.876-9.559,38.785-3.801c9.78,5.683,15.843,17.767,15.891,34.939
											c0.066,23.423-11.084,50.299-27.62,70.589l-74.149-43.091L831.948,1091.469z"/><path fill="#666" d="M662.099,1431.445c-18.548,4.815-40.106,4.385-58.029-1.326v-402.08
										c18.062,5.48,39.625,5.664,58.029,0.637L662.099,1431.445z"/><ellipse cx="688.179" cy="571.019" fill="#b3b3b3" rx="61.307" ry="21.127" transform="rotate(-54.795 688.22 571.026)"/><path fill="#d9d9d9" d="M1061.081,801.49l1.59-0.918c12.859-7.424,19.285-17.169,19.258-26.9l1.141,402.463
								c0.027,9.731-6.398,19.476-19.258,26.9l-2.731,1.577V801.49z"/><path fill="#8a8a8a" d="M973.28,791.919c6.298-1.571,12.216-3.818,17.37-6.794
							c10.697-6.176,16.146-14.233,16.405-22.328l-0.003-1.103c0,0-0.686-168.847-0.564-168.398
							c-0.284-8.521-0.856-19.891-1.835-28.36c-0.724-6.258-2.392-14.513-3.829-20.646c-1.593-6.792-4.507-15.659-6.991-22.178
							c-0.443-1.162-0.955-2.404-1.5-3.675l-68.163-14.665C982.913,519.4,968.915,682.411,973.28,791.919z"/><path fill="#d9d9d9" d="M538.2,992.208l-1.124-0.653c-12.61-7.329-18.923-16.92-18.95-26.527l1.141,402.462
							c0.027,9.602,6.335,19.189,18.934,26.516L538.2,992.208z"/><path fill="#fff5cc" d="M860.62,1238.036c2.442,1.251,5.21,1.606,7.844,1.317c2.651-0.238,5.209-1.1,7.589-2.264
						c4.77-2.368,8.862-5.923,12.408-9.85c3.587-3.916,6.548-8.391,8.957-13.095c2.43-4.694,4.304-9.672,5.398-14.767
						c0.47-2.555,0.862-5.123,0.902-7.673c0.104-2.496-0.046-5.388-0.056-8.063l-0.241-16.357
						c-0.054-10.905-0.211-21.809-0.179-32.714l0.003-1.023l0.639-0.789c3.007-3.714,5.834-7.578,8.453-11.586
						c2.556-4.047,4.979-8.183,7.178-12.441c4.343-8.542,7.766-17.557,10.042-26.859c2.105-9.302,3.247-18.974,1.903-28.45
						c-0.611-4.727-1.919-9.393-4.138-13.639c-2.209-4.241-5.429-8.006-9.496-10.751c4.36,2.236,8.13,5.762,10.756,10.018
						c2.682,4.224,4.467,9.006,5.522,13.9c2.098,9.844,1.537,20.034-0.291,29.833c-0.963,4.902-2.248,9.737-3.846,14.467
						c-1.614,4.725-3.557,9.325-5.678,13.842c-4.285,9.02-9.741,17.453-15.979,25.273l0.642-1.811
						c0.094,10.905-0.002,21.81,0.006,32.715l-0.148,16.358c-0.063,2.776,0.022,5.34-0.162,8.291
						c-0.107,2.907-0.689,5.728-1.324,8.506c-2.92,11.009-8.768,20.993-16.753,28.85c-4.05,3.85-8.668,7.196-13.881,9.272
						c-2.604,1.015-5.375,1.698-8.181,1.716C865.715,1240.263,862.904,1239.551,860.62,1238.036z"/><g><path fill="#9274fe" d="M1296.749,1719.881c10.127-0.071,18.85,10.675,25.409,13.882
							c-0.523-3.238,0.45-9.68,7.274-13.395c-5.974,1.155-18.926-1.029-23.769-7.601
							C1301.224,1713.482,1296.814,1717.036,1296.749,1719.881z"/><path fill="#c859a9" d="M2049.29,1513.401c0,0,12.246-9.993,16.171-13.592c-1.561-2.65-4.244-7.842-6.873-8.083
							c-0.876,4.262-5.88,12.371-11.562,14.015C2048.4,1507.754,2049.29,1513.401,2049.29,1513.401z"/><path fill="#d276ab" d="M1582.33,1792.16c-1.599-4.322,1.052-10.013,1.229-13.404c-1.126,0.813-3.679,1.57-6.124-0.675
							c1.359,2.347,2.556,8.289,0.858,11.559C1579.249,1791.41,1581.259,1792.651,1582.33,1792.16z"/><path fill="#c479c1" d="M1991.09,1619.007c0,0,10.756,5.491,14.449,7.145c1.062-1.755,3.284-4.943,2.455-6.762
							c-2.97,0.561-9.862-0.601-12.996-3.953C1994.262,1616.894,1991.09,1619.007,1991.09,1619.007z"/><path fill="#c458ce" d="M2105.398,1500.593c0,0-10.615,1.188-14.163,1.815c-0.085,2.283-0.464,6.602,0.94,7.826
							c2.06-2.286,7.873-5.269,11.701-3.964C2103.833,1504.46,2105.398,1500.593,2105.398,1500.593z"/><path fill="#915bdc" d="M2121.392,1729.886c5.096,4.256,4.205,13.554,5.917,18.005
							c1.321-1.909,4.956-4.854,10.183-3.898c-3.551-1.931-8.958-8.559-8.167-14.037
							C2126.756,1728.447,2122.815,1728.431,2121.392,1729.886z"/><path fill="#f868ac" d="M2085.673,1726.109c7.582,4.277,10.188,15.911,13.917,21.074
							c0.786-2.606,3.852-6.928,10.292-6.745c-4.877-1.704-13.748-8.848-14.975-15.753
							C2091.336,1723.314,2086.754,1724.044,2085.673,1726.109z"/><path fill="#dc5ee4" d="M2019.68,1436.658c0,0,7.079,14.666,9.74,19.461c2.976-0.923,8.721-2.356,9.56-4.927
							c-4.013-1.905-10.885-8.869-11.211-14.951C2025.466,1437.13,2019.68,1436.658,2019.68,1436.658z"/><path fill="#8350be" d="M1254.501,1719.696c-7.982,1.211-17.266-6.203-23.161-7.964
							c1.135,2.475,1.803,7.627-2.758,11.314c4.461-1.586,15.176-1.355,20.466,3.236
							C1252.394,1725.216,1255.084,1721.931,1254.501,1719.696z"/><path fill="#dc62e6" d="M1280.038,1713.063c0,0,18.132,7.057,24.382,9.046c2.034-3.593,6.237-10.205,4.988-13.357
							c-5.226,1.93-17.094,1.81-22.192-3.519C1285.78,1708.175,1280.038,1713.063,1280.038,1713.063z"/><path fill="#f26bc6" d="M1294.599,1840.334c2.099-0.59,5.221-0.511,8.347-0.849l2.521,3.964
							c-3.662,0.995-7.351,3.65-8.869,5.677C1298.116,1844.808,1296.066,1841.567,1294.599,1840.334z"/><path fill="#8a62da" d="M1253.498,1812.813c-1.632,0.61-3.045,2.063-4.143,3.77l-6.717,3.3
							c-0.565-0.728-1.079-1.44-1.496-1.992c2.372-2.767,9.911-10.508,9.911-10.508S1252.305,1811.42,1253.498,1812.813z"/><path fill="#d6648c" d="M1257.084,1187.223c-7.392,6.474-20.66,4.052-27.525,5.838c2.452,2.065,5.85,7.45,3.211,14.528
							c3.65-4.643,14.557-11.241,22.311-9.447C1257.884,1194.797,1258.853,1189.37,1257.084,1187.223z"/><path fill="#7fa5d8" d="M1230.496,1179.723c0,0-7.682,12.486-9.984,16.829c2.556,1.773,7.207,5.368,9.814,4.734
							c-0.876-3.936,0.643-12.49,5.411-15.717C1233.616,1184.283,1230.496,1179.723,1230.496,1179.723z"/><path fill="#fe90a7" d="M2085.209,1421.667c0,0,9.703,24.846,13.428,33.028c4.841-1.005,14.148-2.38,15.761-6.397
							c-6.189-3.733-16.39-16.104-16.256-25.983C2094.377,1423.376,2085.209,1421.667,2085.209,1421.667z"/><path fill="#57a5be" d="M2125.12,1753.815c5.409-2.552,12.998,0.475,17.383,0.395
							c-1.158-1.436-2.382-4.792,0.269-8.286c-2.89,2.044-10.425,4.208-14.802,2.234
							C2125.784,1749.608,2124.383,1752.423,2125.12,1753.815z"/><path fill="#fe77a6" d="M1752.754,1633.302c0,0-10.283,1.625-13.708,2.41c0.028,2.404-0.131,6.96,1.296,8.199
							c1.895-2.477,7.412-5.82,11.206-4.582C1751.417,1637.425,1752.754,1633.302,1752.754,1633.302z"/><path fill="#de64d3" d="M1338.574,1441.539c-4.8-5.601-4.032-16.154-5.666-21.505
							c-1.223,2.008-4.603,4.881-9.501,3.051c3.337,2.714,8.444,11.083,7.743,17.263
							C1333.564,1442.441,1337.252,1443.011,1338.574,1441.539z"/><path fill="#c756ce" d="M2273.523,1721.034c0,0-6.468,2.687-8.58,3.746c0.433,1.609,1.114,4.693,2.264,5.303
							c0.817-1.957,3.861-5.058,6.563-4.816C2273.356,1724.009,2273.523,1721.034,2273.523,1721.034z"/><path fill="#e65fd1" d="M1354.2,1434.208c-6.344,0.155-11.313-6.794-15.273-8.825c0.179,2.117-0.725,6.349-5.167,8.858
							c3.793-0.821,11.803,0.471,14.534,4.726C1351.106,1438.45,1354.029,1436.073,1354.2,1434.208z"/><path fill="#c482c8" d="M1616.891,1743.218c0,0-7.456,9.361-9.781,12.686c1.582,2.011,4.403,5.987,6.387,5.926
							c-0.037-3.567,2.361-10.679,6.302-12.579C1618.458,1747.742,1616.891,1743.218,1616.891,1743.218z"/><path fill="#d25bbc" d="M1283.967,1781.357c7.861-0.067,14.744,8.32,19.869,10.819
							c-0.439-2.53,0.25-7.565,5.509-10.476c-4.626,0.909-14.704-0.783-18.532-5.913
							C1287.375,1776.351,1283.988,1779.134,1283.967,1781.357z"/><path fill="#f666b8" d="M2093.695,1784.21c4.736,3.158,6.277,10.482,8.58,13.912c0.517-1.544,2.484-3.982,6.537-3.416
							c-3.056-1.389-8.579-6.397-9.292-10.721C2097.284,1782.892,2094.394,1783.018,2093.695,1784.21z"/><path fill="#b88c90" d="M1809.8,1732.353c0,0-6.497-9.511-8.833-12.561c-1.684,1.197-4.987,3.253-5.12,5.285
							c2.736,0.694,7.969,4.596,9.067,8.997C1806.191,1733.019,1809.8,1732.353,1809.8,1732.353z"/><path fill="#6882de" d="M1700.423,1705.942c-0.722-4.877,3.308-9.276,4.24-12.494c-1.358,0.311-4.197-0.04-6.262-3.26
							c0.905,2.857,0.849,9.137-1.649,11.59C1697.363,1703.903,1699.194,1705.963,1700.423,1705.942z"/><path fill="#ba58af" d="M1248.666,1477.592c0,0,2.53,4.536,3.475,5.996c1.002-0.509,2.939-1.373,3.202-2.305
							c-1.379-0.387-3.772-2.311-3.935-4.363C1250.634,1477.375,1248.666,1477.592,1248.666,1477.592z"/><path fill="#c253b1" d="M1816.844,1726.369c-1.006,2.718-4.896,3.282-6.457,4.507c0.959,0.393,2.663,1.712,3.011,4.146
							c0.282-1.786,2.205-4.888,4.534-5.102C1818.182,1728.617,1817.634,1726.854,1816.844,1726.369z"/><path fill="#f46dc6" d="M2071.198,1764.07c0,0,17.797,0.572,23.819,0.417c0.876-3.408,2.893-9.807,0.986-11.957
							c-4.117,2.974-14.615,6.163-20.474,3.354C2075.015,1758.611,2071.198,1764.07,2071.198,1764.07z"/><path fill="#b866b3" d="M1254.879,1172.649c1.355-4.009,6.865-6.618,9.05-8.96c-1.373-0.046-3.829-0.934-4.391-3.922
							c-0.352,2.452-2.998,7.401-6.301,8.803C1252.917,1170.381,1253.744,1172.401,1254.879,1172.649z"/><path fill="#a96af8" d="M2056.345,1487.775c0,0,7.476-6.633,9.87-8.999c-0.981-1.526-2.673-4.534-4.294-4.552
							c-0.509,2.619-3.535,7.762-7.025,9.031C2055.756,1484.404,2056.345,1487.775,2056.345,1487.775z"/><path fill="#8366e0" d="M1107.236,1238.04c0,0,2.797-13.555,3.45-18.174c-2.763-0.992-7.904-3.138-9.968-1.883
							c1.976,3.429,3.303,11.758,0.169,15.972C1103.123,1234.606,1107.236,1238.04,1107.236,1238.04z"/><path fill="#70a7fa" d="M1347.372,1708.333c-0.17,5.539-6.401,10.308-8.342,13.895
							c1.834-0.285,5.441,0.249,7.392,3.983c-0.527-3.268,0.971-10.353,4.772-13
							C1350.882,1710.783,1348.972,1708.37,1347.372,1708.333z"/><path fill="#68a2e8" d="M1192.009,1741.546c0.952-5.746,7.728-8.938,10.137-12.131
							c-1.836-0.231-5.291-1.83-6.671-6.298c0.052,3.571-2.419,10.551-6.515,12.224
							C1188.919,1737.971,1190.447,1741.047,1192.009,1741.546z"/><path fill="#865fca" d="M1209.564,1178.736c0,0,5.098,8.129,6.998,10.725c1.98-1.129,5.811-3.084,6.316-4.885
							c-2.742-0.498-7.524-3.724-7.883-7.567C1213.465,1177.996,1209.564,1178.736,1209.564,1178.736z"/><path fill="#d162d2" d="M1363.761,1599.559c9.726,0.1,17.76,10.704,23.955,13.934c-0.399-3.16,0.74-9.413,7.41-12.915
							c-5.773,1.024-18.14-1.318-22.581-7.794C1368.261,1593.405,1363.914,1596.791,1363.761,1599.559z"/><path fill="#6edcf8" d="M1160.821,1232.574c-0.931,2.607-3.009,7.423-1.406,9.589L1160.821,1232.574z"/><path fill="#5d71e2" d="M1686.214,1637.767c8.401-0.766,17.052,6.86,22.919,8.858
							c-0.858-2.446-0.893-7.454,4.288-10.783c-4.811,1.306-15.854,0.542-20.736-4.157
							C1689.093,1632.545,1685.896,1635.581,1686.214,1637.767z"/><path fill="#fe74b4" d="M1719.641,1641.364c0,0-0.391-9.046-0.733-12.084c-2.1-0.225-6.058-0.835-7.281,0.268
							c1.971,1.893,4.337,7.003,2.878,10.149C1716.178,1639.782,1719.641,1641.364,1719.641,1641.364z"/><path fill="#69e0b1" d="M2193.052,1587.68c-2.941,5.506-11.392,8.338-15.077,11.33
							c1.927,0.289,5.169,1.956,5.196,6.315c1.125-3.445,6.132-10.086,11.156-11.551
							C2195.24,1591.239,2194.591,1588.218,2193.052,1587.68z"/><path fill="#be59a4" d="M2184.764,1559.231c0,0,7.484,3.696,10.088,4.763c1.079-1.633,3.264-4.63,2.894-6.129
							c-2.373,0.786-7.518,0.469-9.439-2.133C2187.523,1557.075,2184.764,1559.231,2184.764,1559.231z"/><path fill="#435294" d="M2295.365,1712.986c6.271-1.273,12.514,4.652,16.829,5.941
							c-0.576-2.041-0.475-6.345,3.465-9.586c-3.613,1.475-11.811,1.625-15.324-2.058
							C2297.639,1708.285,2295.183,1711.13,2295.365,1712.986z"/><path fill="#924aa4" d="M1577.563,1720.802c0,0,6.932,5.224,9.403,6.839c1.579-1.247,4.695-3.485,4.704-4.959
							c-2.723,0.152-8.083-1.386-9.421-4.254C1581.061,1719.479,1577.563,1720.802,1577.563,1720.802z"/><path fill="#ca70c1" d="M1276.889,1439.963c1.656-7.619,11.053-12.421,14.525-16.825
							c-2.477-0.135-7.065-1.915-8.654-7.646c-0.156,4.676-3.951,14.05-9.616,16.617
							C1272.922,1435.559,1274.801,1439.45,1276.889,1439.963z"/><path fill="#e86ae2" d="M2117.298,1807.899c0,0,8.535-12.926,11.164-17.439c-2.14-2.006-5.99-6.048-8.461-5.495
							c0.341,4.228-2.066,13.26-6.829,16.47C2114.969,1802.902,2117.298,1807.899,2117.298,1807.899z"/><path fill="#5e71e0" d="M1257.885,1435.6c-3.553,1.923-8.712,0.175-11.645,0.396c0.813,0.922,1.722,3.134,0.04,5.585
							c1.88-1.485,6.865-3.228,9.848-2.067C1257.552,1438.456,1258.414,1436.509,1257.885,1435.6z"/><path fill="#986775" d="M1265.972,1501.247c0,0-6.972-20.379-9.739-27.112c-4.372,0.608-12.742,1.33-14.444,4.494
							c5.255,3.257,13.503,13.625,12.724,21.563C1257.932,1499.495,1265.972,1501.247,1265.972,1501.247z"/><path fill="#665ad6" d="M1422.144,1593.917c2.488,1.667,3.374,5.521,4.607,7.329c0.249-0.811,1.237-2.091,3.341-1.788
							c-1.598-0.735-4.516-3.376-4.937-5.651C1423.985,1593.229,1422.491,1593.291,1422.144,1593.917z"/><path fill="#e167e2" d="M1349.857,1567.804c0,0,5.11,7.66,6.948,10.124c1.328-0.882,3.933-2.382,4.04-3.968
							c-2.155-0.634-6.274-3.86-7.135-7.342C1352.701,1567.401,1349.857,1567.804,1349.857,1567.804z"/><path fill="#da84da" d="M1705.759,1645.598c2.138,3.431,0.326,7.622,0.611,10.216c0.986-0.548,3.367-0.955,6.047,0.937
							c-1.638-1.896-3.603-6.544-2.392-8.941C1708.857,1646.385,1706.735,1645.295,1705.759,1645.598z"/><path fill="#5fd2d4" d="M2074.409,1517.674c0,0,5.38,0.963,7.211,1.182c0.367-1.006,1.17-2.878,0.656-3.622
							c-1.337,0.729-4.616,1.242-6.309,0.122C2075.729,1516.169,2074.409,1517.674,2074.409,1517.674z"/><path fill="#c264a8" d="M1812.321,1768.846c2.734,0.598,3.61,3.8,4.936,4.996c0.302-0.837,1.446-2.379,3.79-2.888
							c-1.765-0.076-4.951-1.407-5.355-3.335C1814.4,1767.527,1812.728,1768.143,1812.321,1768.846z"/><path fill="#e667b6" d="M1680.436,1679.676c0,0-8.579-14.298-11.74-18.955c-2.974,1.083-8.747,2.826-9.379,5.445
							c4.292,1.691,11.971,8.292,12.849,14.362C1674.451,1679.514,1680.436,1679.676,1680.436,1679.676z"/><path fill="#f083f6" d="M1354.852,1561.739c-3.807,0.489-7.51-3.285-10.103-4.231c0.324,1.233,0.211,3.779-2.21,5.532
							c2.202-0.721,7.16-0.464,9.24,1.867C1353.42,1564.427,1354.939,1562.846,1354.852,1561.739z"/><path fill="#6ebcf2" d="M1334.081,1556.927c0,0-2.277,12.043-2.829,16.14c2.046,0.81,5.847,2.582,7.403,1.424
							c-1.424-2.982-2.295-10.308,0.1-14.107C1337.098,1559.861,1334.081,1556.927,1334.081,1556.927z"/><path fill="#ec62bf" d="M1278.72,1776.604c2.01,5.137-1.524,12.607-1.807,16.851c1.475-1.179,4.803-2.498,7.944-0.069
							c-1.728-2.717-3.19-9.929-0.933-14.247C1282.71,1777.08,1280.119,1775.836,1278.72,1776.604z"/><path fill="#ee6ad5" d="M1296.118,1422.178c-4.943-1.344-7.573-7.611-10.285-10.019
							c-0.233,1.602-1.678,4.516-5.561,5.344c3.084,0.266,9.064,3.06,10.432,6.826
							C1292.975,1424.595,1295.658,1423.514,1296.118,1422.178z"/><path fill="#fc70ef" d="M2181.648,1782.988c0,0,3.986,3.497,5.417,4.577c1.018-0.851,3.017-2.38,3.089-3.376
							c-1.665,0.116-4.86-0.897-5.545-2.828C2183.838,1782.076,2181.648,1782.988,2181.648,1782.988z"/><path fill="#fc73c2" d="M2000.695,1638.611c-3.865-2.829-3.74-8.924-5.203-11.858
							c-0.837,1.244-3.265,3.151-7.042,2.487c2.636,1.292,6.853,5.68,6.589,9.269
							C1996.951,1639.517,1999.761,1639.556,2000.695,1638.611z"/><path fill="#e761e8" d="M1199.927,1787.794c0,0-3.564-5.371-4.874-7.1c-1.208,0.606-3.554,1.636-3.8,2.741
							c1.758,0.455,4.92,2.73,5.305,5.162C1197.486,1788.057,1199.927,1787.794,1199.927,1787.794z"/><path fill="#67dca8" d="M2055.611,1728.046c-4.227,0.693-8.565-3.585-11.512-4.604
							c0.427,1.427,0.436,4.396-2.176,6.517c2.422-0.911,7.975-0.771,10.422,1.878
							C2054.154,1731.225,2055.767,1729.334,2055.611,1728.046z"/><path fill="#a166d0" d="M1150.538,1246.037c0,0,4.05-10.014,5.231-13.434c-1.67-0.807-4.728-2.533-6.299-1.651
							c0.753,2.6,0.283,8.83-2.477,11.887C1148.37,1243.379,1150.538,1246.037,1150.538,1246.037z"/><path fill="#856bee" d="M2031.853,1494.908c6.93-5.176,18.908-3.073,25.204-4.45c-2.16-1.701-5.072-6.106-2.442-11.82
							c-3.469,3.729-13.597,8.969-20.584,7.433C2031.374,1488.754,2030.316,1493.147,2031.853,1494.908z"/><path fill="#b452a4" d="M1224.522,1154.466c0,0-9.426-6.654-12.75-8.687c-1.787,1.825-5.343,5.12-5.137,7.142
							c3.376-0.407,10.294,1.309,12.388,5.142C1220.352,1156.536,1224.522,1154.466,1224.522,1154.466z"/><path fill="#8e5dca" d="M1751.071,1699.798c-2.536-2.51-2.542-7.677-3.529-10.207
							c-0.523,1.031-2.064,2.579-4.512,1.908c1.721,1.171,4.506,5.014,4.387,8.051
							C1748.666,1700.46,1750.481,1700.573,1751.071,1699.798z"/><path fill="#934d98" d="M2083.316,1492.144c0,0-6.518,4.024-8.609,5.532c0.815,1.649,2.213,4.834,3.603,5.285
							c0.48-2.243,3.16-6.105,6.172-6.323C2083.763,1495.364,2083.316,1492.144,2083.316,1492.144z"/><path fill="#fc67e8" d="M2165.068,1540.905c0.913-5.771,8.261-9.626,10.827-13.028
							c-2.015-0.037-5.834-1.257-7.446-5.525c0.137,3.52-2.412,10.667-6.859,12.744
							C2161.606,1537.697,2163.347,1540.574,2165.068,1540.905z"/><path fill="#7eb0e4" d="M2058.344,1774.803c0,0,0.168-4.291,0.126-5.748c-0.971-0.268-2.793-0.862-3.406-0.437
							c0.846,1.044,1.751,3.634,0.949,5.003C2056.79,1773.79,2058.344,1774.803,2058.344,1774.803z"/><polygon fill="#d9d9d9" points="2079.014 1606.269 1889.954 1497.115 2141.837 1350.191 1952.788 1241.042 1700.493 1387.73 1431.139 1231.475 1243.307 1340.631 1513.073 1497.123 1325.721 1606 1231.805 1660.578 1420.865 1769.72 1514.771 1715.148 1702.123 1606.271 1891.183 1715.425 1985.713 1770.002 2173.544 1660.846"/><polygon fill="#d9d9d9" points="1863.901 1568.846 1841.612 1581.799 2233.516 1808.065 2255.805 1795.112"/><polygon fill="#d9d9d9" points="1588.297 1398.272 1566.008 1411.225 1174.104 1184.959 1196.393 1172.006"/><polygon fill="#d9d9d9" points="1113.281 1820.54 1135.571 1833.493 1527.474 1607.227 1505.185 1594.274"/><polygon fill="#d9d9d9" points="1835.076 1407.982 1857.365 1420.935 2249.269 1194.669 2226.98 1181.716"/><polygon fill="#ffac9e" points="2234.844 1804.808 2257.135 1791.853 2257.131 1793.141 2234.84 1806.096"/><path fill="#ff5438" d="M2177.386,1736.839c-9.645-8.369-17.968-15.603-34.748-25.291
							c-20.436-11.799-33.673-15.827-46.485-19.715c-12.742-3.882-25.928-7.893-46.222-19.609
							c-20.264-11.699-30.551-21.88-40.505-31.741c-10.045-9.936-20.432-20.222-40.888-32.032
							c-20.456-11.81-30.868-13.533-40.926-15.203c-9.886-1.64-20.106-3.322-39.996-14.736l-22.291,12.954
							c19.891,11.414,30.11,13.096,39.996,14.736c10.058,1.67,20.47,3.393,40.926,15.203c20.456,11.81,30.843,22.096,40.888,32.032
							c9.954,9.861,20.24,20.041,40.505,31.741c20.294,11.717,33.481,15.728,46.223,19.609c12.812,3.888,26.05,7.916,46.485,19.715
							c16.781,9.688,25.104,16.922,34.748,25.291c13.67,11.878,30.679,26.649,79.749,55.014l22.291-12.954
							C2208.065,1763.488,2191.056,1748.717,2177.386,1736.839z"/><path fill="#bf4935" d="M1946.246,1621.405c20.456,11.81,30.843,22.096,40.888,32.032
								c9.954,9.861,20.24,20.041,40.505,31.741c20.294,11.717,33.481,15.728,46.223,19.609c12.812,3.888,26.05,7.916,46.485,19.715
								c16.781,9.688,25.104,16.922,34.748,25.291c13.67,11.878,30.679,26.649,79.749,55.014l-0.004,1.288
								c-49.201-28.441-66.281-43.276-80.021-55.207c-9.574-8.316-17.836-15.492-34.476-25.099
								c-20.294-11.717-33.481-15.728-46.223-19.598c-12.812-3.9-26.05-7.928-46.485-19.726
								c-20.456-11.81-30.843-22.084-40.878-32.026c-9.954-9.861-20.25-20.047-40.515-31.747
								c-20.264-11.699-30.575-13.411-40.552-15.057c-9.967-1.652-20.278-3.352-40.37-14.883l0.004-1.288
								c19.891,11.414,30.11,13.096,39.996,14.737C1915.379,1607.872,1925.791,1609.595,1946.246,1621.405z"/><g><polygon fill="#ffac9e" points="1441.023 1322.064 1463.314 1309.11 1463.31 1310.398 1441.019 1323.352"/><path fill="#ff5438" d="M1422.944,1294.239c-9.967-1.652-20.288-3.358-40.552-15.057
								c-20.264-11.699-30.551-21.892-40.505-31.741c-10.045-9.948-20.432-20.233-40.888-32.044
								c-20.426-11.793-33.673-15.815-46.475-19.709c-12.752-3.887-25.928-7.892-46.222-19.609c-3.929-2.268-7.378-4.398-10.5-6.441
								l-22.291,12.954c3.122,2.044,6.571,4.173,10.5,6.441c20.294,11.717,33.471,15.722,46.223,19.609
								c12.802,3.894,26.049,7.916,46.475,19.709c20.456,11.81,30.843,22.096,40.888,32.043
								c9.954,9.849,20.241,20.041,40.505,31.741c20.264,11.699,30.585,13.405,40.552,15.057c9.977,1.646,20.288,3.358,40.37,14.871
								l22.291-12.954C1443.231,1297.597,1432.921,1295.885,1422.944,1294.239z"/><path fill="#bf4935" d="M1400.652,1307.193c-9.967-1.652-20.288-3.358-40.552-15.057
								c-20.264-11.699-30.551-21.892-40.505-31.741c-10.045-9.948-20.432-20.233-40.888-32.043
								c-20.426-11.793-33.673-15.815-46.475-19.709c-12.752-3.888-25.928-7.893-46.223-19.609c-3.929-2.268-7.378-4.397-10.5-6.441
								l0.111,1.383c3.395,2.253,6.017,3.836,10.385,6.357c20.426,11.793,33.673,15.815,46.475,19.709
								c12.752,3.876,25.928,7.881,46.223,19.598c20.264,11.699,30.561,21.897,40.515,31.747
								c10.035,9.942,20.422,20.227,40.878,32.038c20.466,11.816,30.868,13.533,40.936,15.197
								c9.886,1.641,20.096,3.328,39.986,14.731l0.004-1.288C1420.94,1310.551,1410.63,1308.84,1400.652,1307.193z"/></g><g><polygon fill="#bf4935" points="1135.37 1832.291 1113.079 1819.337 1113.075 1818.049 1135.367 1831.004"/><path fill="#ff5438" d="M1135.367,1831.004l-22.291-12.954c19.9-11.571,30.086-21.658,39.949-31.42
							c10.045-9.948,20.422-20.227,40.878-32.038c20.466-11.816,30.868-13.533,40.936-15.198
							c9.977-1.658,20.298-3.364,40.562-15.063c20.224-11.676,30.042-22.958,40.435-34.896
							c10.05-11.555,20.443-23.493,40.939-35.327c20.496-11.834,30.923-11.915,41.005-11.984c10.427-0.081,20.277-0.156,40.5-11.832
							c20.234-11.682,30.052-22.964,40.445-34.902c9.959-11.444,20.262-23.284,40.384-35.006l22.291,12.954
							c-20.122,11.722-30.425,23.562-40.384,35.006c-10.393,11.939-20.211,23.22-40.445,34.902
							c-20.224,11.676-30.074,11.75-40.5,11.832c-10.083,0.069-20.509,0.15-41.005,11.984
							c-20.496,11.833-30.889,23.772-40.939,35.327c-10.393,11.939-20.211,23.22-40.435,34.896
							c-20.264,11.699-30.585,13.405-40.562,15.063c-10.068,1.664-20.47,3.381-40.936,15.198
							c-20.456,11.81-30.833,22.09-40.878,32.038C1165.453,1809.345,1155.267,1819.433,1135.367,1831.004z"/><path fill="#ffac9e" d="M1541.401,1573.338l0.004,1.288c-19.85,11.565-29.588,22.753-39.88,34.576
								c-10.05,11.555-20.453,23.499-40.949,35.333c-20.486,11.828-30.913,11.909-41.005,11.984
								c-10.427,0.082-20.277,0.156-40.5,11.832c-20.234,11.682-30.052,22.964-40.445,34.902
								c-10.05,11.555-20.443,23.493-40.929,35.321c-20.466,11.816-30.868,13.533-40.936,15.198
								c-9.977,1.658-20.298,3.364-40.562,15.063c-20.254,11.694-30.551,21.892-40.505,31.741
								c-9.944,9.855-20.23,20.035-40.323,31.717l-0.004-1.288c19.9-11.571,30.086-21.658,39.949-31.42
								c10.045-9.948,20.422-20.227,40.878-32.038c20.466-11.816,30.868-13.533,40.936-15.198
								c9.977-1.658,20.298-3.364,40.562-15.063c20.224-11.676,30.042-22.958,40.435-34.896
								c10.05-11.555,20.443-23.493,40.939-35.327c20.496-11.834,30.923-11.915,41.005-11.984
								c10.427-0.082,20.277-0.156,40.5-11.832c20.234-11.682,30.052-22.964,40.445-34.902
								C1510.976,1596.9,1521.278,1585.06,1541.401,1573.338z"/></g><g><polygon fill="#888" points="1917.72 1385.593 1895.428 1372.638 1895.425 1371.35 1917.716 1384.305"/><path fill="#ff5438" d="M2226.253,1180.172c-1.918,1.224-3.766,2.349-5.623,3.421
							c-20.234,11.682-30.074,11.75-40.51,11.838c-10.083,0.069-20.509,0.15-41.006,11.984s-30.889,23.772-40.939,35.327
							c-10.393,11.939-20.211,23.22-40.435,34.896c-20.264,11.7-30.585,13.405-40.562,15.063
							c-10.058,1.658-20.47,3.382-40.926,15.192c-20.456,11.81-30.844,22.095-40.888,32.043
							c-9.853,9.756-20.049,19.849-39.939,31.414l22.291,12.954c19.89-11.565,30.086-21.658,39.939-31.414
							c10.045-9.948,20.432-20.233,40.888-32.044c20.456-11.81,30.868-13.533,40.926-15.192c9.977-1.658,20.298-3.363,40.562-15.063
							c20.224-11.676,30.042-22.958,40.435-34.896c10.05-11.555,20.443-23.493,40.939-35.327
							c20.496-11.833,30.923-11.915,41.005-11.984c10.437-0.087,20.277-0.156,40.51-11.838c1.858-1.073,3.705-2.197,5.623-3.421
							L2226.253,1180.172z"/><path fill="#ffac9e" d="M2161.405,1220.369c20.496-11.833,30.923-11.915,41.005-11.984
								c10.437-0.087,20.277-0.156,40.51-11.838c1.858-1.073,3.705-2.197,5.623-3.421l0.004,1.288
								c-1.958,1.247-3.806,2.372-5.623,3.421c-20.496,11.833-30.923,11.915-41.006,11.984c-10.427,0.081-20.277,0.155-40.51,11.837
								c-20.224,11.676-30.042,22.958-40.435,34.896c-10.06,11.561-20.453,23.499-40.939,35.327
								c-20.456,11.81-30.868,13.533-40.936,15.198c-9.977,1.658-20.288,3.358-40.552,15.057
								c-20.264,11.699-30.561,21.898-40.505,31.741c-9.954,9.861-20.24,20.041-40.323,31.717l-0.004-1.288
								c19.89-11.565,30.086-21.658,39.939-31.414c10.045-9.948,20.432-20.233,40.888-32.043
								c20.456-11.81,30.868-13.533,40.926-15.192c9.977-1.658,20.298-3.364,40.562-15.063
								c20.224-11.676,30.042-22.958,40.435-34.896C2130.516,1244.141,2140.909,1232.203,2161.405,1220.369z"/></g><g><polygon fill="#a8927a" points="1242.168 1305.656 1429.299 1196.907 1516.233 1211.92 1329.103 1320.669"/><polygon fill="#888" points="1510.754 1487.815 1697.884 1379.066 1696.243 1384.409 1509.113 1493.158"/><polygon fill="#f0d0af" points="1329.103 1320.669 1516.233 1211.92 1697.884 1379.066 1510.754 1487.815"/><polygon fill="#806e5c" points="1329.103 1320.669 1510.754 1487.815 1509.113 1493.158 1329.227 1327.646 1244.051 1312.939 1242.168 1305.656"/><polygon fill="#a8927a" points="2068.76 1322.405 1881.63 1213.656 1968.564 1198.644 2155.695 1307.392"/><polygon fill="#6d6d6d" points="1888.76 1494.9 1701.63 1386.152 1699.979 1380.802 1887.109 1489.551"/><polygon fill="#ccaf95" points="1887.109 1489.551 1699.979 1380.802 1881.63 1213.656 2068.76 1322.405"/><polygon fill="#877460" points="2068.76 1322.405 2155.695 1307.392 2153.812 1314.676 2068.636 1329.382 1888.76 1494.9 1887.109 1489.551"/><polygon fill="#bca489" points="1886.558 1488.395 1886.54 1494.954 1698.719 1604.104 1698.737 1597.545"/><polygon fill="#897764" points="1698.737 1597.545 1698.719 1604.104 1509.658 1494.949 1509.677 1488.391"/><polygon fill="#e3c4a7" points="1886.558 1488.395 1698.737 1597.545 1509.677 1488.391 1697.498 1379.241"/><g><polygon fill="#c8ae92" points="1517.244 1640.669 1330.114 1531.92 1512.117 1489.11 1699.248 1597.859"/><polygon fill="#82715f" points="1432.427 1731.013 1245.297 1622.265 1243.389 1617.17 1430.519 1725.918"/><polygon fill="#e3c5a6" points="1430.519 1725.918 1243.389 1617.17 1330.114 1531.92 1517.244 1640.669"/><polygon fill="#b09780" points="1517.244 1640.669 1699.248 1597.859 1697.642 1605.088 1517.418 1647.474 1432.427 1731.013 1430.519 1725.918"/></g><g><polygon fill="#b19a81" points="1699.394 1597.86 1886.525 1489.111 2068.528 1531.922 1881.398 1640.67"/><polygon fill="#96836e" points="1968.133 1725.926 2155.264 1617.177 2153.345 1622.266 1966.215 1731.015"/><polygon fill="#e7c9a9" points="1881.398 1640.67 2068.528 1531.922 2155.264 1617.177 1968.133 1725.926"/><polygon fill="#806f5e" points="1881.398 1640.67 1968.133 1725.926 1966.215 1731.015 1881.234 1647.482 1701 1605.089 1699.394 1597.86"/></g></g><g><polygon fill="#dcdcdc" points="1805.193 1528.139 1768.908 1549.225 1596.343 1449.594 1632.627 1428.508"/><path fill="#f2be00" d="M1767.053,1463.672L1767.053,1463.672l-14.714-8.495c-2.281-1.317-4.133-4.515-4.125-7.145
							l0.064-22.469c0.007-2.63-1.836-5.823-4.126-7.145l-20.764-11.988c-2.289-1.321-4.132-4.524-4.125-7.146l0.06-21.078
							c0.007-2.63-1.844-5.828-4.126-7.145l-14.713-8.495c-2.29-1.322-4.133-4.524-4.125-7.154l1.129-281.315l-8.95-4.671
							l-1.143,286.235c-0.014,5.346,3.728,11.85,8.393,14.546l14.57,8.412l-0.059,20.913c-0.012,5.343,3.731,11.843,8.393,14.538
							l20.621,11.906l-0.063,22.304c-0.012,5.358,3.745,11.85,8.393,14.537l14.57,8.412l-0.067,23.695l0.279-0.008h0.001
							l0.004,0.001l4.528,2.133c1.575,0.909,2.945,0.688,3.649-0.396c0.076-0.118,0.145-0.246,0.205-0.384
							c0.047-0.108,0.089-0.221,0.125-0.341c0.032-0.104,0.059-0.212,0.082-0.324c0.021-0.102,0.039-0.208,0.052-0.318
							c0.013-0.103,0.023-0.209,0.029-0.318c0.006-0.096,0.009-0.194,0.009-0.294l0.068-23.859
							C1771.185,1468.196,1769.342,1464.993,1767.053,1463.672z M1710.658,1378.446l0.015-0.024c0,0,0,0,0,0
							c0.003,0.002,0.013,0.022,0.01,0.024L1710.658,1378.446z M1762.542,1471.057l-0.029,0.001l0.013-0.022
							C1762.529,1471.034,1762.542,1471.053,1762.542,1471.057C1762.542,1471.057,1762.542,1471.057,1762.542,1471.057z"/><path fill="#b38c00" d="M1697.21,1479.509c-0.745,0.433-1.206,1.355-1.21,2.664l-0.035,12.222
							c-0.004,1.307-0.465,2.226-1.21,2.659l20.414-11.863c0.745-0.433,1.206-1.352,1.21-2.659l0.035-12.222
							c0.004-1.309,0.465-2.231,1.21-2.664L1697.21,1479.509z"/><path fill="#f2be00" d="M1694.731,1477.202c-4.31-2.049-7.679,0.166-7.695,5.219l-0.035,12.222l0.284-0.008l4.52,2.129
							c1.579,0.912,2.956,0.69,3.661-0.399c0.076-0.118,0.144-0.245,0.204-0.383c0.047-0.107,0.088-0.221,0.125-0.34
							c0.031-0.103,0.059-0.211,0.082-0.323c0.021-0.102,0.038-0.207,0.052-0.316c0.013-0.102,0.023-0.207,0.029-0.315
							c0.006-0.096,0.009-0.194,0.009-0.295l0.035-12.222c0.007-2.486,1.665-3.576,3.781-2.571
							C1698.098,1478.802,1696.415,1478.002,1694.731,1477.202z"/><path fill="#b38c00" d="M1739.88,1482.829c-0.743,0.432-1.202,1.35-1.206,2.656l-0.033,11.771
							c-0.004,1.305-0.465,2.222-1.207,2.654l20.414-11.863c0.742-0.431,1.203-1.348,1.207-2.654l0.033-11.771
							c0.004-1.306,0.464-2.225,1.206-2.656L1739.88,1482.829z"/><path fill="#f2be00" d="M1737.403,1480.522c-4.303-2.045-7.678,0.153-7.693,5.211l-0.033,11.769c0,0,0,0.001,0,0.002
							l0,0l0,0l0.045-0.001l0.255-0.007l0,0h0l0,0h0l4.512,2.126c0.125,0.072,0.248,0.137,0.37,0.195
							c0.013,0.006,0.017-0.001,0.024,0.001c1.406,0.658,2.615,0.401,3.259-0.595c0.076-0.117,0.144-0.245,0.204-0.382
							c0.047-0.107,0.088-0.22,0.124-0.339c0.031-0.103,0.058-0.21,0.081-0.322c0.021-0.102,0.038-0.207,0.052-0.315
							c0.013-0.102,0.023-0.207,0.029-0.315c0.005-0.095,0.008-0.193,0.009-0.293l0,0l0.033-11.771
							c0.007-2.486,1.665-3.567,3.781-2.562C1740.771,1482.123,1739.087,1481.323,1737.403,1480.522z"/><path fill="#b38c00" d="M1787.467,1451.808l-14.714-8.495c-2.281-1.317-4.132-4.515-4.125-7.145l0.064-22.469
							c0.007-2.63-1.836-5.823-4.126-7.145l-20.764-11.988c-2.289-1.321-4.133-4.524-4.125-7.146l0.06-21.078
							c0.007-2.63-1.844-5.828-4.126-7.145l-14.713-8.495c-2.289-1.322-4.132-4.524-4.125-7.154l1.129-281.315l-20.414,11.863
							l-1.129,281.315c-0.007,2.63,1.835,5.832,4.125,7.154l14.713,8.495c2.281,1.317,4.133,4.515,4.126,7.145l-0.06,21.078
							c-0.007,2.622,1.836,5.824,4.125,7.146l20.764,11.988c2.289,1.322,4.133,4.515,4.126,7.145l-0.064,22.469
							c-0.008,2.63,1.844,5.828,4.125,7.145l14.714,8.495c2.289,1.321,4.132,4.524,4.125,7.146l-0.068,23.859
							c-0.004,1.309-0.465,2.23-1.21,2.663l20.414-11.863c0.745-0.433,1.206-1.354,1.21-2.663l0.068-23.859
							C1791.6,1456.332,1789.756,1453.13,1787.467,1451.808z"/><path fill="#b38c00" d="M1738.663,1039.783l-72.804-42.033c-12.308-7.106-22.296-24.404-22.255-38.548l0.116-40.811
							c0.02-7.031,2.512-11.983,6.523-14.315l-20.414,11.863c-4.012,2.331-6.504,7.283-6.523,14.315l-0.116,40.811
							c-0.04,14.144,9.947,31.442,22.255,38.548l72.804,42.033c6.199,3.579,11.824,3.906,15.888,1.544l20.414-11.863
							C1750.488,1043.688,1744.862,1043.362,1738.663,1039.783z"/><path fill="#f2be00" d="M1718.249,1051.646l-72.804-42.033c-12.308-7.106-22.295-24.404-22.255-38.548l0.116-40.811
							c0.038-13.381,9.027-19.231,20.411-13.822c-1.682-0.799-3.365-1.599-5.047-2.398c-13.576-6.451-24.277,0.513-24.327,16.469
							l-0.116,40.811c-0.043,16.872,11.844,37.459,26.524,45.94l72.804,42.033c13.978,8.065,25.489,2.281,26.615-12.834
							c0.138-1.857,0.277-3.715,0.415-5.572C1739.639,1053.554,1729.969,1058.413,1718.249,1051.646z"/><path fill="#997800" d="M1743.69,915.469l-72.804-42.033c-1.447-0.836-2.88-1.589-4.295-2.262
							c-1.683-0.8-3.366-1.6-5.049-2.4c1.541,0.732,3.1,1.552,4.676,2.462l72.804,42.033c28.856,16.66,52.18,57.058,52.086,90.216
							l-0.116,40.811c-0.004,1.61-0.064,3.174-0.177,4.69c0.138-1.858,0.276-3.716,0.415-5.575c0.103-1.392,0.158-2.829,0.162-4.308
							l0.116-40.811C1791.598,967.859,1770.177,930.757,1743.69,915.469z"/><path fill="#ffd844" d="M1762.357,1471.313c-0.085-0.052-0.14-0.147-0.143-0.247l-0.068,23.859
								c0.002-0.085,0.058-0.119,0.144-0.073l-24.131-13.932c-4.657-2.688-8.432-0.537-8.449,4.814l-0.033,11.771
								c0.003-0.096,0.058-0.127,0.144-0.082l-34.337-19.824c-4.665-2.69-8.431-0.521-8.448,4.823l-0.035,12.222
								c0.004-0.091,0.055-0.12,0.135-0.078l-23.184-13.385c0.092,0.06,0.14,0.146,0.143,0.238l1.537-425.218l-24.953-14.407
								c-26.487-15.289-47.899-52.376-47.81-82.81l0.116-40.811c0.083-30.438,21.636-42.728,48.122-27.432l72.804,42.033
								c26.487,15.289,47.908,52.39,47.818,82.824l-0.116,40.811c-0.083,30.437-21.636,42.719-48.131,27.419l-24.945-14.402
								l-1.143,286.235c-0.014,5.346,3.728,11.85,8.393,14.546l14.713,8.495c-0.085-0.053-0.14-0.148-0.142-0.247l-0.06,21.078
								c-0.012,5.343,3.731,11.843,8.393,14.538l20.764,11.988c-0.078-0.046-0.141-0.155-0.142-0.247l-0.064,22.469
								c-0.013,5.359,3.745,11.85,8.393,14.537L1762.357,1471.313z M1640.749,1017.254l72.804,42.033
								c14.688,8.475,26.652,1.657,26.705-15.209l0.116-40.811c0.043-16.88-11.843-37.468-26.531-45.953l-72.804-42.033
								c-14.68-8.47-26.644-1.652-26.697,15.222l-0.116,40.81C1614.183,988.185,1626.069,1008.773,1640.749,1017.254
								L1640.749,1017.254z"/><path fill="#f2be00" d="M1718.608,925.133l-72.804-42.033c-27.454-15.851-50.03-4.507-52.241,25.188
							c-0.138,1.858-0.277,3.717-0.415,5.575c2.029-27.257,22.761-37.673,47.96-23.122l72.804,42.033
							c26.487,15.289,47.908,52.39,47.818,82.824l-0.116,40.811c-0.079,28.772-19.343,41.321-43.831,29.683
							c0.076,0.036,0.177,0.084,0.252,0.12s0.177,0.084,0.252,0.12c0.151,0.072,0.354,0.168,0.505,0.24s0.353,0.168,0.505,0.24
							c0.076,0.036,0.177,0.084,0.253,0.12c0.151,0.072,0.354,0.168,0.505,0.24c0.151,0.072,0.354,0.168,0.505,0.24
							c0.076,0.036,0.177,0.084,0.253,0.12c0.151,0.072,0.353,0.168,0.505,0.24c0.076,0.036,0.177,0.084,0.253,0.12
							c0.151,0.072,0.354,0.168,0.505,0.24c0.076,0.036,0.177,0.084,0.252,0.12c0.152,0.072,0.354,0.168,0.505,0.24
							c26.678,12.679,47.656-0.986,47.745-32.332l0.116-40.811C1770.788,982.191,1747.464,941.793,1718.608,925.133z"/><path fill="#b38c00" d="M1739.022,913.269l-72.804-42.033c-14.519-8.383-27.673-9.159-37.173-3.639l-20.414,11.863
							c9.5-5.521,22.654-4.744,37.173,3.639l72.804,42.033c28.856,16.66,52.18,57.058,52.086,90.216l-0.116,40.811
							c-0.047,16.471-5.861,28.061-15.24,33.511l20.414-11.863c9.379-5.45,15.193-17.04,15.24-33.511l0.116-40.811
							C1791.202,970.327,1767.878,929.93,1739.022,913.269z"/></g><g><ellipse cx="1698.122" cy="727.091" fill="#c4c4c4" rx="56.602" ry="37.307" transform="rotate(-.693 1699.432 727.646)"/><path fill="#525252" d="M1658.035,765.088c23.078,12.585,59.717,11.771,81.836-1.818
														c10.878-6.683,16.218-15.21,16.092-23.649c0.001,4.255-0.435,7.052-1.518,10.752c-0.394,1.346-1.051,3.106-1.644,4.378
														c-0.724,1.554-1.848,3.549-2.734,5.016c-0.891,1.476-2.341,3.276-3.453,4.593c-0.929,1.1-2.294,2.455-3.337,3.447
														c-3.057,2.91-6.629,5.166-7.974,6.015c-0.673,0.425-3.161,1.943-6.938,3.646c-2.897,1.306-5.426,2.135-7.1,2.684
														c-4.158,1.363-10.008,2.585-14.555,3.041c-1.103,0.11-2.573,0.278-3.68,0.328c-1.108,0.049-2.585,0.139-3.694,0.164
														c-1.111,0.025-2.592,0.001-3.703,0c-2.199-0.001-4.5-0.22-7.413-0.498c-3.694-0.352-10.122-1.581-14.757-3.164
														c-2.272-0.776-4.417-1.508-7.319-2.888c-3.203-1.523-4.861-2.503-7.161-3.998c-0.845-0.549-1.95-1.318-2.741-1.942
														c-1.17-0.922-2.68-2.215-3.79-3.208c-1.256-1.123-2.727-2.832-3.825-4.109c-1.673-1.946-4.483-6.171-5.972-10.154
														c-1.163-3.111-1.373-4.053-1.924-6.839c-0.224-1.134-0.343-2.55-0.426-3.87
														C1641.124,751.158,1647.054,759.101,1658.035,765.088z"/><path fill="#858585" d="M1755.399,702.728l0.564,36.892c0.126,8.439-5.191,18.888-16.069,25.57
														c-22.119,13.589-58.759,14.403-81.836,1.818c-11.729-6.396-17.721-16.943-17.851-25.664l-0.564-36.892
														C1640.002,671.136,1755.701,666.605,1755.399,702.728z"/><path fill="#6b6b6b" d="M1657.416,723.672c23.078,12.585,59.717,11.771,81.836-1.818
														c10.878-6.683,16.218-15.211,16.092-23.649l0.619,41.416c0.126,8.439-5.191,18.888-16.069,25.57
														c-22.119,13.589-58.759,14.403-81.836,1.818c-11.729-6.396-17.721-16.943-17.851-25.664l-0.619-41.416
														C1639.718,708.651,1645.687,717.276,1657.416,723.672z"/><path fill="#85821c" d="M1653.815,718.91c25.093,13.684,64.932,12.799,88.983-1.977
														c10.442-6.415,16.19-14.394,17.299-22.49c-0.596,4.998-2.403,9.665-5.521,14.211c-1.106,1.613-3.236,4.261-5.597,6.414
														c-1.51,1.377-3.792,3.458-8.305,6.265c-1.249,0.777-3.899,2.329-7.615,3.996c-1.61,0.722-4.326,1.841-8.125,3.068
														c-1.146,0.37-4.27,1.326-8.514,2.211c-3.817,0.795-6.688,1.141-8.785,1.393c-2.751,0.331-9.713,0.958-18.03,0.389
														c-8.479-0.581-13.827-1.925-17.366-2.815c-3.993-1.004-9.97-3.174-13.053-4.74c-4.271-2.169-4.526-2.299-7.788-4.428
														c-0.999-0.652-3.569-2.521-5.264-4.091c-0.907-0.839-2.594-2.402-3.765-3.833c-0.511-0.625-1.216-1.443-1.682-2.103
														c-0.916-1.297-1.708-2.417-2.325-3.568c-1.503-2.801-1.912-3.79-2.813-6.636c-0.32-1.01-0.514-2.044-0.783-3.475
														c-0.115-0.61-0.185-1.437-0.256-2.054C1635.3,703.595,1641.759,712.336,1653.815,718.91z"/><path fill="#ede500" d="M1579.236,524.715c0.447-4.203,1.298-9.796,2.331-13.894
														c1.301-5.163,3.414-11.961,5.334-16.927c1.574-4.071,4.155-9.313,6.285-13.123
														c9.836-17.589,24.24-32.366,41.656-42.734c3.599-2.142,8.567-4.722,12.389-6.434c5.861-2.625,11.539-4.459,12.63-4.773
														c1.688-0.484,3.918-1.207,5.628-1.607c6.947-1.627,6.947-1.627,11.05-2.298c1.605-0.263,3.753-0.58,5.373-0.725
														c6.696-0.601,7.097-0.637,10.551-0.705c3.164-0.062,7.385,0.091,10.546,0.234c1.632,0.074,3.801,0.296,5.423,0.488
														c1.688,0.2,3.936,0.5,5.614,0.772c1.68,0.273,3.903,0.73,5.576,1.044c1.71,0.321,3.951,0.935,5.642,1.345
														c0.058,0.014,5.911,1.447,13.518,4.48c3.864,1.54,8.833,4.029,12.544,5.91c2.626,1.469,6.066,3.537,8.591,5.172
														c1.914,1.238,4.352,3.059,6.197,4.398c3.019,2.191,6.793,5.459,9.48,8.047c3.26,3.14,7.433,7.526,10.257,11.063
														c3.168,3.967,7.039,9.545,9.668,13.888c5.444,8.994,9.549,19.835,10.979,24.927c1.137,4.047,2.606,9.476,3.254,13.629
														c0.847,5.427,1.418,12.745,1.718,18.229c0.014,0.959-0.006,1.918-0.062,2.878
														c0.733,49.017-47.701,95.613-51.146,154.777c-0.504,8.661-6.304,17.303-17.463,24.159
														c-24.051,14.776-63.89,15.661-88.983,1.977c-12.056-6.574-18.515-15.315-19.305-24.262
														c-5.212-59.035-55.016-104.167-55.749-153.184c-0.084-0.957-0.134-1.916-0.148-2.875
														C1578.635,534.423,1578.796,528.858,1579.236,524.715z" opacity=".9"/><path fill="#fff62b" d="M1579.236,524.715c0.447-4.203,1.298-9.796,2.331-13.894
														c1.301-5.163,3.414-11.961,5.334-16.927c1.574-4.071,4.155-9.313,6.285-13.123
														c9.836-17.589,24.24-32.366,41.656-42.734c3.599-2.142,8.567-4.722,12.389-6.434c5.861-2.625,11.539-4.459,12.63-4.773
														c1.688-0.484,3.918-1.207,5.628-1.607c6.947-1.627,6.947-1.627,11.05-2.299c1.605-0.263,3.753-0.58,5.373-0.725
														c6.696-0.601,7.097-0.637,10.551-0.705c3.164-0.062,7.385,0.091,10.546,0.234c1.632,0.074,3.801,0.296,5.423,0.488
														c1.688,0.2,3.936,0.5,5.614,0.772c1.68,0.273,3.903,0.73,5.576,1.044c1.71,0.321,3.951,0.935,5.642,1.345
														c0.058,0.014,5.911,1.447,13.518,4.48c3.864,1.54,8.834,4.029,12.544,5.91c2.626,1.469,6.066,3.538,8.591,5.172
														c1.914,1.239,4.352,3.059,6.197,4.398c3.019,2.191,6.793,5.459,9.48,8.047c3.26,3.14,7.433,7.526,10.257,11.063
														c3.168,3.967,7.039,9.545,9.668,13.888c5.444,8.994,9.549,19.834,10.979,24.927c1.137,4.047,2.606,9.476,3.254,13.629
														c0.847,5.427,1.418,12.745,1.718,18.229c0.014,0.959-0.006,1.918-0.062,2.878
														c-0.933,16.024-11.663,32.012-32.308,44.696c-44.495,27.336-118.2,28.974-164.623,3.658
														c-22.304-12.163-34.253-28.334-35.714-44.886c-0.084-0.957-0.134-1.916-0.148-2.875
														C1578.635,534.423,1578.796,528.858,1579.236,524.715z" opacity=".5"/><path fill="#e0e0e0" d="M1640.286,729.563c0.819,8.145,6.75,16.087,17.73,22.075
													c23.078,12.585,59.717,11.771,81.836-1.818c10.878-6.683,16.218-15.211,16.092-23.649
													c3.675,4.999,1.176,11.159-0.144,14.656c-1.961,5.197-7.955,11.825-15.855,16.678
													c-22.119,13.589-58.758,14.403-81.836,1.818c-7.512-4.096-12.039-8.516-15.929-14.028
													C1637.138,738.152,1638.303,729.291,1640.286,729.563z"/><path fill="#dbdbdb" d="M1640.092,713.552c0.819,8.145,6.75,16.087,17.73,22.075
													c23.078,12.585,59.717,11.771,81.836-1.818c10.878-6.683,16.218-15.211,16.092-23.649
													c3.675,5,1.176,11.159-0.143,14.656c-1.961,5.197-7.955,11.825-15.855,16.678
													c-22.119,13.589-58.758,14.403-81.836,1.818c-7.512-4.096-12.039-8.516-15.929-14.028
													C1636.944,722.141,1638.109,713.28,1640.092,713.552z"/><g opacity=".3"><path fill="#696969" d="M1706.202,728.157c-5.375,0.493-10.829,0.591-16.223,0.278l-24.69-217.356
														c-0.119-1.054,0.638-2.006,1.692-2.126c1.066-0.123,2.008,0.638,2.127,1.693l24.678,217.255l8.564,0.128l20.29-185.183
														c0.115-1.055,1.062-1.808,2.119-1.701c1.055,0.116,1.816,1.065,1.701,2.119L1706.202,728.157z"/><path fill="#9e9e9e" d="M1726.404,547.565l-0.418-0.235c-1.685-0.946-3.659-3.453-5.453-6.916
															c1.557-2.049,2.461-4.692,2.438-7.178c-0.014-1.531-0.369-2.968-1.057-4.273c-0.54-1.025-1.565-2.461-3.379-3.478
															c-0.878-0.492-1.682-0.738-2.392-0.73c-0.592,0.007-1.132,0.195-1.557,0.541c-0.813,0.657-1.218,1.833-1.205,3.495
															c0.023,2.458,0.978,6.096,2.571,9.826c-0.682,0.525-1.606,1.021-2.675,1.034c-0.631,0.008-1.255-0.159-1.855-0.496
															c-1.675-0.94-3.648-3.448-5.452-6.917c1.555-2.046,2.46-4.689,2.438-7.178c-0.016-1.549-0.373-2.988-1.062-4.276
															c-0.522-1.011-1.536-2.442-3.365-3.469c-0.878-0.492-1.682-0.738-2.392-0.73c-0.592,0.007-1.132,0.195-1.557,0.541
															c-0.813,0.637-1.222,1.816-1.205,3.497c0.023,2.457,0.978,6.094,2.571,9.824c-0.682,0.525-1.608,1.022-2.675,1.035
															c-0.631,0.008-1.255-0.159-1.855-0.497c-1.686-0.947-3.659-3.454-5.453-6.916c1.557-2.046,2.461-4.69,2.439-7.178
															c-0.016-1.549-0.373-2.988-1.062-4.276c-0.534-1.018-1.557-2.453-3.374-3.474c-0.876-0.492-1.679-0.738-2.387-0.729
															c-0.6,0.007-1.142,0.199-1.564,0.555c-0.807,0.632-1.219,1.809-1.205,3.481c0.023,2.446,0.983,6.085,2.581,9.829
															c-0.687,0.525-1.618,1.023-2.681,1.036c-0.627,0.008-1.249-0.159-1.847-0.494c-1.685-0.947-3.659-3.454-5.453-6.917
															c1.557-2.048,2.461-4.691,2.439-7.178c-0.015-1.532-0.372-2.97-1.059-4.273c-0.537-1.022-1.56-2.457-3.378-3.478
															c-0.878-0.492-1.682-0.738-2.392-0.73c-0.592,0.007-1.132,0.195-1.557,0.541c-0.814,0.656-1.22,1.832-1.206,3.495
															c0.023,2.46,0.98,6.098,2.573,9.826c-0.684,0.526-1.61,1.024-2.671,1.037c-0.631,0.008-1.255-0.16-1.858-0.499
															l-1.233-0.692l0.019,4.27l0.418,0.235c1.188,0.666,2.414,0.996,3.645,0.982c1.277-0.016,2.549-0.411,3.721-1.151
															c1.488,2.658,4.085,6.595,7.198,8.343c1.181,0.662,2.401,0.991,3.627,0.976c1.281-0.016,2.555-0.413,3.729-1.159
															c1.485,2.661,4.078,6.601,7.197,8.352c1.183,0.664,2.408,0.993,3.639,0.979c1.282-0.016,2.555-0.412,3.727-1.155
															c1.479,2.658,4.064,6.592,7.187,8.345c1.183,0.665,2.408,0.994,3.639,0.979c1.282-0.016,2.557-0.413,3.729-1.157
															c1.485,2.661,4.078,6.602,7.195,8.353l1.233,0.693L1726.404,547.565z M1717.223,529.071
															c0.092,0.022,0.26,0.081,0.527,0.231c0.539,0.303,0.896,0.643,1.122,1.068c0.222,0.42,0.349,1.025,0.355,1.704
															c0.01,1.091-0.291,2.305-0.832,3.443c-0.795-2.233-1.258-4.242-1.269-5.563
															C1717.121,529.455,1717.181,529.193,1717.223,529.071z M1702.665,520.901c0.094,0.022,0.262,0.081,0.532,0.233
															c0.531,0.298,0.898,0.647,1.122,1.068c0.222,0.42,0.349,1.024,0.355,1.703c0.01,1.078-0.291,2.291-0.835,3.436
															c-0.798-2.239-1.265-4.249-1.277-5.562C1702.557,521.307,1702.617,521.031,1702.665,520.901z M1688.106,512.729
															c0.092,0.022,0.262,0.08,0.527,0.229c0.539,0.303,0.906,0.649,1.117,1.06c0.234,0.443,0.365,1.05,0.372,1.718
															c0.01,1.083-0.292,2.296-0.84,3.436c-0.795-2.244-1.26-4.254-1.273-5.562
															C1688.004,513.113,1688.064,512.852,1688.106,512.729z M1673.553,504.56c0.092,0.022,0.26,0.081,0.527,0.231
															c0.539,0.302,0.894,0.641,1.122,1.068c0.224,0.423,0.35,1.027,0.355,1.702c0.01,1.092-0.291,2.307-0.832,3.445
															c-0.793-2.229-1.256-4.238-1.269-5.564C1673.451,504.942,1673.511,504.681,1673.553,504.56z"/></g><defs><path id="c" d="M1614.476,586.35c46.424,25.316,120.128,23.678,164.623-3.658
															c20.646-12.684,31.375-28.672,32.308-44.696c0.733,49.017-47.701,95.613-51.146,154.777
															c-0.504,8.661-6.304,17.303-17.464,24.159c-24.051,14.776-63.89,15.661-88.983,1.977
															c-12.056-6.574-18.515-15.315-19.305-24.262c-5.212-59.034-55.016-104.167-55.749-153.184
															C1580.223,558.016,1592.172,574.188,1614.476,586.35z"/></defs><clipPath id="d"><use overflow="visible" xlink:href="#c"/></clipPath><g clip-path="url(#d)" opacity=".75"><path fill="#fff" d="M1675.258,658.951c0.212-0.723,0.584-1.661,0.909-2.341
															c0.383-0.801,0.979-1.827,1.444-2.582c0.577-0.936,1.991-2.665,3.099-3.648c0.135-0.12,0.241-0.3,0.383-0.425
															c0.098,0.659,0.704,6.086,0.783,6.894c0.237,0.944,3.625,1.399,3.736-0.586c0.037-0.677-0.865-8.108-0.959-8.773
															c0.265-0.152,0.546-0.308,0.846-0.468c2.489-1.323,4.944-1.877,5.992-2.114c1.093-0.247,2.958-0.536,5.636-0.511
															c0.647,0.006,2.976,0.082,5.75,0.805c0.867,0.226,1.773,0.526,2.692,0.891c0.743,0.295,1.699,0.774,2.412,1.135
															c0.794,0.444,1.873,1.086,3.026,1.99c0.111,0.81-0.973,10.503-1.17,11.777c0.369,1.268,3.06,1.8,3.607,0.239
															c0.389-2.902,0.984-7.872,1.019-8.555c0.579,0.745,1.023,1.435,1.449,2.125c0.697,1.126,1.521,2.996,1.876,4.256
															c0.193,0.685,0.441,1.603,0.551,2.306c0.143,0.916,0.24,2.151,0.29,3.077c0.048,3.227-1.994,6.489-6.154,9.044
															c-8.459,5.197-22.471,5.508-31.297,0.695c-4.486-2.446-6.768-5.745-6.818-9.08
															C1674.374,662.394,1674.655,661.003,1675.258,658.951z"/><path fill="#f0f0f0" d="M1681.177,674.181c8.826,4.813,22.838,4.501,31.297-0.695
															c4.16-2.556,6.202-5.817,6.154-9.044l1.021,68.293c0.048,3.227-1.994,6.489-6.154,9.044
															c-8.459,5.197-22.472,5.508-31.297,0.695c-4.485-2.446-6.768-5.745-6.818-9.08l-1.021-68.293
															C1674.409,668.436,1676.692,671.735,1681.177,674.181z"/></g><ellipse cx="1630.827" cy="487.603" fill="#ccc" rx="32.654" ry="21.429" transform="rotate(-39.599 1630.777 487.62)"/><g><path fill="#807900" d="M1554.791,614.036l-51.195,19.773c-2.36,0.911-5.012-0.263-5.923-2.623l0,0
							c-0.911-2.36,0.263-5.012,2.623-5.923l51.195-19.773c2.36-0.911,5.012,0.263,5.923,2.623l0,0
							C1558.325,610.472,1557.151,613.124,1554.791,614.036z"/><path fill="#807900" d="M1550.268,504.593l-51.659-18.527c-2.381-0.854-3.619-3.477-2.765-5.858l0,0
							c0.854-2.381,3.477-3.619,5.858-2.765l51.659,18.527c2.381,0.854,3.619,3.477,2.765,5.858l0,0
							C1555.272,504.209,1552.65,505.447,1550.268,504.593z"/><path fill="#807900" d="M1674.733,393.344l-3.951-54.739c-0.182-2.523,1.716-4.716,4.239-4.899l0,0
							c2.523-0.182,4.716,1.716,4.899,4.239l3.951,54.739c0.182,2.523-1.716,4.716-4.239,4.898l0,0
							C1677.109,397.765,1674.916,395.867,1674.733,393.344z"/><path fill="#807900" d="M1814.174,460.434l41.523-35.885c1.914-1.654,4.807-1.444,6.461,0.471l0,0
							c1.654,1.914,1.443,4.807-0.471,6.461l-41.523,35.885c-1.914,1.654-4.807,1.443-6.461-0.471l0,0
							C1812.049,464.981,1812.26,462.088,1814.174,460.434z"/><path fill="#807900" d="M1848.391,571.187l53.097,13.881c2.448,0.64,3.913,3.143,3.273,5.59v0
							c-0.64,2.448-3.143,3.913-5.59,3.273l-53.097-13.881c-2.448-0.64-3.913-3.143-3.273-5.59l0,0
							C1843.44,572.013,1845.943,570.547,1848.391,571.187z"/><path fill="#807900" d="M1751.473,404.202c0.04,3.272-2.581,5.956-5.852,5.996c-3.272,0.04-5.956-2.581-5.996-5.852
							c-0.04-3.272,2.58-5.956,5.852-5.996C1748.749,398.31,1751.433,400.93,1751.473,404.202z"/><path fill="#807900" d="M1599.668,420.328c0.04,3.272-2.581,5.956-5.852,5.996c-3.272,0.04-5.956-2.581-5.996-5.852
							c-0.04-3.272,2.581-5.956,5.852-5.996C1596.944,414.436,1599.628,417.056,1599.668,420.328z"/><path fill="#807900" d="M1541.512,561.573c0.04,3.272-2.581,5.956-5.852,5.996c-3.272,0.04-5.956-2.581-5.996-5.852
							c-0.04-3.272,2.58-5.956,5.852-5.996C1538.788,555.681,1541.472,558.301,1541.512,561.573z"/><path fill="#807900" d="M1851.314,500.208c0.04,3.272-2.581,5.956-5.852,5.996c-3.272,0.04-5.956-2.581-5.996-5.852
							c-0.04-3.272,2.581-5.956,5.852-5.996C1848.59,494.316,1851.274,496.936,1851.314,500.208z"/></g></g></g><g><ellipse cx="2465.007" cy="1690.063" fill="#e6e6e6" rx="62.5" ry="107.902" transform="rotate(-89.84 2464.935 1690.068)"/><path fill="#c74c38" d="M2396.704,1427.563l93.42-1.511l10.072,17.123c0,0-40.289,7.051-48.85,10.576
						c-8.561,3.525-60.746,22.815-79.128,15.009s-13.285-21.556-13.285-21.556L2396.704,1427.563z"/><path fill="#4a3d1a" d="M2521.673,1409.246c4.45,0.863,8.612,2.385,8.31,16.115c-0.498,22.67,4.077,46.972-1.259,51.368
						c-6.456,5.319-13.94,4.924-16.206-3.889c-2.266-8.813-8.017-42.792-8.017-42.792
						C2508.95,1418.651,2508.835,1406.756,2521.673,1409.246z"/><path fill="#997f37" d="M2518.748,1411.196c0,0,8.939-2.774,8.31,16.116c-0.755,22.662,4.532,47.591-1.259,51.368
						c-5.792,3.777-14.605,0.504-16.871-8.31c-2.266-8.813-6.799-32.735-6.799-32.735
						C2506.578,1426.238,2507.101,1411.957,2518.748,1411.196z"/><path fill="#c74c38" d="M2449.835,1329.359c0,0-84.355,78.311-91.406,112.557
						c-7.051,34.245,29.209,18.885,32.987,16.367c3.777-2.518,116.082-109.535,116.082-109.535L2449.835,1329.359z"/><path fill="#ffc39b" d="M2373.913,1232.187c0,0-0.161-2.075,1.432-5.749c1.594-3.673,5.427-1.814,8.502-16.877
						c0,0,4.894-2.399,2.495-8.198l-5.643-1.858c0,0-3.411-6.277-5.913-8.031c-2.503-1.754-4.26-3.775-13.675,3.151
						c0,0-7.969,17.462-3.17,29.06c0,0,0.06,8.834,1.658,10.589C2361.197,1236.028,2367.958,1239.748,2373.913,1232.187z"/><path fill="#ffc39b" d="M2374.576,1228.421l32.31,38.186c0,0,15.401,29.06-5.447,24.685
						c-18.197-3.819-39.697-39.793-41.776-57.234C2358.687,1225.871,2374.576,1228.421,2374.576,1228.421z"/><path fill="#ffc39b" d="M2401.315,1269.118c0-3.73,14.664-22.621,16.457-42.568
						c1.755-19.529,1.822-31.096,11.849-37.521c20.281-12.995,32.321,4.408,32.321,4.408s-16.637,90.747-49.91,96.292
						C2398.068,1292.056,2401.315,1269.118,2401.315,1269.118z"/><path fill="#ab55bd" d="M2416.37,1227.124c1.867-20.77,1.938-33.073,12.602-39.906
						c21.569-13.821,34.375,4.689,34.375,4.689s-4.943,26.96-14.828,53.253C2436.285,1255.652,2416.76,1239.306,2416.37,1227.124z"/><path fill="#4a3d1a" d="M2534.569,1469.864c6.771,2.572,9.467,13.404,4.549,33.505
						c-1.438,5.877,1.446,16.5-1.069,23.922c-3.849,11.362-12.224,17.921-17.504,17.233c-10.106-1.318-7.438-33.616-7.438-33.616
						s1.442-26.36,4.171-32.81C2519.348,1473.202,2523.084,1467.793,2534.569,1469.864z"/><path fill="#997f37" d="M2530.941,1471.65c6.771,2.572,9.467,13.404,4.549,33.505c-1.438,5.877,1.445,16.5-1.069,23.922
						c-3.849,11.362-10.061,15.935-15.341,15.246c-10.106-1.318-9.602-31.63-9.602-31.63s5.178-27.438,7.907-33.889
						C2519.457,1473.91,2519.457,1469.579,2530.941,1471.65z"/><path fill="#4a3d1a" d="M2524.273,1499.318c4.114,5.074,4.359,12.414,0.923,16.286
						c-4.292,4.837-9.765,6.566-13.722,4.293c-4.273-2.455-3.068-17.202-3.068-17.202l3.922-12.774L2524.273,1499.318z"/><path fill="#e75941" d="M2521.451,1353.301c0,0-2.178,58.804-12.523,92.017c-10.345,33.213-21.404,75.585-22.493,85.93
						c-1.089,10.345-25.591,28.313-32.124-14.701s1.708-53.045,0.714-67.962c-2.178-32.669,14.701-109.44,14.701-109.44
						L2521.451,1353.301z"/><path fill="#e75941" d="M2471.328,1499.721c0,0,32.879-3.219,39.092-4.537c6.213-1.318,16.944,13.932,6.778,24.663
						c0,0-7.719,3.201-11.861,7.154c0,0-14.497,16.003-23.157,18.451s-22.028-5.648-23.722-13.556
						C2456.762,1523.99,2471.328,1499.721,2471.328,1499.721z"/><path fill="#997f37" d="M2530.376,1497.255c0,0-0.565,2.071-5.46,1.883c-4.895-0.188-3.577-3.765-7.719-4.519
						c-4.142-0.753-5.836,0.565-7.343-2.636c-1.506-3.201,10.106-18.676,10.106-18.676L2530.376,1497.255z"/><path fill="#be5ecf" d="M2483.311,1173.545c0,0,50.68,8.838,57.872,22.375c14.765,27.793-13.043,81.163-20.276,106.745
						c-4.105,14.519,3.055,63.52,0.812,67.651c-5.653,10.413-60.478,3.254-72.653-8.921c-5.394-5.394-10.54-12.809-11.413-18.207
						c-1.265-7.821,11.712-42.35,9.748-51.958c-10.223-50.026-11.533-88.995-1.304-102.541
						C2454.16,1178.014,2466.992,1174.744,2483.311,1173.545z"/><path fill="#e8b797" d="M2498.746,1148.627l-3.43,26.902c0,0,4.9,1.361,3.811,5.989
						c-1.089,4.628-10.07,26.15-31.852,29.674c-20.198,3.267-5.509-31.896-7.734-51.481L2498.746,1148.627z"/><path fill="#ffc39b" d="M2446.947,1123.771c3.997-15.495,29.487-35.461,49.658-25.413
						c34.914,17.392,19.812,48.644,14.804,50.142c0,0,2.889,10.269-15.344,18.079c0,0-4.697,1.479-5.242-2.219
						c0,0-0.675,4.087-3.331,5.374c0,0-28.132,16.601-43.092,5.276c-8.632-6.534-2.167-28.21,2.037-42.559
						C2447.517,1128.769,2446.292,1126.306,2446.947,1123.771z"/><path fill="#ffc39b" d="M2508.588,1245.811c0.084-0.341,4.888-7.721,5.561-13.75c1.2-10.75-2.45-12.102-8.892-12.784
						c-0.823-3.643-7.008-13.627-11.25-3.949c0,0-2.636-3.999-5.09,1.552c0,0-3.352-1.46-4.488,3.149c0,0-3.258,1.099-3.392,5.683
						c-0.134,4.584,2.414,16.215,9.159,22.356C2494.559,1252.042,2508.588,1245.811,2508.588,1245.811z"/><path fill="#cfa385" d="M2539.869,1193.51c8.316,4.786,17.913,25.162,22.091,49.743
						c4.588,26.996,14.059,47.997,12.322,58.576c-4.128,25.132-17.812,13.896-17.812,13.896s-43.93-90.878-42.389-106.759
						C2515.519,1194.134,2524.634,1184.741,2539.869,1193.51z"/><path fill="#ab55bd" d="M2539.975,1191.692c8.792,5.06,18.938,26.602,23.355,52.589
						c-2.981,12.785-22.507,25.366-36.2,9.163c-8.38-20.261-15.055-38.865-14.419-45.412
						C2514.232,1192.351,2523.868,1182.421,2539.975,1191.692z"/><path fill="#ffc39b" d="M2508.22,1245.153c3.748,2.222,18.843,22.255,26.157,27.66
						c7.172,5.299,31.077,19.756,32.423,37.051c0.622,12.519-13.595,14.11-18.607,12.613c-5.012-1.498-23.879-11.847-33.54-30.037
						c-10.203-19.211-23.399-40.31-23.228-43.354C2491.815,1242.162,2504.472,1242.931,2508.22,1245.153z"/><path fill="#4f2e1b" d="M2447.881,1136.282c-6.419-4.661-2.101-8.487-0.806-12.369
							c4.278-12.823,22.741-40.574,48.74-27.38c10.693,5.427,39.36,29.542,16.034,51.937c-5.268-0.593-12.99,6.084-17.238,10.766
							c-1.045,0.051-1.752,0.067-2.638,0.018c0.764-1.975,9.604-10.506,9.386-15.092c-0.51-10.768-7.183-4.135-14.185-6.502
							C2465.789,1130.432,2458.779,1144.194,2447.881,1136.282z"/><path fill="#4f2e1b" d="M2438.621,1119.888c-1.91,5.268,0.632,12.441,8.188,15.64
							c7.556,3.199,16.947-3.132,20.911-12.496s9.301-30.932,2.438-26.435C2459.367,1103.665,2444.731,1103.042,2438.621,1119.888z"/></g><g><path fill="#85624d" d="M875.837,1321.822c0,0-18.915,64.385-25.776,69.511c-5.858,4.377-22.832,9.224-28.243,4.305
							c-8.24-7.491,37.988-86.348,37.988-86.348C870.229,1306.776,875.049,1312.021,875.837,1321.822z"/><path fill="#8c6851" d="M893.962,1436.635c7.779,10.379,2.886,18.479-8.06,25.495
							c-10.951,7.018-16.099,0.969-28.364-15.105c-15.178-19.892-40.056-46.017-36.673-56.12c1.953-5.83,16.892-5.923,29.002,0.648
							C860.652,1397.405,887.333,1427.789,893.962,1436.635z"/><path fill="#fab700" d="M874.831,1409.401c-4.386-7.561-33.341,11.468-30.372,23.965c0,0,17.216,26.39,24.379,30.479
							c9.58,5.468,31.284,6.63,32.398-12.171C902.132,1436.537,874.831,1409.401,874.831,1409.401z"/><ellipse cx="940.211" cy="1867.728" fill="#e6e6e6" rx="61.807" ry="103.648" transform="rotate(-72.626 940.205 1867.684)"/><path fill="#fff" d="M862.043,1850.688c-1.495,6.312,6.547,12.814,15.5,10.838
							c16.135-3.56,13.809-7.938,23.073-12.375c22.879-10.956,33.581-21.867,34.144-27.645c0.496-5.086-9.67-3.958-14.709-3.112
							C911.379,1819.851,865.669,1835.383,862.043,1850.688z"/><path fill="#bfba1d" d="M862.35,1845.621c-1.495,6.312,6.573,12.925,15.5,10.838c13.604-3.18,13.789-7.1,23.067-11.507
							c23.094-10.969,32.187-19.825,32.751-25.603c0.496-5.086-5.889-8.728-10.928-7.882c-7.147,1.2-43.148,11.757-56.803,24.835
							C863.022,1839.094,862.988,1842.929,862.35,1845.621z"/><path fill="#376abf" d="M907.621,1825.001c-3.862,20.278-43.467,27.772-43.08,12.553l17.946-94.153l-3.685-128.449
							l60.69,8.095l-7.396,120.634L907.621,1825.001z"/><path fill="#7d5d49" d="M912.535,1464.983c-2.344-2.159-0.048-17.257-0.966-20.694
							c-4.319-16.171-17.748-23.773-22.256-42.975c-7.842-33.405,46.354-54.567,55.475-51.658
							c14.388,4.589,14.231,25.055,16.938,41.201c2.701,16.107,3.956,42.803-6.476,50.714c-6.484,4.917-11.588,0.071-13.37,2.896
							c-1.434,2.275,2.587,15.73,2.263,19.921L912.535,1464.983z"/><path fill="#664c3b" d="M948.079,1443.885c-2.091,1.376-4.026,7.786-3.655,12.295c0.28,3.394,0.514,6.66,0.291,8.48
							l-39.758-1.411c-2.037-1.628-2.209-13.393,3.011-14.461c-0.298-1.534-4.628-25.141-9.135-44.343
							c11.89,10.979,22.142,3.432,27.469,16.965C932.116,1436.179,943.479,1442.315,948.079,1443.885z"/><path fill="#fff" d="M1010.633,1885.511c-20.044,10.08-58.213,7.384-63.967,6.297
							c-2.711-0.701-4.172-5.25-1.035-10.095c4.602-7.107-1.269-20.766,0.687-22.19c0.862-0.627,1.776-0.26,3.407-0.272
							c1.147-0.008,2.954,2.587,5.724,2.404c21.158-1.4,17.266-6.363,24.355-3.715c2.611,1.343,8.108,9.31,11.044,11.308
							c4.727,1.496,6.642,1.272,14.631,0.576c5.715-0.498,15.052-9.016,17.692-6.289
							C1028.73,1869.277,1022.924,1879.33,1010.633,1885.511z"/><path fill="#bfba1d" d="M1010.257,1882.052c-20.044,10.08-62.282,6.593-64.671,4.632
							c-2.493-2.046-3.609-29.109-0.088-31.671c0.862-0.627,1.776-0.26,3.407-0.272c1.147-0.008,2.954,2.587,5.724,2.404
							c8.998-0.595,21.474-4.986,25.787-3.374c2.611,1.343,9.347,8.962,12.284,10.96c4.727,1.496,3.971,1.279,11.959,0.583
							c5.715-0.498,14.4-5.554,17.261-3.061C1027.228,1866.877,1022.548,1875.871,1010.257,1882.052z"/><path fill="#3e78d6" d="M979.284,1856.39c-4.622,12.056-31.315,28.212-37.539,17.91l-8.826-117.258l-43.56-114.441
							l66.447-17.347c0,0,26.675,101.548,28.778,117.111C986.398,1755.788,979.284,1856.39,979.284,1856.39z"/><path fill="#9c9818" d="M992.943,1863.558c2.075,0.932-1.583,4.737-3.748,4.763c-4.553,0.055-7.2-1.231-11.603-6.206
							c-2.128-2.404-2.76-7.692-2.516-9.573c0.364-2.81,1.129-7.743,4.772-7.643c1.959,0.054,2.777,5.422,4.979,10.095
							C987.427,1860.511,989.323,1861.931,992.943,1863.558z"/><path fill="#dea300" d="M877.287,1455.732c-14.049,21.259-1.773,48.926,0.159,103.966
							c0.856,24.392-4.526,47.583-4.053,58.379c0,24.595,48.59,52.024,85.656,29.13c6.585-5.401-5.39-34.566-6.285-43.09
							c-2.51-23.914,9.482-55.437,12.146-73.993c2.848-19.842,5.192-40.698-8.405-55.427c-3.414-3.698-5.361-7.436-12.414-11.508
							c-9.441,4.316-47.664-14.696-38.706-22.012C905.78,1440.853,885.526,1443.264,877.287,1455.732z"/><path fill="#3b3b3b" d="M878.551,1480.102l-9.508-2.158c3.731-16.097,11.914-25.818,22.705-33.366
							c1.629-1.466,5.689-3.195,8.633-2.462C894.071,1444.691,879.173,1470.647,878.551,1480.102z"/><path fill="#3b3b3b" d="M871.708,1563.419c0,0-0.12,16.122,0.467,40.216c0.406,12.024,0.789,26.122,2.611,40.894
							c0.497,3.674,1.045,7.401,1.895,11.003c0.426,1.792,0.931,3.564,1.578,5.135c0.526,1.521,1.743,3.041,1.793,2.845
							c-0.012-0.052-0.191-0.037-0.174-0.067l0.736-0.113c0.228-0.042,0.146-0.108,0.234-0.135c0.196-0.068,0.845-0.497,1.272-0.878
							c0.951-0.92,1.874-2.3,2.676-3.83c1.578-3.134,2.697-6.812,3.604-10.543c1.745-7.518,2.964-15.352,3.784-23.11
							c0.827-7.763,1.575-15.453,2.034-22.927c1.037-14.939,1.725-28.958,2.278-40.988c0.618-12.053,1.134-22.097,1.494-29.128
							c0.429-7.053,0.674-11.083,0.674-11.083s0.138,1.001,0.398,2.879c0.267,1.878,0.619,4.636,0.982,8.152
							c0.777,7.03,1.588,17.09,2.163,29.195c0.479,12.104,0.707,26.252,0.026,41.436c-0.409,7.586-0.851,15.446-1.849,23.417
							c-1.043,7.962-2.179,16.092-4.521,24.147c-1.191,4.025-2.571,8.054-4.785,11.997c-1.142,1.96-2.517,3.936-4.613,5.612
							c-1.152,0.82-2.184,1.531-3.915,1.994c-0.391,0.1-0.936,0.238-1.199,0.26l-0.743,0.056c-0.967,0.119-2.15-0.064-3.078-0.476
							c-1.899-0.876-2.791-2.173-3.487-3.244c-0.682-1.11-1.161-2.184-1.537-3.227c-0.768-2.092-1.248-4.111-1.651-6.109
							c-0.784-3.99-1.229-7.879-1.53-11.703c-1.114-15.267-0.805-29.381-0.366-41.48c0.43-12.092,1.184-22.14,1.74-29.167
							C871.342,1567.431,871.708,1563.419,871.708,1563.419z"/><path fill="#ccc" d="M883.864,1629.269c21.244-10.006,24.38-79.224,20.353-104.154
								c-2.204-13.641-17.254-47.641-26.581-45.614c-2.167,0.471-4.52,1.97-6.972,4.264c0.389,18.094,5.581,41.724,6.782,75.932
								c0.856,24.392-4.526,47.583-4.053,58.379c0,4.353,1.547,8.791,4.258,13.026
								C879.694,1630.83,881.766,1630.257,883.864,1629.269z"/><path fill="#b84132" d="M881.087,1620.449c-24.861,11.71-46.359-31.935-48.948-54.27
								c-2.155-18.595,26.162-86.149,42.957-89.799c8.972-1.95,23.45,30.756,25.57,43.878
								C904.54,1544.24,901.523,1610.824,881.087,1620.449z"/><path fill="#ff5a45" d="M876.039,1609.724c-17.418,10.425-41.416-24.519-43.383-46.707
								c-1.638-18.473,24.503-82.802,40.041-86.749c8.301-2.109,17.199,25.342,20.336,34.278
								C900.607,1532.119,894.743,1598.53,876.039,1609.724z"/><path fill="#b84132" d="M861.545,1592.831c-7.643,4.574-18.173-10.759-19.037-20.495
								c-0.719-8.106,10.752-36.334,17.57-38.066c3.642-0.925,7.547,11.12,8.923,15.041
								C872.325,1558.778,869.752,1587.919,861.545,1592.831z"/><path fill="#cfcfcf" d="M869.992,1569.425c-1.559,9.123-4.908,18.511-9.102,21.021
								c-5.841,3.496-12.708-4.581-17.138-12.753c3.151,9.041,11.456,18.931,17.793,15.138
								C866.151,1590.074,868.982,1579.685,869.992,1569.425z"/><path fill="#8f3226" d="M860.628,1586.535c-6.203,3.712-14.748-8.731-15.449-16.632
								c-0.226-2.544,1.028-7.53,2.971-12.77c3.081-8.31,20.013,10.84,17.776,19.543
								C864.724,1581.349,862.955,1585.142,860.628,1586.535z"/><path fill="#61221a" d="M857.47,1568.876l4.914-17.879c0.092-0.335,0.046-0.688-0.123-0.945l-1.019-1.546
								c-0.418-0.634-1.302-0.373-1.532,0.453l-4.926,17.693c-0.075,0.27-0.029,0.555,0.122,0.748l1.458,1.859
								C856.693,1569.676,857.308,1569.463,857.47,1568.876z"/><path fill="#ff5e00" d="M940.791,1466.115c1.663,0,3.117-0.242,4.283-0.775c1.188-0.542,1.711-1.946,1.168-3.134
							c-0.543-1.188-1.946-1.712-3.134-1.168c-3.694,1.684-15.646-2.102-26.102-8.274c-7.05-4.161-9.748-7.275-10.113-8.371
							c-0.073-1.206,0.225-2.572,0.354-3.552c-0.782-0.711-2.897-0.725-3.413,0.213c-0.782,1.28-1.209,2.915-0.711,5.048
							C904.952,1453.938,929.109,1466.115,940.791,1466.115z"/><path fill="#2e2e2e" d="M886.536,1377.022c11.024-41.767,68.384-36.298,73.365-25.1
							c7.853,17.656,1.792,11.094,0.272,18.893c0.222,4.113-2.545,7.254-4,8.201c-4.621,3.007-3.786-6.746-10.378-4.148
							c-3.546,1.397,4.1,17.697,3.44,26.911l-5.83,4.714c-0.511-2.891-6.197-8.022-7.644-4.06c-0.964,2.64,1.204,10.697-0.829,16.42
							c-4.244,11.946-22.009,11.925-25.173,17.686c-3.987-6.203-7.392-7.926-10.485-12.553
							C892.708,1414.162,882.728,1391.452,886.536,1377.022z"/><path fill="#008c9e" d="M1005.839,1486.934c15.775,6.711,8.86,41.138-6.662,38.11c0,0-28.052-6.306-35.053-10.667
						c-9.362-5.832-17.917-13.584-5.651-27.357C971.367,1479.041,1005.839,1486.934,1005.839,1486.934z"/><path fill="#8c6851" d="M995.103,1521.881c-12.623-2.985-12.545-38.833,7.171-34.35
						c14.813,3.368,22.22,2.976,27.996,3.746c3.977,0.53,20.102,31.627,14.646,33.825
						C1032.696,1530.026,1005.861,1524.424,995.103,1521.881z"/><path fill="#fab700" d="M1005.839,1486.934c-11.284,0.321-17.768,34.849-6.662,38.11c0,0-26.326-4.553-34.154,1.535
						c-9.362-5.832-24.941-32.89-8.926-42.8C968.991,1475.8,1005.839,1486.934,1005.839,1486.934z"/><path fill="#85624d" d="M1068.337,1421.989c0,0-3.937,86.676-22.608,102.659
								c-4.678,4.005-15.225-10.698-16.999-33.757c-0.77-10.011,21.208-77.593,21.208-77.593
								C1059.551,1408.548,1065.408,1412.603,1068.337,1421.989z"/><path fill="#85624d" d="M1030.216,1388.959c-1.227,2.78-1.049,12.154,2.605,12.972
								c7.75,1.734,8.295,10.506,13.467,12.333c4.9,1.731-0.171,11.37-0.171,11.37l22.122-3.488c0,0,0.439-7.165,0.744-15.577
								c0.236-6.498-8.688-20.146-12.172-21.722C1050.384,1381.941,1031.377,1386.329,1030.216,1388.959z"/><path fill="#85624d" d="M1025.481,1399.762c-0.508-0.391-0.631-1.128-0.232-1.629
								c1.231-1.547,4.128-2.514,6.778-0.077c2.338,2.149,6.338,5.935,10.647,4.531l4.598,11.165c0,0-7.972-2.503-9.695-3.175
								C1034.343,1409.315,1027.41,1401.247,1025.481,1399.762z"/><g><path fill="#85624d" d="M908.305,1302.567c-0.419,3.01-5.504,10.887-9.042,9.659
						c-7.502-2.604-12.582,4.569-17.941,3.401c-3.044-0.663-4.675,3.352-5.573,6.397c-0.599,2.033-0.927,3.443-0.927,3.443
						l-16.289-14.126c0,0,3.373-6.886,7.54-14.199c3.219-5.65,17.989-12.56,21.781-12.066
						C894.848,1285.986,908.701,1299.718,908.305,1302.567z"/><path fill="#85624d" d="M906.647,1314.244c0.637-0.065,1.13-0.627,1.055-1.263c-0.232-1.963-2.187-4.31-5.723-3.633
						c-3.119,0.597-8.512,1.711-11.438-1.749l-9.785,7.074c0,0,8.096,2.066,9.915,2.402
						C894.084,1317.705,904.225,1314.492,906.647,1314.244z"/></g></g><g><path fill="#f0c7ad" d="M2160.559,405.168c0.583-0.304,0.84-1.028,0.527-1.607c-0.968-1.785-3.725-3.283-6.843-1.292
						c-2.75,1.755-7.474,4.868-11.583,2.677l-6.651,10.471c0,0,8.513-1.104,10.376-1.475
						C2149.883,413.245,2158.341,406.325,2160.559,405.168z"/><path fill="#f0c7ad" d="M2155.69,396.445c0.416,1.929-3.198,9.902-7.037,10.15c-8.141,0.525-7.116,10.063-12.656,11.093
						c-5.248,0.976,1.854,10.384,1.854,10.384l-30.258-9.635c0,0,12.732-8.195,11.122-16.391
						c-1.288-6.555,8.49-16.655,13.171-18.147C2135.636,382.704,2153.839,387.85,2155.69,396.445z"/><path fill="#fff" d="M2130.18,437.336l11.135-17.074c-2.779-6.783-16.749-14.042-24.682-13.345l-6.36,11.451
						L2130.18,437.336z"/><path fill="#785945" d="M2158.685,549.731c0.145,18.75-9.428,40.495-16.914,35.865
						c-18.492-22.143-78.011-66.109-77.804-77.696c0.399-22.276,47.569-94.849,47.569-94.849
						c6.471-1.112,25.391,8.791,27.612,14.182l-30.678,70.129l38.843,32.497C2153.269,534.57,2158.597,538.479,2158.685,549.731z"/><path fill="#8f6a51" d="M2122.724,735.926c-12.297-13.365-35.564-22.672-50.678-11.867
							c14.029-49.17,37.14-117.542,66.569-157.508L2122.724,735.926z"/><path fill="#2e2e2e" d="M2197.566,910.688c-9.734-4.683,0.887-29,9.743-51.24
									c7.256-18.221,8.542-32.477,21.242-26.905c12.7,5.572,14.537,14.634,7.009,33.278c-4.041,10.007-5.024,21.26-11.722,32.533
									C2217.593,908.865,2204.517,914.032,2197.566,910.688z"/><path fill="#292929" d="M2193.41,912.116c-9.733-4.683,0.887-29,9.743-51.24
									c7.256-18.221,8.542-32.477,21.242-26.905c12.7,5.572,14.537,14.634,7.009,33.278c-4.041,10.007-5.023,21.26-11.721,32.533
									C2213.438,910.293,2200.361,915.46,2193.41,912.116z"/><path fill="#785945" d="M2221.629,870.634c6.125,0.497,22.078-30.028-1.045-36.493l-78.597-2.225
									c2.335-34.897,13.153-64.917,28.788-102.202l-58.971-24.372c-17.212,40.386-32.062,140.419-16.28,163.133
									C2106.953,884.925,2221.629,870.634,2221.629,870.634z"/><path fill="#2e2e2e" d="M2302.924,804.894l-30.731-1.376c-3.854-12.484-3.135-21.506,5.992-24.048
									c12.343-3.438,22.719,0.095,27.699,21.26c-0.98,0.748-3.04,0.539-3.855,1.263
									C2302.273,802.945,2302.577,803.912,2302.924,804.894z"/><path fill="#292929" d="M2299.002,863.052c-10.615,1.997-16.474-23.883-22.523-47.045
									c-4.956-18.976-12.369-31.221,1.162-34.26c13.531-3.039,20.382,3.171,25.369,22.648c2.676,10.455,8.555,20.101,9.842,33.15
									C2314.051,849.713,2306.582,861.625,2299.002,863.052z"/><path fill="#292929" d="M2296.501,866.665c-10.615,1.997-16.474-23.883-22.523-47.045
									c-4.956-18.976-12.369-31.221,1.162-34.26c13.531-3.039,20.383,3.171,25.369,22.648c2.677,10.455,8.555,20.101,9.842,33.15
									C2311.551,853.327,2304.082,865.239,2296.501,866.665z"/><path fill="#8f6a51" d="M2294.643,816.529c5.228-3.23-0.016-37.271-22.471-28.773l-65.48,37.461
									c-11.768-32.936-12.091-57.281-12.612-97.708l-63.948-0.258c0.311,43.899,26.712,142.972,50.24,157.514
									C2197.409,895.296,2294.643,816.529,2294.643,816.529z"/><path fill="#d9b49c" d="M2152.771,540.669l24.523,15.521c0,0,22.001-13.376,20.614-20.705
								c3.726-3.544,15.336-12.257,15.336-12.257l-27.865-29.829L2152.771,540.669z"/><path fill="#d4d4d4" d="M2108.936,708.053c-3.035,13.331,57.343,42.128,78.021,17.368l12.09-167.864l-51.201-13.836
								C2129.674,604.889,2112.953,656.452,2108.936,708.053z"/><path fill="#bfa593" d="M2217.041,566.782c11.285,8.613,19.805,13.925,17.615,28.714
								c-2.352,15.882-19.807,44.538-24.038,74.734c-6.324,45.129,0.582,92.092,0.582,92.092l-23.673,15.504
								c0,0-25.703-110.932-21.419-138.012c3.256-20.583,32.99-95.953,36.024-88.02
								C2204.22,557.256,2213.075,563.756,2217.041,566.782z"/><path fill="#c2c2c2" d="M2129.599,727.251c0.511,0.076,0.998-0.261,1.102-0.773
									c1.125-52.585,16.314-110.249,36.892-177.407c0.108-0.529-0.234-1.046-0.763-1.154c-0.521-0.094-1.047,0.235-1.154,0.764
									c-21.457,68.106-37.113,126.481-36.892,177.407c-0.108,0.53,0.234,1.046,0.763,1.154L2129.599,727.251z"/><path fill="#f7f7f7" d="M2197.987,535.46c0.054,11.253-25.784,15.191-31.321,12.943l8.966,28.851
								c0,0,23.247-21.415,24.738-30.738C2201.066,542.167,2197.987,535.46,2197.987,535.46z"/><path fill="#bfa593" d="M2130.559,543.672c7.346-10.389,19.962-14.401,28.586-12.22
									c-2.372,2.066-15.616,22.937-18.845,36.302c-4.069,16.843-20.865,31.886-25.724,43.34
									c-11.822,27.868-42.53,112.964-42.53,112.964C2070.109,723.301,2108.222,575.262,2130.559,543.672z"/><path fill="#f7f7f7" d="M2159.055,531.683c0,0-0.363,2.44-0.54,4.009c-0.781,6.892,8.156,12.67,8.156,12.67
								l-18.134,14.904c0,0-0.329-14.909,2.538-22.454C2151.897,538.648,2159.055,531.683,2159.055,531.683z"/><path fill="#404040" d="M2199.083,538.154c1.19,1.289,2.27,16.532,5.2,20.771c4.36,6.307-8.829,25.172-8.829,25.172
								l-10.631,3.635l-0.259,17.868l-18.504,33.344c0,0,5.703-41.481,8.47-51.326
								C2178.66,572.928,2198.864,551.362,2199.083,538.154z"/><path fill="#f0c7ad" d="M2226.452,518.451c-10.6,7.992-22.55,11.102-35.9,10.866
									c-11.738-0.208-25.101-1.91-30.708-8.233c-12.538-14.14-2.525-14.389,0.781-22.318c4.183-10.03,11.702-21.42,22.827-29.808
									c8.263-6.231,19.048-12.55,28.198-12.352c12.907,0.279,26.841,10.649,31.799,19.983
									C2251.994,492.673,2246.372,503.431,2226.452,518.451z"/><path fill="#f0c7ad" d="M2249.19,438.676c-0.792,3.23,1.189,13.297,5.283,13.48
									c8.681,0.389,10.943,9.738,16.865,10.72c5.61,0.93,1.985,12.284,1.985,12.284l23.641-8.291c0,0-1.364-7.492-2.64-16.615
									c-0.986-7.047-13.206-20.051-17.26-21.084C2269.583,427.266,2249.94,435.62,2249.19,438.676z"/><path fill="#f0c7ad" d="M2246.149,451.22c-0.622-0.324-0.895-1.095-0.561-1.711c1.031-1.902,3.968-3.497,7.289-1.377
									c2.929,1.87,7.961,5.185,12.338,2.852l7.085,11.153c0,0-9.068-1.176-11.052-1.571
									C2257.521,459.823,2248.511,452.452,2246.149,451.22z"/><path fill="#fff" d="M2274.754,484.809l-6.63-20.676c4.765-6.186,21.161-9.707,29.115-6.756l3.308,13.555
									L2274.754,484.809z"/><path fill="#785945" d="M2213.813,592.24c-5.431,19.22-1.721,44.255,7.273,41.608
									c25.234-17.538,98.76-45.938,101.811-57.9c5.865-22.996-22.149-110.835-22.149-110.835
									c-6.335-2.965-28.56,1.879-32.36,6.792l11.761,80.683l-49.056,22.442C2223.647,578.191,2217.072,580.706,2213.813,592.24z"/><path fill="#4f4841" d="M2216.081,447.185c-3.134-0.556-4.108,3.209-7.101,5.572c-3.25,2.566-7.571,3.96-10.21,7.01
								c3.716-0.417,10.701-3.051,11.143,1.03c0.334,3.083-0.006,3.4,2.497,7.215c5.152,5.757,12.217,4.649,16.928,14.038
								c4.168,8.305,0.998,21.589-12.301,23.512c-1.662,2.801-4.112,5.938-6.391,11.263c3.804-1.852,7.46-2.002,8.472-0.23
								c1.108,1.941-1.376,5.447-5.549,7.831c-2.825,1.614-5.962,1.739-7.868,1.411c-1.725,3.104-6.178,2.291-7.147,3.223
								c10.544,0.635,19.127-2.703,24.667-7.207c13.488-10.967,25.356-21.102,25.733-33.106
								C2249.399,474.499,2224.808,448.733,2216.081,447.185z"/><path fill="#d13415" d="M2229.642,659.565l13.363-3.276l-5.551-13.914c-26.318-9.378-84.692-29.102-68.756-81.212
								l-5.753-2.852C2140.155,614.511,2202.287,647.518,2229.642,659.565z"/><g><path fill="#ab2912" d="M2166.642,548.577l-6.241,4.932l3.499,10.341c0.207,0.767,1.148,1.049,1.743,0.524
									l4.908-4.335L2166.642,548.577z"/></g><g><path fill="#e6e6e6" d="M2108.872,987.586c-42.862,24.746-43.095,64.871-0.512,89.618
									c42.591,24.751,111.864,24.747,154.725,0.001c42.862-24.746,43.095-64.871,0.504-89.622
									C2221.006,962.836,2151.734,962.84,2108.872,987.586z"/></g><path fill="#404040" d="M2162.671,526.012c-1.02-0.689-23.153,22.988-23.153,22.988l-0.756,10.133l-13.344,13.591
							l-6.698,31.134c2.531-3.232,20.702-27.981,24.242-35.795C2144.802,564.004,2159.425,527.44,2162.671,526.012z"/></g></g></switch></svg>