<svg xmlns="http://www.w3.org/2000/svg" enable-background="new 0 0 4680 3120" viewBox="0 0 4680 3120"><path fill="#d3fee8" d="M3065.679 1577.875a795.96 795.96 0 0 1-17.64 94.671c-59.474 238.824-231.145 462.475-502.152 487.484-552.718 51.01-477.844 377.764-827.43 444.505-131.096 25.03-271.864-37.922-398.129-147.735a913.213 913.213 0 0 1-53.529-50.453 912.144 912.144 0 0 1-119.629-151.244c-169.751-268.685-191.747-614.153-43.434-909.416l90.418-180.021c75.679-150.666 191.086-277.737 333.701-367.66 237.689-149.871 594.283-328.922 734.772-162.175 145.97 173.24 190.776 249.641 317.63 324.835 13.398 7.937 27.704 15.854 43.145 23.874a1064.256 1064.256 0 0 0 24.813 12.52c38.51 18.858 83.647 38.541 138.073 60.465 3.014 1.218 6.059 2.436 9.135 3.664.888.361 1.796.712 2.694 1.073 1.053.423 2.106.846 3.169 1.27 2.828 1.115 5.667 2.25 8.546 3.385a5531.653 5531.653 0 0 0 45.684 17.795c170.321 65.441 237.175 275.601 210.163 493.163z" class="colorfeeed3 svgShape"/><path fill="#065a2f" d="M1495.441 1241.712s-98.338 139.577-72.96 206.193c25.378 66.616 134.408 45.468 153.382-15.861 18.973-61.329-80.422-190.332-80.422-190.332z" class="color0b065a svgShape"/><path fill="#fff" stroke="#000" stroke-linecap="round" stroke-miterlimit="10" stroke-width="4" d="M1586.852 957.487s10.871 2.306 29.649 45.132c0 0 6.259 14.166 16.142 26.684 6.618 8.383 11.232 42.72-2.965 66.545-7.004 11.755-21.877 17.183-36.896 23.06l24.048 68.192s14.861 18.448-63.726 5.271c0 0 9.041-56.662-26.55-89.934-30.169-28.203-51.049-45.461-7.894-94.217s68.192-50.733 68.192-50.733z" class="colorffffff svgShape colorStroke000000 svgStroke"/><path fill="#fff" stroke="#000" stroke-linecap="round" stroke-miterlimit="10" stroke-width="4" d="M1629.279 1159.238s54.458-19.023 78.251-26.571c35.347-11.214 47.493-26.815 47.493-26.815s-46.073-89.221-62.872-138.95c0 0-14.199 8.207-35.326-1.219-21.127-9.426-28.359 1.788-52.411-21.94 0 0-7.638-18.12 11.214-12.92 18.852 5.201 31.69 1.138 38.516-1.463 6.826-2.6 43.079 3.104 58.68 17.081 15.601 13.976 26.067 30.618 42.199 63.121 16.132 32.503 65.861 93.609 59.361 109.21s-139.438 104.01-157.964 98.809c-18.527-5.201-27.141-58.343-27.141-58.343z" class="colorffffff svgShape colorStroke000000 svgStroke"/><path fill="#23fc8d" d="M1670.806 1163.373s22.484 15.147 53.726 5.444c31.241-9.704 45.442-15.857 45.442-15.857s-46.389 33.845-78.34 49.465-20.828-39.052-20.828-39.052z" class="colorfcaa23 svgShape"/><path fill="#fff" stroke="#000" stroke-linecap="round" stroke-miterlimit="10" stroke-width="4" d="M1547.528 1972.511s-17.132 74.494-17.885 77.125c-.753 2.631 38.257 4.954 38.257 4.954l21.959-74.4-42.331-7.679z" class="colorffffff svgShape colorStroke000000 svgStroke"/><path fill="#23fc8d" d="m1547.804 1979.691-5.917 25.561s19.627 12.274 39.033-.963l2.58-8.75 3.355-11.233-39.051-4.615z" class="colorfcaa23 svgShape"/><path fill="#44e392" stroke="#000" stroke-linecap="round" stroke-miterlimit="10" stroke-width="4" d="M1531.899 2043.517s24.9 10.596 39.87 1.829c0 0 6.518 6.234 29.879 10.295s51.236-.711 49.637 15.581c-1.599 16.293-8.669 22.491-70.013 25.29-61.344 2.8-72.625-8.298-72.625-8.298s12.686-51.752 23.252-44.697z" class="color4052f2 svgShape colorStroke000000 svgStroke"/><path fill="#fff" stroke="#000" stroke-linecap="round" stroke-miterlimit="10" stroke-width="4" d="M1951.079 1776.275s29.012 57.214 30.229 59.832c1.217 2.618 33.927-22.476 33.927-22.476l-33.882-74.492-30.274 37.136z" class="colorffffff svgShape colorStroke000000 svgStroke"/><path fill="#23fc8d" d="m1980.733 1743.112 11.124 24.378s-10.65 22.484-28.401 28.283l-9.822-19.526 27.099-33.135z" class="colorfcaa23 svgShape"/><path fill="#44e392" stroke="#000" stroke-linecap="round" stroke-miterlimit="10" stroke-width="4" d="M1978.88 1829.669s27.173-8.75 33.054-26.082c0 0 9.503.468 30.936-12.43 21.432-12.898 40.363-35.958 50.341-21.863 9.979 14.096 8.623 23.921-38.357 68.527-46.98 44.605-63.641 43.548-63.641 43.548s-25.632-50.027-12.333-51.7zM1584.791 1543.864s13.482 147.507-7.931 195.883c-21.412 48.376-45.997 232.363-45.997 232.363s34.101 25.378 72.96 12.689c0 0 30.929-126.888 48.376-165.747 17.447-38.859 57.893-191.125 57.099-240.294s-124.507-34.894-124.507-34.894z" class="color4052f2 svgShape colorStroke000000 svgStroke"/><path fill="#02ab55" d="M1588.394 1565.27s3.314 45.679 2.604 80.47c0 0 70.293 28.875 102.008 25.561 0 0 14.861-64.139 16.306-89.7 1.444-25.561-120.918-16.331-120.918-16.331z" class="color0502ab svgShape"/><path fill="#fff" stroke="#000" stroke-linecap="round" stroke-miterlimit="10" stroke-width="4" d="M2835.076 1437.025s-21.473 69.395-22.546 72.483 45.303 8.445 45.303 8.445l31.123-87.286-53.88 6.358z" class="colorffffff svgShape colorStroke000000 svgStroke"/><path fill="#23fc8d" d="m2841.511 1420.305 50.317-6.133-15.25 46.27s-26.798 13.573-46.998 1.595l11.931-41.732z" class="colorfcaa23 svgShape"/><path fill="#065a2f" stroke="#000" stroke-linecap="round" stroke-miterlimit="10" stroke-width="4" d="M2815.627 1502.358s28.997 14.289 47.434 4.824c0 0 7.361 7.867 34.956 14.26 27.595 6.392 61.16 2.548 58.172 21.875-2.988 19.327-11.831 26.251-85.186 25.524-73.355-.727-86.075-14.712-86.075-14.712s18.563-60.886 30.699-51.771z" class="color0b065a svgShape colorStroke000000 svgStroke"/><path fill="#fff" stroke="#000" stroke-linecap="round" stroke-miterlimit="10" stroke-width="4" d="M2301.433 1686.145s-27.743 72.975-29.104 76.214c-1.36 3.239 48.019 12.134 48.019 12.134l39.308-91.51-58.223 3.162z" class="colorffffff svgShape colorStroke000000 svgStroke"/><path fill="#23fc8d" d="m2302.897 1688.049-13.836 36.061s9.805 19.283 39.765 25.493l27.781-64.605-53.71 3.051z" class="colorfcaa23 svgShape"/><path fill="#065a2f" stroke="#000" stroke-linecap="round" stroke-miterlimit="10" stroke-width="4" d="M2276.136 1754.901s30.132 17.295 50.55 8.394c0 0 7.362 8.938 36.526 17.668 29.164 8.73 65.427 6.884 60.91 27.412-4.516 20.527-14.472 27.354-93.102 21.594-78.63-5.76-91.325-21.623-91.325-21.623s24.043-64.045 36.441-53.445z" class="color0b065a svgShape colorStroke000000 svgStroke"/><path fill="#065a2f" d="M2698.295 835.271s1.58-46.399 7.891-74.484c6.311-28.086 27.139-20.828 27.139-20.828s16.094-31.557 64.376-16.41c48.282 15.147 87.728 79.523 76.367 117.707-11.36 38.184-48.597 55.54-48.597 55.54l-127.176-61.525zM1636.075 1155.402l75.524 161.049s3.727-164.882-67.329-165.939c0-.001-7.815.32-8.195 4.89z" class="color0b065a svgShape"/><path fill="#fff" stroke="#000" stroke-linecap="round" stroke-miterlimit="10" stroke-width="4" d="M2715.969 913.206c.237 1.183-6.154 31.715-44.259 49.702-38.105 17.987 75.736 52.383 99.877 33.528 24.141-18.855 7.573-32.818 7.573-32.818s-20.591 2.84-7.573-39.052c13.017-41.891-55.618-11.36-55.618-11.36z" class="colorffffff svgShape colorStroke000000 svgStroke"/><path fill="#23fc8d" d="M2765.434 943.856s-36.527 3.905-48.519.75c-11.991-3.156-26.981 27.77 5.68 47.335s-52.542 8.362-49.386-14.043c3.156-22.405 16.252-23.51 16.252-23.51s18.461-13.727 24.772-28.717c6.312-14.99 52.799 8.836 52.799 8.836l-1.598 9.349z" class="colorfcaa23 svgShape"/><path fill="#fff" stroke="#000" stroke-linecap="round" stroke-miterlimit="10" stroke-width="4" d="M2851.452 974.014s100.58-30.426 111.973-35.325c59.11-25.417 120.088-68.372 123.845-75.335 7.416-13.747 21.524-30.899 31.064-31.319 9.541-.419 27.082 6.175 27.082 6.175s29.537-22.118 33.647-28.42c4.11-6.302 3.372 14.91-4.173 22.738-7.545 7.828-29.773 26.45-29.754 29.1.018 2.651 6.908 2.25 5.727 10.387-1.181 8.138-.854 17.06-8.09 18.524-7.236 1.464-42.302 3.562-48.412 1.571 0 0-53.535 61.736-114.939 92.567-22.411 11.252-92.276 29.779-116.639 36.658-5.222 1.475-11.331-47.321-11.331-47.321z" class="colorffffff svgShape colorStroke000000 svgStroke"/><path fill="#23fc8d" d="M2875.962 985.945s7.889 9.625 30.294 8.047c22.406-1.578 48.755-2.209 48.755-2.209s-45.126 15.305-84.572 25.245c-39.446 9.941 5.523-31.083 5.523-31.083z" class="colorfcaa23 svgShape"/><path fill="#44e392" stroke="#000" stroke-linecap="round" stroke-miterlimit="10" stroke-width="4" d="M2467.458 1252.784s-39.383 116.571-68.259 212.091c-2.065 6.829-3.531 13.812-4.745 20.843-1.114 6.452-7.308 20.757-34.447 48.527-40.708 41.655-57.749 137.272-57.749 137.272s20.828 31.241 68.163 26.508c0 0 72.07-109.836 143.96-174.203 71.889-64.367 126.798-171.344 126.798-171.344s157.153-16.804 206.855-38.105c0 0-13.505 63.358-11.724 99.267 1.893 38.184 62.136 7.948 62.136 7.948s64.613-67.689 74.08-195.495c0 0-11.445-65.188-73.927-52.88-62.482 12.307-169.139 47.437-169.139 47.437l-262.002 32.134z" class="color4052f2 svgShape colorStroke000000 svgStroke"/><path fill="#02ab55" d="M2729.459 1220.649s-82.648 55.403-138.977 65.816c-56.329 10.414-145.477 41.34-145.477 41.34l26.508-79.997c-.001 0 240.007-58.657 257.946-27.159z" class="color0502ab svgShape"/><path fill="#44e392" stroke="#000" stroke-linecap="round" stroke-miterlimit="10" stroke-width="4" d="M2859.394 1263.961s-7.988 31.441-11.361 50.412" class="color4052f2 svgShape colorStroke000000 svgStroke"/><path fill="#23fc8d" d="m4113.302 510-147.683 412.755-113.601-68.154-661.746 817.944h-386.259l-256.082 295.377h-417.028l-280.535 319.937-439.508-.71-144.06 119.198a912.144 912.144 0 0 1-119.629-151.244l202.698-154.64h462l299.154-265.082h412.766l265.072-257.506h359.753l657.184-756.52-115.665-86.042L4113.302 510z" class="colorfcaa23 svgShape"/><path fill="#44e392" stroke="#000" stroke-linecap="round" stroke-miterlimit="10" stroke-width="4" d="M1531.657 1436.009s-22.205 89.615 37.273 127.681c59.479 38.066 287.084 58.686 287.084 58.686s46.79 99.131 88.028 155.438c0 0 45.204-.793 59.479-32.515 0 0-51.548-143.542-59.479-170.505-7.931-26.964-229.191-101.51-264.085-153.852-34.894-52.342-148.3 15.067-148.3 15.067z" class="color4052f2 svgShape colorStroke000000 svgStroke"/><path fill="#02ab55" d="M1695.363 1439.38s-31.232 21.753-69.1 25.066c-37.868 3.314-90.41 18.934-90.884 48.755 0 0-8.083-15.379-4.515-64.847 3.568-49.468 159.696-13.099 159.696-13.099l4.803 4.125z" class="color0502ab svgShape"/><path fill="#23fc8d" stroke="#000" stroke-linecap="round" stroke-miterlimit="10" stroke-width="4" d="M1610.168 1155.27s20.678 30.136-65.794 11.896c0 0-54.75 36.48-51.578 57.893 3.172 21.412 27.757 169.713 19.826 195.883-7.931 26.171 15.749 36.47 15.749 36.47s37.385-15.85 65.142-7.127c27.757 8.723 134.025-19.201 136.405-49.253 2.379-30.052-27.757-104.599-40.446-169.629-12.687-65.031-44.409-80.099-79.304-76.133z" class="colorfcaa23 svgShape colorStroke000000 svgStroke"/><path fill="#00ea73" d="M1563.012 1210.924s17.019 22.526 2.188 89.111c-14.832 66.585-37.868 62.196-39.762 100.996-1.893 38.801 7.81 52.054 7.81 52.054l-4.773 2.091s-19.92-8.56-14.398-32.385c0 0 3.446-10.807 1.893-31.872s-2.861-27.612-2.861-27.612 45.778-129.541 45.778-148.791l4.125-3.592z" class="colorea8b00 svgShape"/><path fill="#23fc8d" stroke="#000" stroke-linecap="round" stroke-miterlimit="10" stroke-width="3" d="M1550.053 1431.311s40.235-26.508 45.915-109.344M1578.27 1431.311s25.049-12.623 28.585-52.069" class="colorfcaa23 svgShape colorStroke000000 svgStroke"/><path fill="#065a2f" d="M1601.276 973.133s-14.754 21.58-37.155 37.063c-22.401 15.483-30.308 24.048-28.002 35.578 2.306 11.53-16.142-14.824-26.354 0s-.933 33.931 19.766 42.167c0 0 22.119 25.47 16.825 41.23 0 0-29.262-17.841-44.456-20.806-15.194-2.965-38.255-8.895-47.808-61.603-9.553-52.709 13.177-46.12 30.637-81.699 17.459-35.577 96.711-58.313 116.547 8.07z" class="color0b065a svgShape"/><path fill="none" stroke="#fff" stroke-linecap="round" stroke-miterlimit="10" stroke-width="4" d="M1529.531 1087.941s13.836.988 15.813-8.565" class="colorStrokeffffff svgStroke"/><path fill="#fff" stroke="#000" stroke-linecap="round" stroke-miterlimit="10" stroke-width="4" d="m2521.42 1058.762-68.163 193.838s50.412 26.271 113.605 20.591c63.193-5.68 162.597-52.542 162.597-52.542s6.39-60.352 24.851-85.913 44.022-84.494 78.103-93.724 47.572-11.36 47.572-11.36-8.105-34.544-5.975-67.915c0 0-37.573 13.716-63.49 7.444-26.498-6.413-30.945-8.654-30.945-8.654s-29.832 49.46-63.914 30.289-28.094-42.897-28.094-42.897-36.211 10.729-58.222 7.179c-22.011-3.55-34.791-.71-61.772 10.651-26.981 11.36-94.434 48.992-94.434 48.992s14.91 50.412 48.281 44.021z" class="colorffffff svgShape colorStroke000000 svgStroke"/><path fill="#23fc8d" d="M2799.594 968.115s-1.82 59.643-12.428 87.097c-10.608 27.454-14.553 46.231-14.553 46.231l25.877-39.762s18.303-52.7 17.987-55.698c-.315-2.998-6.154-34.87-6.154-34.87l-10.729-2.998zM2583.959 1052.209s-30.508 30.774-52.913 76.847c-22.406 46.073-63.114 87.412-63.114 87.412l44.811-127.49 71.216-36.769zM3143.773 862.613s-6.798 10.496-8.68 16.275c-1.882 5.779 13.378-7.266 13.378-7.266s1.051-3.75-2.269-5.867c-2.592-1.652-2.429-3.142-2.429-3.142z" class="colorfcaa23 svgShape"/><path fill="none" stroke="#000" stroke-linecap="round" stroke-miterlimit="10" stroke-width="4" d="m3145.417 838.211-7.4 6.479" class="colorStroke000000 svgStroke"/><path fill="#fff" stroke="#000" stroke-linecap="round" stroke-miterlimit="10" stroke-width="4" d="M3146.043 860.013s-7.444 9.45-10.95 18.875" class="colorffffff svgShape colorStroke000000 svgStroke"/><path fill="none" stroke="#000" stroke-linecap="round" stroke-miterlimit="10" stroke-width="4" d="M2660.744 1314.373s-8.083 17.271-19.565 38.105M2547.928 1050.952s-5.68.237-15.147 4.26" class="colorStroke000000 svgStroke"/><path fill="#065a2f" d="M2803.033 967.334s10.731 66.637-18.523 118.913c0 0 1.125 10.147 20.727-12.574 19.603-22.721 24.599-101.771 24.599-101.771s1.907-7.448-4.838-8.513c-6.746-1.064-26.987-3.569-21.965 3.945zM2628.872 952.193s6.246 27.484-17.547 46.16c-23.793 18.676-92.649 68.216-92.649 68.216l-9.762 27.76s112.822-56.669 134.474-89.607c23.234-35.344 21.246-51.313 21.246-51.313s2.224-4.997-3.634-4.937c0-.001-32.75-6.823-32.128 3.721z" class="color0b065a svgShape"/><path fill="#fff" stroke="#000" stroke-linecap="round" stroke-miterlimit="10" stroke-width="4" d="M2736.323 774.987c-2.631 2.855-25.403 5.049-33.924 50.175 0 0-4.103 13.885-14.201 25.877-10.098 11.992-2.457 77.141 31.557 82.995 7.574 1.304 57.118 4.418 98.457-33.135 0 0 19.565 4.733 27.455-9.783 7.889-14.516-.631-27.77-22.721-19.881-21.014 7.505 1.262-7.258-1.578-31.557 0 0-51.97.479-59.327-46.862-3.629-23.351-25.718-17.829-25.718-17.829zM2475.898 1022.293s-61.731 31.507-75.892 55.64c-17.15 29.226 4.677 56.349 61.063 34.839 53.268-20.321 86.86-61.82 86.86-61.82s19.644-.71 52.305-6.39 24.535-28.48 29.269-32.898c4.733-4.418 11.676-17.672-9.783-14.832s-52.384 16.409-59.958 19.881c-7.574 3.471-71.95 26.653-71.95 26.653s-5.526-6.341-11.914-21.073z" class="colorffffff svgShape colorStroke000000 svgStroke"/><path fill="#23fc8d" d="M2469.036 1028.389s8.047 7.1-7.574 17.041-40.708 35.501-40.708 35.501 44.771-30.807 63.863-38.381l-9.704-17.277-5.877 3.116z" class="colorfcaa23 svgShape"/><path fill="none" stroke="#000" stroke-linecap="round" stroke-miterlimit="10" stroke-width="4" d="M2421.543 1082.351s21.378-22.647 66.269-38.985" class="colorStroke000000 svgStroke"/><path fill="#44e392" stroke="#000" stroke-linecap="round" stroke-miterlimit="10" stroke-width="4" d="M2831.938 1395.939s44.371 20.17 80.261 17.737c0 0-10.393 35.394-17.118 35.701s-50.917-2.55-69.556-20.523l6.413-32.915zM2299.638 1662.546s39.633 28.37 75.316 32.924c0 0-17.042 32.716-23.699 31.717-6.657-.999-49.463-12.349-64.274-33.587l12.657-31.054z" class="color4052f2 svgShape colorStroke000000 svgStroke"/><path fill="#fff" stroke="#000" stroke-linecap="round" stroke-miterlimit="10" stroke-width="4" d="M1592.782 1118.908s-9.332 4.283-26.244 6.918" class="colorffffff svgShape colorStroke000000 svgStroke"/><path fill="#065a2f" d="M1509.716 1188.313s32.251-11.631 46.526 9.517 25.676 62.104-43.657 175.025l-2.22-22.58 17.234-122.838-30.655-16.618c-.001.001-11.02-2.415 12.772-22.506z" class="color0b065a svgShape"/><path fill="#fff" stroke="#000" stroke-linecap="round" stroke-miterlimit="10" stroke-width="4" d="M1503.417 1210.077s28.395-17.317 41.352 12.183c12.957 29.5-24.37 95.413-41.352 135.053-16.982 39.64-75.52 141.046-77.825 160.866-2.305 19.82 17.516 44.71 16.133 54.851-1.383 10.141 4.609 23.969.922 29.5-3.688 5.531-44.711 17.055-47.937 3.688-3.226-13.367-16.133-59.46-3.688-95.874s41.023-114.457 53.929-134.435 42.509-165.121 58.466-165.832z" class="colorffffff svgShape colorStroke000000 svgStroke"/><path fill="#23fc8d" d="M1566.538 1127.353s12.381-1.548 25.211-6.304l9.527 28.094s-6.872-.332-22.799-5.862c-15.927-5.531-17.057-15.09-11.939-15.928z" class="colorfcaa23 svgShape"/><path fill="#fff" stroke="#000" stroke-linecap="round" stroke-miterlimit="10" stroke-width="4" d="M1755.023 1105.852s6.824-8.038 16.607-9.616M1692.151 966.902s12.973-3.58 14.393 0" class="colorffffff svgShape colorStroke000000 svgStroke"/><path fill="#23fc8d" d="M1394.368 1594.361s35.028-4.26 45.284-10.887c0 0 3.234 13.333 1.893 16.804-1.341 3.471-14.122 8.757-33.292 10.177 0 0-10.335.395-11.834-5.286-1.499-5.68-2.051-10.808-2.051-10.808z" class="colorfcaa23 svgShape"/><path d="M1614.835 1019.688c1.213 2.489.95 5.115-.588 5.864-1.538.749-3.767-.662-4.98-3.151-1.213-2.489-.95-5.115.588-5.864 1.538-.75 3.768.661 4.98 3.151zM1584.185 1038.531c1.284 2.636.968 5.434-.706 6.25s-4.072-.66-5.357-3.296-.968-5.434.706-6.25c1.674-.815 4.073.661 5.357 3.296z" class="color000000 svgShape"/><path fill="#fff" stroke="#000" stroke-linecap="round" stroke-miterlimit="10" stroke-width="4" d="M1564.135 1032.491s-.295-13.715 14.6-13.715M1601.889 1007.864s4.916-8.785 15.299-2.647M1592.782 1076.733s17.365 8.406 36.241-5.457M1603.51 1029.92s6.784 11.42 14.452 14.222c0 0 6.655 5.604-5.309 12.24" class="colorffffff svgShape colorStroke000000 svgStroke"/><path d="M2717.406 831.509c-1.047 2.934-3.458 4.755-5.386 4.067-1.928-.688-2.642-3.624-1.596-6.557s3.458-4.755 5.386-4.067c1.928.688 2.642 3.624 1.596 6.557zM2761.425 851.701c-1.047 2.934-3.458 4.755-5.386 4.067-1.928-.688-2.642-3.624-1.596-6.558 1.047-2.934 3.458-4.755 5.386-4.067 1.928.688 2.643 3.624 1.596 6.558z" class="color000000 svgShape"/><path fill="#fff" stroke="#000" stroke-linecap="round" stroke-miterlimit="10" stroke-width="4" d="m2699.864 881.315 42.128 10.827s-30.998 26.963-42.128-10.827zM2731.579 842.218s-10.722 14.759-15.268 17.59c0 0-4.373 2.871 4.773 9.128M2706.392 809.586s12.653-8.09 22.12 3.98M2760.299 826.386s14.908-1.818 18.219 13.161" class="colorffffff svgShape colorStroke000000 svgStroke"/><path fill="none" stroke="#fff" stroke-linecap="round" stroke-miterlimit="10" stroke-width="2" d="M1479.487 986.997s56.187-81.847 112.152-21.678" class="colorStrokeffffff svgStroke"/><path fill="none" stroke="#fff" stroke-linecap="round" stroke-miterlimit="10" stroke-width="2" d="M1485.459 993.745s51.955-44.378 87.598-10.067M1475.947 1000.711s-34.73 33.624 3.539 84.059" class="colorStrokeffffff svgStroke"/><path fill="none" stroke="#fff" stroke-linecap="round" stroke-miterlimit="10" stroke-width="2" d="M1481.478 1017.081s-9.512 18.582 0 44.905" class="colorStrokeffffff svgStroke"/><path fill="#00ea73" d="m582.896 2208.252 243.749-279.071 245.285 60.273 139.446-112.845-60.191-43.075 253.502-80.706-84.524 207.991-51.046-45.672-187.917 184.742-225.368-50.523-94.124 159.851z" class="colorea8b00 svgShape"/><path fill="#02ab55" d="M1857.495 1620.889s14.753 2.919 21.38 14.279c6.627 11.36 84.572 118.023 116.76 119.285 0 0-17.356 18.619-50.807 21.34.001.001-41.654-59.76-87.333-154.904zM1636.676 1467.786s-13.806 35.001-23.036 44.232c-9.23 9.23 7.477 15.084 8.915 13.642 8.2-8.226 17.8-39.559 14.121-57.874z" class="color0502ab svgShape"/><path fill="none" stroke="#000" stroke-linecap="round" stroke-miterlimit="10" stroke-width="4" d="M1639.043 1467.786s.947 39.261-17.672 57.88" class="colorStroke000000 svgStroke"/><path fill="#02ab55" d="m2662.431 1314.479-18.303 36.448s56.589-8.143 82.442-10.414c0 0-31.715-2.367-51.832-11.676-9.627-4.455-12.307-14.358-12.307-14.358z" class="color0502ab svgShape"/><path fill="#fff" stroke="#000" stroke-linecap="round" stroke-miterlimit="10" stroke-width="4" d="m3469.179 1082.547-77.724 77.724M3443.631 1162.44l-77.724 77.724M3576.406 1028.513l-106.087 108.069M3543.867 1348.935l-268.352 329.316M3333.617 1660.082l-94.573 118.277M728.464 1953.266l-142.062 169.51M616.779 2113.734l-50.081 60.894" class="colorffffff svgShape colorStroke000000 svgStroke"/></svg>