<svg xmlns="http://www.w3.org/2000/svg" enable-background="new 0 0 300 225" viewBox="0 0 300 225"><path fill="#ffe5d9" d="M162.7,17.8c-42-6.2-48.7,17.7-64.4,24.3C88.9,46,60.8,48,71.2,98.6
		c2.6,12.7-16.5,25.3-6.2,42.4c20.5,33.8,77.8,5.1,105,14c58.7,19.3,71.8-2.7,69.3-38.6c-1-14.9,10.1-27,1.1-48.3
		C227.9,38.3,201.3,23.5,162.7,17.8z"/><ellipse cx="150" cy="192.2" fill="#ffe5d9" rx="118.7" ry="16"/><path fill="#fec89a" d="M203.2,32.6h-75.9c-3.9,0-7.1,3.2-7.1,7.1v149.7c0,3.9,3.2,7.1,7.1,7.1h75.9
			c3.9,0,7.1-3.2,7.1-7.1V39.7C210.3,35.8,207.1,32.6,203.2,32.6z" opacity=".5"/><path d="M177,41.9h-23.6c-0.5,0-0.9-0.4-0.9-0.9v-0.5c0-0.5,0.4-0.9,0.9-0.9H177c0.5,0,0.9,0.4,0.9,0.9v0.5
			C177.9,41.4,177.5,41.9,177,41.9z"/><path fill="none" stroke="#000" stroke-linecap="round" stroke-miterlimit="10" stroke-width=".295" d="M166.9,185.2h-3.4c-1.6,0-2.8,1.3-2.8,2.8l0,0c0,1.6,1.3,2.8,2.8,2.8h3.4
				c1.6,0,2.8-1.3,2.8-2.8l0,0C169.7,186.5,168.5,185.2,166.9,185.2z"/><path fill="none" stroke="#000" stroke-linecap="round" stroke-miterlimit="10" stroke-width=".295" d="M186.1,190.9h6.2c1.6,0,2.8-1.3,2.8-2.8s-1.3-2.8-2.8-2.8H188"/><polygon points="188.9 184 188.4 185.2 188.9 186.4 186.1 185.2"/><line x1="135.2" x2="144.3" y1="190.9" y2="190.9" fill="none" stroke="#000" stroke-linecap="round" stroke-miterlimit="10" stroke-width=".295"/><line x1="144.3" x2="135.2" y1="185.2" y2="185.2" fill="none" stroke="#000" stroke-linecap="round" stroke-miterlimit="10" stroke-width=".295"/><line x1="144.3" x2="135.2" y1="188" y2="188" fill="none" stroke="#000" stroke-linecap="round" stroke-miterlimit="10" stroke-width=".295"/><g><path fill="none" stroke="#000" stroke-linecap="round" stroke-miterlimit="10" stroke-width=".295" d="M202.9,65.4h-75.4c-0.5,0-0.9,0.4-0.9,0.9v81c0,0.5,0.4,0.9,0.9,0.9h75.4
				c0.5,0,0.9-0.4,0.9-0.9v-81C203.8,65.8,203.4,65.4,202.9,65.4z"/><circle cx="135.2" cy="73.4" r="3.2" fill="#0054d4"/><line x1="145.5" x2="181.2" y1="72.1" y2="72.1" fill="none" stroke="#000" stroke-linecap="round" stroke-miterlimit="10" stroke-width=".295"/><line x1="132.2" x2="196.3" y1="127.6" y2="127.6" fill="none" stroke="#000" stroke-linecap="round" stroke-miterlimit="10" stroke-width=".295"/><line x1="132.2" x2="170" y1="132.9" y2="132.9" fill="none" stroke="#000" stroke-linecap="round" stroke-miterlimit="10" stroke-width=".295"/><rect width="77.7" height="42.7" x="126.3" y="80.6" fill="#007ffa"/><path fill="#0054d4" d="M126.2,123.3c0,0,12.9-21.3,25.5-21.3c5.5,0,8.6,11.7,12.9,11.3
					c5.8-0.5,9.6-18.3,17.9-18.3c9.4,0,21.5,28.3,21.5,28.3H126.2z"/><circle cx="159.1" cy="91.9" r="5" fill="#0054d4"/><path fill="none" stroke="#fff" stroke-linecap="round" stroke-miterlimit="10" stroke-width=".295" d="M174,87.3c0,0,3.6,2.9,7,2.9c2.3,0,4-2.9,6.3-2.9c2.3,0,6.5,2.1,6.5,2.1"/><path fill="none" stroke="#fff" stroke-linecap="round" stroke-miterlimit="10" stroke-width=".295" d="M130.3,94.6c0,0,3.6,2.9,7,2.9c2.3,0,4-2.9,6.3-2.9c2.3,0,6.5,2.1,6.5,2.1"/><path fill="#d90429" d="M138.1,138.8c-0.7-0.7-1.8-0.7-2.5,0l-0.2,0.2l-0.2-0.2c-0.4-0.4-0.8-0.5-1.3-0.5
				c-0.5,0-0.9,0.2-1.3,0.5c-0.7,0.7-0.7,1.8,0,2.5l2.8,2.8l2.8-2.8c0.4-0.4,0.5-0.8,0.5-1.3C138.6,139.6,138.4,139.1,138.1,138.8z"/><path fill="none" stroke="#fff" stroke-linecap="round" stroke-miterlimit="10" stroke-width=".295" d="M152.6,142.8c0.8-0.5,1.3-1.3,1.3-2.1c0-1.5-1.5-2.7-3.3-2.7c-1.8,0-3.3,1.2-3.3,2.7
				s1.5,2.7,3.3,2.7c0.3,0,0.6,0,0.9-0.1l1.8,1L152.6,142.8z"/></g><g><path fill="none" stroke="#000" stroke-linecap="round" stroke-miterlimit="10" stroke-width=".295" d="M202.9,155.7h-75.4c-0.5,0-0.9,0.4-0.9,0.9v19.7c0,0.5,0.4,0.9,0.9,0.9h75.4
				c0.5,0,0.9-0.4,0.9-0.9v-19.7C203.8,156.1,203.4,155.7,202.9,155.7z"/><circle cx="137.4" cy="166.4" r="7.3" fill="#ff7300"/><line x1="150.5" x2="198" y1="160.7" y2="160.7" fill="none" stroke="#000" stroke-linecap="round" stroke-miterlimit="10" stroke-width=".295"/><line x1="150.5" x2="185.9" y1="166.6" y2="166.6" fill="none" stroke="#000" stroke-linecap="round" stroke-miterlimit="10" stroke-width=".295"/><line x1="150.5" x2="198" y1="172.5" y2="172.5" fill="none" stroke="#000" stroke-linecap="round" stroke-miterlimit="10" stroke-width=".295"/><path fill="none" stroke="#fff" stroke-linecap="round" stroke-miterlimit="10" stroke-width=".295" d="M130.2,166.4c0,0,5.7-2.2,7-0.9c0.5,0.5-0.2,1.2,0.6,2c1.3,1.3,6.8-1.5,6.8-1.5"/></g><g><path fill="#ff7300" d="M132.5,51.2h-5.3c-0.3,0-0.6,0.3-0.6,0.6v5.3c0,0.3,0.3,0.6,0.6,0.6h5.3
				c0.3,0,0.6-0.3,0.6-0.6v-5.3C133.1,51.5,132.8,51.2,132.5,51.2z"/><line x1="197.4" x2="203.8" y1="57.2" y2="57.2" fill="none" stroke="#000" stroke-linecap="round" stroke-miterlimit="10" stroke-width=".295"/><line x1="203.8" x2="197.4" y1="51.6" y2="51.6" fill="none" stroke="#000" stroke-linecap="round" stroke-miterlimit="10" stroke-width=".295"/><line x1="203.8" x2="197.4" y1="54.4" y2="54.4" fill="none" stroke="#000" stroke-linecap="round" stroke-miterlimit="10" stroke-width=".295"/></g><line x1="141" x2="189.2" y1="54.6" y2="54.6" fill="none" stroke="#fff" stroke-linecap="round" stroke-miterlimit="10" stroke-width=".295"/><g><path fill="#161616" d="M86.6,129.9c0,0,15.2,0.3,22-1.8C108.7,128.1,96.2,123.7,86.6,129.9z"/><path fill="#fb9a78" d="M90.4,178.3l2,3.4c0.9,1.6,2.7,2.6,4.5,2.6l0.9,0c0.9,0,1.5-0.9,1.1-1.7l-1-2l-1.3-6.1
				c-0.4-1.9-6.7,1.3-6.7,1.3l0.1,0.8C89.9,177.1,90.1,177.7,90.4,178.3z"/><path d="M101.3,185.6l-3.5-5.1l1,2c0.4,0.8-0.2,1.7-1.1,1.7l-0.9,0c-1.9,0-3.6-1-4.5-2.6l-2-3.4
				c-0.3-0.5-0.5-1.2-0.6-1.8l-0.1-0.8l-0.5,0.9c-0.5,0.9-0.5,1.9-0.4,2.8l0.2,0.8v5.8l1.5,0.2v-4.6l2.4,5.3
				c0.3,0.6,0.6,1.1,1.2,1.4l3,1.8C100.1,191.8,103.2,188.4,101.3,185.6z"/><path fill="#fb9a78" d="M108.3,125l-2.6,12.8c-0.1,0.4-0.2,0.7-0.3,1.1l-1,2.8c-0.1,0.3-0.2,0.6-0.2,0.9l-1.9,12
			c-0.2,1.1-0.5,2.2-0.8,3.3l-6.7,19.7l-4.9-1.9l4.9-20.5l0.9-12.4L92.1,125H108.3z"/><path fill="#fb9a78" d="M92.7,184.3l2,3.4c0.9,1.6,2.7,2.6,4.5,2.6l0.9,0c0.9,0,1.5-0.9,1.1-1.7l-1-2l-1.3-6.1
				c-0.4-1.9-0.6-3.9-0.4-5.8l1.4-19.7c0.1-0.7,0.2-1.4,0.3-2.2l2.3-10.8c0.5-2.2,0.4-4.6-0.1-6.8l-2.4-10l-13,1.9l5,13.9
				c0.4,1.2,0.5,2.4,0.3,3.6l-1.7,9.3c-0.3,1.6-0.3,3.3-0.1,4.9l1.2,8.6c0.1,0.4,0.1,0.9,0.1,1.3l0.4,13.1l0.1,0.8
				C92.2,183.1,92.4,183.7,92.7,184.3z"/><path fill="none" stroke="#000" stroke-linecap="round" stroke-miterlimit="10" stroke-width=".308" d="M98.3,174.6l1.4-19.7c0.1-0.7,0.2-1.4,0.3-2.2l2.3-10.8c0.5-2.2,0.4-4.6-0.1-6.8l-2.4-10
				"/><path d="M103.6,191.6l-3.5-5.1l1,2c0.4,0.8-0.2,1.7-1.1,1.7l-0.9,0c-1.9,0-3.6-1-4.5-2.6l-2-3.4
				c-0.3-0.5-0.5-1.2-0.6-1.8l-0.1-0.8l-0.5,0.9c-0.5,0.9-0.5,1.9-0.4,2.8l0.3,0.8v5.8l1.2,0.2v-4.6l2.6,5.3
				c0.3,0.6,0.7,1.1,1.3,1.4l3,1.8C102.4,197.8,105.5,194.4,103.6,191.6z"/><path fill="none" stroke="#fff" stroke-linecap="round" stroke-miterlimit="10" stroke-width=".308" d="M92,181.7l-0.5,0.9c-0.5,0.9-0.6,1.9-0.5,2.8"/><path fill="#ff7300" d="M85.8,92h22c0,0,6.4,17.8,0.9,36c0,0-12.3-2.8-22,1.8C86.6,129.8,77.9,109.1,85.8,92z"/><polygon fill="#fb9a78" points="130.5 59.7 133.5 57 136.3 59.4 133.2 62.8"/><path fill="#d90429" d="M84,88.9l1.4-1.1c0,3,0,5,0,5c9.7,1.2,22.6,0,22.6,0s-2.5-7.1-0.4-12c1-2.3,0.9-5.3,0.7-8
			l7,2.5c3.1,1.1,6.6,0.3,8.9-2.1l10.4-10.8l-3.7-3.9l-11.5,8.4l-14.6-6.6c-0.8-0.5-1.8-0.7-2.8-0.6l-15.5,1.4
			c-3.8,0.4-7,3.1-7.8,6.9l-3.5,15.3C74,88.3,79.9,92.1,84,88.9z M83.9,80.4l1.3-4.2c0,1.2,0.1,2.3,0.1,3.5L83.9,80.4z"/><path fill="none" stroke="#000" stroke-linecap="round" stroke-miterlimit="10" stroke-width=".308" d="M107.3,68.9c1.2,1.9,1.6,8.6,0.3,11.8c-1.9,4.6,0.4,12,0.4,12"/><line x1="80.6" x2="83.9" y1="82.2" y2="80.4" fill="none" stroke="#000" stroke-linecap="round" stroke-miterlimit="10" stroke-width=".308"/><path fill="#091d40" d="M93.2,47.1c0,0-1.9-2.1-4.2-0.5c-2.3,1.5-2.4,5.4-1.7,7.6c0.7,2.2,0.8,4.3-0.7,5.2
				c0,0,5.6-1,3.9-5.3c-1.9-4.8,0.5-5,0.5-5L93.2,47.1z"/><circle cx="92.5" cy="48.5" r="1.8" fill="#fff"/><path fill="#fb9a78" d="M97.2,53.7L92,52.8l-1.4,7.8c-0.2,1.3,0.6,2.5,1.9,2.7l0.6,0.1c1.3,0.2,2.5-0.6,2.7-1.9
				L97.2,53.7z"/><path fill="#f9744b" d="M93.6,55.7l3.2,0.6l-0.6,3.5l-0.7-0.1c-1.4-0.2-2.3-1.5-2-2.9L93.6,55.7z"/><path fill="#fb9a78" d="M99.3,48.7c0.6,0.1,1,0.6,0.9,1.2l-0.8,5.9c-0.2,1.4-1.6,2.2-2.9,1.7l-4.7-1.8l1.4-8.1
				L99.3,48.7z"/><path fill="none" stroke="#000" stroke-linecap="round" stroke-miterlimit="10" stroke-width=".308" d="M96.7,50.8c0,0-1.1-0.6-2.2,0"/><path fill="none" stroke="#000" stroke-linecap="round" stroke-miterlimit="10" stroke-width=".308" d="M97.8,51c0,0,1-0.1,1.5,0.5"/><ellipse cx="98.6" cy="53.1" rx=".4" ry=".3" transform="rotate(-79.887 98.612 53.072)"/><ellipse cx="95.6" cy="52.5" rx=".4" ry=".3" transform="rotate(-79.887 95.59 52.533)"/><path fill="none" stroke="#000" stroke-linecap="round" stroke-miterlimit="10" stroke-width=".308" d="M97.5,52.7L98,54c0.1,0.2-0.1,0.4-0.3,0.4l-0.3-0.1"/><path fill="#fff" d="M96,55.3c0,0,0.9,0.4,1.8,0.2C97.8,55.5,96.7,57.4,96,55.3z"/><path fill="#091d40" d="M91.5,55.4c0,0-2.5-7.8,1.7-8.4c0,0,3.2-2.7,6.2,0.1c0,0,2.7,1.6,0.6,4.1
				c0,0,0-1.1-0.8-1.3c-0.8-0.2-3.3,0.2-4.2-0.5c-0.9-0.6-1.7,0.5-1.8,1.7S93.1,53.9,91.5,55.4z"/><g><ellipse cx="92.1" cy="52.1" fill="#fb9a78" rx="1.3" ry="1.5" transform="rotate(-34.885 92.12 52.107)"/><path fill="none" stroke="#000" stroke-linecap="round" stroke-miterlimit="10" stroke-width=".308" d="M91.4,52.8c-0.4-0.5-0.3-1.2,0.1-1.5c0.4-0.3,1.1-0.1,1.5,0.4"/><circle cx="92.5" cy="53.6" r=".3" fill="#fff"/></g><path fill="#d90429" d="M95.3,64.9l-5.7-1c-0.3-0.1-0.5-0.4-0.5-0.7l0.9-4.7c0.1-0.3,0.4-0.5,0.7-0.5l5.7,1
			c0.3,0.1,0.5,0.4,0.5,0.7L96,64.4C96,64.7,95.7,64.9,95.3,64.9z"/><line x1="91.6" x2="92" y1="168" y2="180.8" fill="none" stroke="#000" stroke-linecap="round" stroke-miterlimit="10" stroke-width=".308"/><g><path fill="#fb9a78" d="M133.4,58l0.1-1.7c0-0.1,0-0.2,0.1-0.4l0.9-2.1l1.1-1.3c0.3-0.4,0.9,0,0.7,0.5l-0.8,1.4
				l-0.1,0.6l2-2l2.1-1.3c0.4-0.2,0.8,0.3,0.5,0.6l-1.9,1.5l-1,1.2l1.5,1.7c0.3,0.3,0.2,0.7,0,0.9l-2.8,2.5L133.4,58z"/><path fill="none" stroke="#000" stroke-linecap="round" stroke-miterlimit="10" stroke-width=".386" d="M135.3,55c0,0,0,0.6-0.4,1.1"/><path fill="none" stroke="#000" stroke-linecap="round" stroke-miterlimit="10" stroke-width=".386" d="M137.2,54.7l-1.6,1.2c-0.3,0.3,0,0.8,0.4,0.6l1.4-0.8c0,0,0,0,0,0l-1.1,1
				c-0.3,0.4,0.1,0.9,0.5,0.6l1.1-0.8c0,0,0,0,0,0l-0.9,1.4c-0.2,0.4,0.3,0.7,0.5,0.4l0.7-0.9"/></g><polygon fill="#fb9a78" points="91.4 77.4 94.1 76.1 96 78.8 93.4 80.8"/><polyline fill="none" stroke="#000" stroke-linecap="round" stroke-miterlimit="10" stroke-width=".308" points="84 80.4 91 76.7 93.8 81.3 85.8 87.5"/><g><path d="M96,77.1L96,77.1c0.2,0.2,0.5,0.3,0.7,0.1l6.3-4.9c0.2-0.2,0.2-0.5,0.1-0.7l0,0
					c-0.2-0.2-0.5-0.2-0.7-0.1l-6.3,4.9C95.9,76.6,95.9,76.9,96,77.1z"/><path fill="#fff" d="M100.4,73.7L100.4,73.7c0.1,0.1,0.2,0.1,0.2,0l1.5-1.1c0.1-0.1,0.1-0.1,0-0.2l0,0
					c-0.1-0.1-0.1-0.1-0.2,0l-1.5,1.1C100.4,73.5,100.4,73.6,100.4,73.7z"/><g><path fill="#fb9a78" d="M93,77l1.8-1.5c0.3-0.3,0.6-0.4,1-0.6L99,74c0.6-0.2,0.9,0.6,0.4,0.9l-2.5,1.3L93.7,78
					L93,77z"/><path fill="#fb9a78" d="M94.6,79.2l3.2-0.9c0.2-0.1,0.4-0.2,0.6-0.3l1.3-1.2c0.2-0.2,0.3-0.4,0.3-0.6v-0.4l1.5-1.9
					c0.2-0.3-0.2-0.7-0.4-0.4l-2.5,2.3L93,77L94.6,79.2z"/><line x1="99.9" x2="98.3" y1="75.8" y2="77.3" fill="none" stroke="#000" stroke-linecap="round" stroke-miterlimit="10" stroke-width=".187"/><line x1="96.8" x2="96.1" y1="76.2" y2="76.6" fill="none" stroke="#000" stroke-linecap="round" stroke-miterlimit="10" stroke-width=".187"/></g></g></g><g><circle cx="230.7" cy="103.9" r="15.1" fill="#d90429"/><path fill="none" stroke="#fff" stroke-miterlimit="10" stroke-width=".295" d="M235.4,108.3c1.8-1.1,3-2.9,3-4.9c0-3.4-3.4-6.2-7.7-6.2c-4.2,0-7.7,2.8-7.7,6.2
			c0,3.4,3.4,6.2,7.7,6.2c0.7,0,1.4-0.1,2-0.2l3.1,1.9L235.4,108.3z"/><circle cx="226.8" cy="103.3" r=".9" fill="#fff"/><circle cx="230.7" cy="103.3" r=".9" fill="#fff"/><circle cx="234.6" cy="103.3" r=".9" fill="#fff"/></g><g><circle cx="62.4" cy="159.4" r="15.1" fill="#007ffa"/><path fill="none" stroke="#fff" stroke-miterlimit="10" stroke-width=".295" d="M59.6,164.6h-5c-0.3,0-0.6-0.3-0.6-0.6v-7.2c0-0.3,0.3-0.6,0.6-0.6h5
				c0.3,0,0.6,0.3,0.6,0.6v7.2C60.2,164.4,59.9,164.6,59.6,164.6z"/><path fill="#fff" d="M69,156.8h-2.7v-4.1c0-1-1.3-1.4-1.9-0.6l-3.5,4.3c-0.1,0.1-0.1,0.2-0.1,0.3v7.2
					c0,0.3,0.2,0.5,0.5,0.5h7c0.9,0,1.7-0.7,1.9-1.6l0.7-3.7C71.1,158,70.2,156.8,69,156.8z"/><circle cx="58.6" cy="163.4" r=".6" fill="#fff"/></g></svg>