<svg xmlns="http://www.w3.org/2000/svg" enable-background="new 0 0 1500 1500" viewBox="0 0 1500 1500"><path fill="none" d="M1324.2,1377.3c-14.8,14.8-38.9,14.8-53.8,0l-60.4-60.4l-59.7-59.7c-1.2,0.9-2.4,1.9-3.6,2.8
		c-1.1,0.8-2.2,1.7-3.3,2.5c0,0.1-0.1,0.1-0.1,0.1c-1.2,0.9-2.3,1.7-3.5,2.5c-1.4,1-2.9,2-4.3,3c-0.7,0.5-1.4,1-2.1,1.5
		c-4.5,3.1-9.1,6-13.8,8.9c-1.6,0.9-3.1,1.9-4.7,2.8c-1.2,0.7-2.5,1.4-3.7,2.1c-0.6,0.4-1.3,0.7-1.9,1.1c-0.9,0.5-1.8,1-2.7,1.5
		c-1.1,0.6-2.2,1.2-3.4,1.8c-2.7,1.4-5.4,2.8-8.2,4.2c-1.2,0.6-2.5,1.2-3.7,1.8c0,0-0.1,0-0.1,0c-1.3,0.6-2.6,1.2-4,1.8
		c-1.3,0.6-2.7,1.2-4,1.8c-1.3,0.6-2.7,1.2-4,1.7c-1.2,0.5-2.5,1-3.7,1.5c-3,1.2-6.1,2.4-9.1,3.6c-1.1,0.4-2.2,0.8-3.4,1.2
		c-1.4,0.5-2.7,1-4.1,1.4c-1.2,0.4-2.5,0.8-3.8,1.3c-0.4,0.1-0.7,0.2-1.1,0.3c-1.1,0.4-2.3,0.7-3.4,1.1c-1.4,0.4-2.8,0.8-4.1,1.3
		c-1.4,0.4-2.8,0.8-4.2,1.2c-1.1,0.3-2.2,0.6-3.4,0.9c-0.5,0.1-1,0.3-1.6,0.4c-0.8,0.2-1.7,0.4-2.5,0.6c-0.5,0.1-1,0.2-1.4,0.4
		c-2.6,0.7-5.2,1.3-7.9,1.9c-1.2,0.3-2.3,0.5-3.5,0.8c-0.4,0.1-0.9,0.2-1.3,0.3c-1.2,0.2-2.4,0.5-3.6,0.7c-1.4,0.3-2.8,0.5-4.2,0.8
		c-1.4,0.2-2.8,0.5-4.1,0.7c-1.6,0.3-3.3,0.5-4.9,0.8c-1.1,0.2-2.2,0.3-3.2,0.5c-2.7,0.4-5.4,0.7-8.1,1c-0.6,0.1-1.3,0.1-1.9,0.2
		c-1,0.1-2.1,0.2-3.1,0.3c-0.8,0.1-1.6,0.1-2.3,0.2c-0.7,0.1-1.5,0.1-2.2,0.2c-1.1,0.1-2.1,0.2-3.2,0.2c-0.6,0.1-1.2,0.1-1.8,0.1
		c-1,0.1-2,0.1-3,0.2c-3.1,0.2-6.2,0.3-9.2,0.4c-1.2,0-2.4,0.1-3.6,0.1c-9.7,0.2-19.4-0.2-29.1-0.9c-24.4,8.2-49.5,14.8-75.3,19.7
		c-34.9,6.6-70.9,10.1-107.7,10.1c-152.3,0-290.8-59.5-393.3-156.6c-85.5-80.9-146.1-188-169-308.4c-6.2-32.6-9.6-66.1-10-100.4v0
		l-25.9-259.2l-2-20L252,497.9c38.5-67.8,90.5-127,152.3-173.9l4.1-74.4l112,6.1c70.3-30.9,148-48,229.8-48
		c103.9,0,201.3,27.7,285.3,76.1l68,3.7l0,0l135.8,139.9l18.5,19l0,0v0l-3.4,62.4c43.6,80.7,68.3,173.1,68.3,271.3
		c0,84.7-18.4,165.1-51.4,237.4c-0.2,0.4-0.3,0.8-0.5,1.1c-0.1,1.8-0.1,3.7-0.2,5.5c0,0.4,0,0.7-0.1,1.1c0,0.9-0.1,1.8-0.1,2.6
		c0,0.7-0.1,1.4-0.1,2c0,0.8-0.1,1.6-0.2,2.3c0,0.7-0.1,1.3-0.2,2c-0.1,1-0.1,1.9-0.2,2.9c-0.1,1.2-0.2,2.4-0.3,3.6
		c-0.2,1.8-0.4,3.6-0.6,5.3c0,0.2-0.1,0.5-0.1,0.8c-0.1,0.9-0.2,1.7-0.3,2.6c-0.1,1.1-0.3,2.3-0.4,3.4c-0.1,0.9-0.2,1.8-0.4,2.7
		c-0.2,1-0.3,2.1-0.5,3.1c-0.3,2-0.6,4-1,6c-0.5,3.1-1.1,6.1-1.7,9.2c-0.2,1-0.4,1.9-0.6,2.9c-0.2,1-0.4,2-0.7,3c-0.2,1-0.5,2-0.7,3
		c-0.2,0.8-0.4,1.7-0.6,2.5c-0.1,0.4-0.2,0.9-0.3,1.3c-0.7,2.7-1.4,5.3-2.1,8c0,0.1,0,0.1,0,0.1c-0.3,1-0.6,2-0.8,3
		c-0.3,1-0.6,2-0.9,3c-0.4,1.2-0.7,2.4-1.1,3.5c-0.2,0.8-0.5,1.6-0.8,2.4c-0.3,1-0.6,2-1,2.9c-0.7,2-1.3,3.9-2,5.9
		c-0.3,1-0.7,1.9-1,2.9c-0.7,1.9-1.5,3.9-2.2,5.8c-0.4,1-0.8,1.9-1.1,2.9c-0.4,1-0.8,1.9-1.2,2.9c-0.4,1-0.8,2-1.3,3
		c-0.8,1.9-1.6,3.7-2.4,5.6c-1.3,3-2.7,6-4.2,9c-0.8,1.7-1.7,3.4-2.6,5.2c-0.5,0.9-1,1.9-1.4,2.8c-1.5,2.8-3,5.6-4.5,8.3
		c-0.5,0.8-0.9,1.7-1.4,2.5c-1.7,3-3.4,5.9-5.2,8.8c-0.4,0.7-0.9,1.5-1.4,2.2c-1.7,2.8-3.5,5.5-5.4,8.2c-1,1.5-2.1,3.1-3.2,4.6
		c-0.5,0.8-1.1,1.5-1.6,2.3c-0.4,0.6-0.9,1.2-1.3,1.8c-2.3,3.2-4.6,6.3-7.1,9.4l11.5,11.6l108.6,108.6
		C1339.1,1338.4,1339.1,1362.5,1324.2,1377.3z"/><path fill="#dbf2ff" fill-rule="evenodd" d="M1322.4,780.2c0,84.7-18.4,165.1-51.4,237.4c-0.2,0.4-0.3,0.8-0.5,1.1c-13.8,30.1-30.2,58.9-48.9,85.9
		c-19,27.5-40.3,53.3-63.7,77.1c-9.3,9.5-18.9,18.6-28.9,27.4c-13.7,12.1-28,23.6-42.8,34.4c-46.3,33.7-97.9,60.6-153.3,79.3
		c-24.4,8.2-49.5,14.8-75.3,19.7c-34.9,6.6-70.9,10.1-107.7,10.1c-152.3,0-290.8-59.5-393.3-156.6c-85.5-80.9-146.1-188-169-308.4
		c-6.2-32.6-9.6-66.1-10-100.4v0c0-2.3,0-4.7,0-7c0-94,22.7-182.7,62.8-261c3.7-7.2,7.5-14.3,11.5-21.4
		c38.5-67.8,90.5-127,152.3-173.9c35.6-27.1,74.6-50,116-68.2c70.3-30.9,148-48,229.8-48c103.9,0,201.3,27.7,285.3,76.1
		c23.1,13.3,45.2,28.2,66.1,44.5c36.3,28.3,69.2,60.9,97.7,96.9c5.1,6.4,10,12.9,14.8,19.6c14.8,20.4,28.2,41.8,40.2,64.1
		c0,0,0,0,0,0C1297.7,589.7,1322.4,682.1,1322.4,780.2z" clip-rule="evenodd"/><path fill="#4fb4f3" fill-rule="evenodd" d="M1091.2,1293.8c-1.3,0.6-2.6,1.2-4,1.8c-1.3,0.6-2.7,1.2-4,1.8c-1.3,0.6-2.7,1.2-4,1.7
			c-1.2,0.5-2.5,1-3.7,1.5c-3,1.2-6.1,2.4-9.1,3.6c-1.1,0.4-2.2,0.8-3.4,1.2c-1.4,0.5-2.7,1-4.1,1.4c-1.2,0.4-2.5,0.8-3.8,1.3
			c-0.4,0.1-0.7,0.2-1.1,0.3c-1.1,0.4-2.3,0.7-3.4,1.1c-1.4,0.4-2.8,0.8-4.1,1.3c-1.4,0.4-2.8,0.8-4.2,1.2c-1.1,0.3-2.2,0.6-3.4,0.9
			c-0.5,0.1-1,0.3-1.6,0.4c-0.8,0.2-1.7,0.4-2.5,0.6c-0.5,0.1-1,0.2-1.4,0.4c-2.6,0.7-5.2,1.3-7.9,1.9c-1.2,0.3-2.3,0.5-3.5,0.8
			c-0.4,0.1-0.9,0.2-1.3,0.3c-1.2,0.2-2.4,0.5-3.6,0.7c-1.4,0.3-2.8,0.5-4.2,0.8c-1.4,0.2-2.8,0.5-4.1,0.7c-1.6,0.3-3.3,0.5-4.9,0.8
			c-1.1,0.2-2.2,0.3-3.2,0.5c-2.7,0.4-5.4,0.7-8.1,1c-0.6,0.1-1.3,0.1-1.9,0.2c-1,0.1-2.1,0.2-3.1,0.3c-0.8,0.1-1.6,0.1-2.3,0.2
			c-0.7,0.1-1.5,0.1-2.2,0.2c-1.1,0.1-2.1,0.2-3.2,0.2c-0.6,0.1-1.2,0.1-1.8,0.1c-1,0.1-2,0.1-3,0.2c-3.1,0.2-6.2,0.3-9.2,0.4
			c-1.2,0-2.4,0.1-3.6,0.1c-9.7,0.2-19.4-0.2-29.1-0.9c-24.4,8.2-49.5,14.8-75.3,19.7c-34.9,6.6-70.9,10.1-107.7,10.1
			c-152.3,0-290.8-59.5-393.3-156.6c-85.5-80.9-146.1-188-169-308.4l-9.3-93.4l-0.7-7v0l-25.9-259.2l88.7-8.9L353,508l41.4-4.1h0
			l2-0.2l76-7.6l132.9-13.3l381.2-38.1l19.6-2l0.3,3.1h0l26,260.4l0.3,2.8l3.3,33.2l2.1,21l16.4,164.4l1.4,13.6l3.4,34.3l26.1,261.4
			l0.7,6.8L1091.2,1293.8z" clip-rule="evenodd"/><path fill="#acdcfa" fill-rule="evenodd" d="M1258.5,428.5l-1,18v0l-3.4,62.4l-19.4,355.7l-1.6,29.5l-4.9,90.5l-6.5,120l-35.5,83.7l29.5,26.7l-0.6,11.6
			l-4.9,90.3l-59.7-59.7c-1.2,0.9-2.4,1.9-3.6,2.8c-1.1,0.8-2.2,1.7-3.3,2.5c0,0.1-0.1,0.1-0.1,0.1c-1.2,0.9-2.3,1.7-3.5,2.5
			c-1.4,1-2.9,2-4.3,3c-0.7,0.5-1.4,1-2.1,1.5c-4.5,3.1-9.1,6-13.8,8.9c-1.6,0.9-3.1,1.9-4.7,2.8c-1.2,0.7-2.5,1.4-3.7,2.1
			c-0.6,0.4-1.3,0.7-1.9,1.1c-0.9,0.5-1.8,1-2.7,1.5c-1.1,0.6-2.2,1.2-3.4,1.8c-2.7,1.4-5.4,2.8-8.2,4.2c-1.2,0.6-2.5,1.2-3.7,1.8
			c0,0-0.1,0-0.1,0c-1.3,0.6-2.6,1.2-4,1.8c-1.3,0.6-2.7,1.2-4,1.8c-1.3,0.6-2.7,1.2-4,1.7c-1.2,0.5-2.5,1-3.7,1.5
			c-3,1.2-6.1,2.4-9.1,3.6c-1.1,0.4-2.2,0.8-3.4,1.2c-1.4,0.5-2.7,1-4.1,1.4c-1.2,0.4-2.5,0.8-3.8,1.3c-0.4,0.1-0.7,0.2-1.1,0.3
			c-1.1,0.4-2.3,0.7-3.4,1.1c-1.4,0.4-2.8,0.8-4.1,1.3c-1.4,0.4-2.8,0.8-4.2,1.2c-1.1,0.3-2.2,0.6-3.4,0.9c-0.5,0.1-1,0.3-1.6,0.4
			c-0.8,0.2-1.7,0.4-2.5,0.6c-0.5,0.1-1,0.2-1.4,0.4c-2.6,0.7-5.2,1.3-7.9,1.9c-1.2,0.3-2.3,0.5-3.5,0.8c-0.4,0.1-0.9,0.2-1.3,0.3
			c-1.2,0.2-2.4,0.5-3.6,0.7c-1.4,0.3-2.8,0.5-4.2,0.8c-1.4,0.2-2.8,0.5-4.1,0.7c-1.6,0.3-3.3,0.5-4.9,0.8c-1.1,0.2-2.2,0.3-3.2,0.5
			c-2.7,0.4-5.4,0.7-8.1,1c-0.6,0.1-1.3,0.1-1.9,0.2c-1,0.1-2.1,0.2-3.1,0.3c-0.8,0.1-1.6,0.1-2.3,0.2c-0.7,0.1-1.5,0.1-2.2,0.2
			c-1.1,0.1-2.1,0.2-3.2,0.2c-0.6,0.1-1.2,0.1-1.8,0.1c-1,0.1-2,0.1-3,0.2c-3.1,0.2-6.2,0.3-9.2,0.4c-1.2,0-2.4,0.1-3.6,0.1
			c-9.7,0.2-19.4-0.2-29.1-0.9c-24.4,8.2-49.5,14.8-75.3,19.7c-34.9,6.6-70.9,10.1-107.7,10.1c-152.3,0-290.8-59.5-393.3-156.6
			l3.3-60.7l0-0.4l19.7-360.7l14.7-270.4l1.1-20.3v0l5.5-101.8h0l75.8,4.1l561,30.6l59.2,3.2l102.1,5.6l40,2.2L1258.5,428.5z" clip-rule="evenodd"/><path fill="#4fb4f3" fill-rule="evenodd" d="M1271,1017.6c-2.6,56-17.8,112-48.4,159.6c-1.7,2.8-38.4,4.7-40.2,7.4c55.4,45.7,37.8,36.2-12,92.6
			c-15.8-15.2-17.3-26.1-37-7.6c-80.9,62.3-183.7,44.8-275.7,72.9c-157-49.5-250.2-235.2-198.2-388.9
			C753.7,630.7,1245.5,681.1,1271,1017.6z" clip-rule="evenodd"/><polygon fill="#4fb4f3" fill-rule="evenodd" points="1032.8 709 909.8 721.2 815.9 730.6 549.6 757.2 380.8 774.1 379.7 774.2 354.3 776.7 178.3 794.3 177.6 787.3 149.7 508.1 252 497.9 395.5 483.5 473.6 475.7 474.6 475.6 855.8 437.6 1004.2 422.7 1006.5 445.8 1032.6 706.2" clip-rule="evenodd"/><path fill="#3594dc" fill-rule="evenodd" d="M397.6,483.3l-44.7,4.5l3.6,708L397.6,483.3z" clip-rule="evenodd"/><polygon fill="#acdcfa" fill-rule="evenodd" points="1257.6 446.5 1257.6 446.5 1254.2 508.9 1234.8 864.6 1228.2 984.6 1216.1 984 1049.6 974.9 991.5 971.7 702.8 956 649.1 953 371.4 937.9 370.7 937.9 379.7 774.2 395.5 483.5 395.5 483.5 404.2 324 408.3 249.7 520.2 255.8 1035.3 283.9 1103.3 287.6 1103.3 287.6" clip-rule="evenodd"/><rect width="55.5" height="561.8" x="729.4" y="123.5" fill="#dbf2ff" fill-rule="evenodd" clip-rule="evenodd" transform="matrix(.05447 -.9985 .9985 .05447 312.13 1138.335)"/><rect width="55.5" height="340.4" x="614.3" y="342.4" fill="#dbf2ff" fill-rule="evenodd" clip-rule="evenodd" transform="matrix(.05447 -.9985 .9985 .05447 95.25 1125.755)"/><rect width="55.5" height="541.1" x="707.7" y="469" fill="#dbf2ff" fill-rule="evenodd" clip-rule="evenodd" transform="scale(.99998) rotate(-86.878 735.457 739.57)"/><rect width="55.5" height="162.6" x="514.8" y="780.7" fill="#dbf2ff" fill-rule="evenodd" clip-rule="evenodd" transform="rotate(-86.878 542.553 862.01) scale(.99998)"/><path fill="#ed3f07" fill-rule="evenodd" d="M1324.2,1377.3c-14.8,14.8-38.9,14.8-53.8,0l-60.4-60.4l-71.2-71.2c-9.9-9.9-13.2-24-9.8-36.6
		c0.4-1.7,1-3.3,1.7-4.9c1.8-4.4,4.6-8.6,8.2-12.2c3.6-3.6,7.8-6.3,12.2-8.2c2.2-0.9,4.5-1.6,6.8-2.1c12.1-2.5,25.3,0.9,34.7,10.3
		l11.4,11.4l11.5,11.6l108.6,108.6C1339.1,1338.4,1339.1,1362.5,1324.2,1377.3z" clip-rule="evenodd"/><path fill="#f2763d" fill-rule="evenodd" d="M1270.6,1013.3c-10.6,391.2-577.6,417.6-625,29.7C614.1,608.5,1260,576.1,1270.6,1013.3z" clip-rule="evenodd"/><circle cx="957.3" cy="1010.4" r="260.1" fill="#dbf2ff" fill-rule="evenodd" clip-rule="evenodd"/><path fill="#f2763d" d="M1056,941.1c-0.1-4.7-0.5-9.2-1.4-13.6c-3.2-17.4-11.9-32.6-26.3-45.8c-18.1-16.5-42.2-25-72.5-25
		c-28.7,0-51.7,7.9-69.2,23.4c-12.7,11.2-21.8,25.9-27.2,44.2c-4.7,15.8,6.1,32,22.4,33.9c12.9,1.5,25.1-6.5,28.7-18.9v0
		c3.2-10.8,7.8-19.2,14.1-25.2c8.5-7.9,19.1-11.8,31.7-11.8c13.2,0,24.3,4.3,33.4,13.1c8.9,8.6,13.4,18.6,13.4,30
		c0,6-1.4,11.6-4.3,16.7c-1.6,2.8-4.1,6-7.5,9.6c-3.8,4.1-8.6,8.7-14.5,13.9c-12.6,11.1-21.2,19.6-26.1,25.4c0,0,0,0,0,0
		c-7,8.5-12.1,16.9-15.2,25.2c-4.2,10.8-6.4,23.7-6.4,38.6c0,10.4,8.5,18.9,18.9,18.9l0,0h13.1c10.1,0,18.4-7.9,18.9-18
		c0.4-8.1,1.2-14.4,2.3-18.6v0c1.4-5.2,3.5-9.8,6.5-13.8c3.3-4.5,10.4-11.5,21.2-21.1c17.9-15.9,29.9-29.5,36-40.6
		c1.2-2.2,2.3-4.4,3.3-6.7c4.3-9.9,6.5-20.5,6.5-31.8C1056,942.4,1056,941.8,1056,941.1z M955.6,1107.4c-15.6,0-28.3,12.7-28.3,28.3
		c0,15.7,12.7,28.3,28.3,28.3c15.7,0,28.3-12.7,28.3-28.3C983.9,1120.1,971.2,1107.4,955.6,1107.4z"/><polygon fill="#4fb4f3" fill-rule="evenodd" points="1257.6 446.5 1257.6 446.5 1213.9 444.9 1096 440.5 1101.4 328.3 1103.3 287.6 1257.6 446.5" clip-rule="evenodd"/></svg>