<svg xmlns="http://www.w3.org/2000/svg" viewBox="0 0 2000 1647.3"><path fill="#E9F0F7" d="m1041.6 609.5-202.4 335L651 866.1l151-250-66.3 38.5-119 197.2-128.2-53.4-65.1 37.8 161.9 67.4L476 1084.5c-21.3 35.1-78.4 58.5-142.9 58.6h-39.5l140.9 81.3 6.8-11.2 238.4-4.8-70.6 116.8 31.9 18.4 82.2-136.1 231.1-4.7-144.1 238.5 31.9 18.4 155.8-257.8c187.8-3.8 372.6 28.7 525.4 92.3l36.9 15.4 65.1-37.8-276.9-115.4 105-91 307 127.9 29-16.9-266.8-111.1c-2.6-1.1-5.1-2.3-7.3-3.6-19.6-11.3-23.4-29.3-7.5-43.4l96.8-83.9-563-324.9zm-322.5 533.6H483.6l136-225.1 188.1 78.3-88.6 146.8zm271.4 0H762.2l80-132.4 182.4 76-34.1 56.4zm43 0 25.5-42.1 101.1 42.1h-126.6z"/><path fill="#AEC7E6" d="m1041.6 609.5-202.5 335-188-78.4 151-249.9 125.1-72.8z"/><path fill="#98D2D4" d="m1242.8 725.6-169.2-97.7-200 330.9 182.4 75.9 109.5 45.6c59.6 24.8 142.7 16.4 183.9-18.5l30.9-26.8 159.3-138-296.8-171.4z"/><path fill="#AEC7E6" d="M1160.1 1143.1h-126.6l25.5-42.1z"/><path fill="#98ADD4" d="m1024.6 1086.7-34.1 56.4H762.2l80-132.4z"/><path fill="#AEC7E6" d="m807.8 996.4-88.7 146.7H483.7l136-225.1z"/><path fill="#98D2D4" d="m1906.2 1108.7-116.8 67.9-266.8-111.1c-2.6-1.1-5.1-2.3-7.3-3.6-19.6-11.3-23.4-29.3-7.9-43.1l97.2-84.2 301.6 174.1z"/><path fill="#AEC7E6" d="m1760.4 1193.4-135.1 78.5-277-115.3 105.1-91.1zM679.7 1208.5l-70.6 116.8-174.6-100.8 6.8-11.2zM954.3 1202.9l-144.1 238.5-169.2-97.7 82.3-136.1z"/><path fill="#FFC5B3" d="M1560.2 1309.8 1072.8 1593l-230.6-133.1L998 1202.1c187.8-3.8 372.6 28.7 525.4 92.3l36.8 15.4z"/><path fill="#E9F0F7" d="M926.9 489.1 2000 1108.7l-926.9 538.7L0 1027.8l926.9-538.7zm862.5 687.4 116.8-67.9-301.6-174.1-65-37.5-264.9-153-31.9-18.4-169.2-97.7-31.9-18.4-114.4-66-125.1 72.7-66.3 38.5-247.4 143.7-65.1 37.8-329.6 191.6 199.8 115.4 140.9 81.4 174.6 100.8 31.9 18.4 169.2 97.7 31.9 18.4 230.6 133.1 487.4-283.2 65.1-37.8 135.1-78.5 29.1-17"/><path fill="#AEC7E6" d="M735.8 654.7 616.7 851.8l-128.2-53.4z"/><path fill="#F2F2F2" d="M1350.1 1061.2c-.3.2-.5.4-.8.6l30.9-26.8-30.1 26.2z"/><path fill="#FFC5B3" d="M585.3 903.7 476 1084.5c-21.3 35.1-78.4 58.5-142.6 58.6h-39.8L93.8 1027.8l329.5-191.5 162 67.4z"/><path fill="#F2F2F2" d="M333.1 1143.1h.3-39.8 39.5zM1507.4 1018.7c.1-.1.3-.2.4-.3l96.8-83.9-97.2 84.2z"/><path fill="#FBC977" d="M573.1 1263.6c-.5 0-1.1 0-1.6-.1-5.5-.9-9.2-6-8.3-11.5l12.8-79.6c.8-4.9 5-8.4 9.9-8.4h.1l127.9.7 119.8-194.2c2.6-4.2 7.8-5.9 12.4-4l216.8 90.3c5.1 2.1 7.5 8 5.4 13.1-2.1 5.1-8 7.5-13.1 5.4l-208.9-87L727.9 1180c-1.8 3-5.1 4.7-8.6 4.8l-124.9-.7-11.4 71.1c-.8 4.9-5.1 8.4-9.9 8.4z"/><path fill="#FBC977" d="M1095 1045.8c19.8 11.4 19.9 30 .2 41.5-19.7 11.4-51.7 11.4-71.6 0-19.8-11.4-19.9-30-.2-41.5 19.8-11.4 51.8-11.4 71.6 0z"/><path fill="#E0773A" d="M1087.9 1050c15.9 9.2 15.9 24 .2 33.2-15.8 9.2-41.4 9.2-57.3 0-15.9-9.2-15.9-24-.2-33.2 15.8-9.2 41.4-9.2 57.3 0z"/><path fill="#FBC977" d="M1079.4 1054.9c11.2 6.4 11.2 16.9.1 23.3-11.1 6.4-29.1 6.4-40.3 0-11.2-6.4-11.2-16.9-.1-23.3 11.1-6.4 29.2-6.4 40.3 0zM608.8 1232.8c19.8 11.4 19.9 30 .2 41.5-19.7 11.4-51.7 11.4-71.6 0-19.8-11.4-19.9-30-.2-41.5 19.7-11.4 51.7-11.4 71.6 0z"/><path fill="#E0773A" d="M601.6 1237c15.9 9.2 15.9 24 .2 33.2-15.8 9.2-41.4 9.2-57.3 0-15.9-9.2-15.9-24-.2-33.2 15.8-9.2 41.5-9.2 57.3 0z"/><path fill="#FBC977" d="M593.2 1241.9c11.2 6.4 11.2 16.9.1 23.3-11.1 6.4-29.1 6.4-40.3 0-11.2-6.4-11.2-16.9-.1-23.3 11.1-6.4 29.1-6.4 40.3 0z"/><path fill="#0C3461" d="M1216.1 763.7c-5.1-2.9-13.3-2.9-18.4 0L921.6 923.3c-5.1 2.9-4.9 7.4.3 10.1l298.5 172.4c5.2 2.6 13.6 2.4 18.7-.6l1.8-1.1c5.1-2.9 13.3-7.7 18.4-10.6l26.3-15.2c5.1-2.9 10.5-6.1 12.1-7 1.6-.9 7.1-4.1 12.1-7l204.2-118c5.1-2.9 5.1-7.7 0-10.6l-297.9-172z" opacity=".25"/><path fill="#28D48C" d="M936.8 915.3v-22.5l265.3-153.3V762z"/><path fill="#20BD88" d="M938.5 916.3v-22.5l265.3-153.3V763z"/><path fill="#5386B4" d="m938.5 893.8 265.3-153.3-1.7-1-265.3 153.3z"/><path fill="#28D48C" d="M1509.5 939.5V917l-43.7-25.2v22.5z"/><path fill="#28D48C" d="M1507.8 940.4V918l-43.7-25.3v22.5zM1507.8 918l1.7-1v22.5l-1.7.9z"/><path fill="#3D75A9" d="m1507.8 918-43.7-25.3 1.7-.9 43.7 25.2z"/><path fill="#DCE9F5" d="M1245.8 839.7 940.1 663.2v252.1l305.7 176.5z"/><path fill="#AEC7E6" d="m1245.8 839.7 262-151.4v252.1l-262 151.4z"/><path fill="#3D2DCF" d="m1507.8 688.3-305.7-176.4-262 151.3 305.7 176.5z"/><path fill="#5386B4" d="m1125 1022 2.1-1.2 72.1 41.7-2.1 1.2z"/><path fill="#175294" d="m1125 848.7 2.1-1.2v173.3l-2.1 1.2z"/><path fill="#C5C5C5" d="m1197.1 890.4 2.1-1.3v173.4l-2.1 1.2z"/><path fill="#3D75A9" d="M1199.2 889.1v173.4l-72.1-41.7V847.5z"/><path fill="#114077" d="m1136.2 969.4 21 12.1-.1 44.4-21-12.1.1-44.4m-2.1-3.6-.1 49.2 25.2 14.6.1-49.2-25.2-14.6zM1166 986.6l21 12.1-.1 44.4-21-12.1.1-44.4m-2.1-3.6-.1 49.2 25.2 14.6.1-49.2-25.2-14.6z"/><path fill="#DCDCDC" d="m1125 848.7 2.1-1.2 72.1 41.6-2.1 1.3z"/><path fill="#0C3461" d="M1202.1 887.5v179.1l-5-2.9V890.4l-72.1-41.7V1022l-5-2.8V840.1z"/><path fill="#0C3461" d="m1190.5 898.2.3 82.4-55.1-31.8-.2-82.4z"/><path fill="#27639E" d="m1190.6 920.9-54.9 17.9-.2-72.4 55 31.8z"/><path fill="#F7F0E9" d="M1131.2 952.7h.1c0 .1 0 .1-.1 0z"/><path fill="#F89D1F" d="M1134.8 958.8c0-.1 0-.1 0 0v-.1.1-2c0-.1 0-.1-.1-.2v-.1c-.4-1.3-1.2-2.4-2.1-3.1l-.1-.1s-.1 0-.1-.1l-.1-.1h.1l-.1-.1c-.1 0-.1-.1-.3-.1 0 0-.1 0-.1-.1l-.2-.1c-.1 0-.2-.1-.3-.1H1130.3h.7c.1 0 .2 0 .3.1.1 0 .2 0 .3.1h.2c.1.1.2.1.4.2s.4.2.6.4h.1l.1.1.1.1.3.3.1.1.1.1c.5.5.9 1.2 1.3 1.8 0 .1.1.2.1.3.1.1.1.3.2.5 0 .1.1.1.1.2v.1c0 .1.1.3.1.4v.4c0 .2.1.5.1.7v.8c0 .1-.1.2-.1.4v.2c-.1.2-.2.3-.3.4l.2-.2c0-.1.1-.1.1-.1l.1-.2v.1s0-.1.1-.1l.1-.2.1-.2s0 .1-.1.2c0-.1.1-.1.1-.2l.1-.2-1.1-.4zm.1-.6zm0 0v-.1.1z"/><path fill="#F7F0E9" d="M1129.9 952.6h.1z"/><path fill="#FBC977" d="M1125.8 956.1c-1.8-1-3.2-.1-3.2 2s1.5 4.6 3.3 5.6c1.8 1 3.2.1 3.2-2 0-2-1.4-4.6-3.3-5.6z"/><path fill="#F9C166" d="M1134.7 958.4V957c0-.1 0-.1-.1-.2v-.1c0-.1 0-.1-.1-.2 0-.1-.1-.2-.1-.2 0-.1-.1-.2-.1-.3-.1-.1-.1-.2-.2-.3 0-.1-.1-.1-.1-.2-.1-.1-.1-.2-.2-.3-.1-.1-.2-.3-.3-.4-.1-.1-.1-.2-.2-.3l-.1-.1c-.1-.1-.2-.2-.2-.3l-.1-.1-.1-.1-.2-.2c-.1-.1-.1-.1-.2-.1s-.1-.1-.2-.1l-.1-.1-.1-.1-.1-.1-.1-.1h-.2s-.1 0-.1-.1c0 0-.1 0-.1-.1 0 0-.1 0-.1-.1h-1.2c-.1 0-.2 0-.2.1l-.5.2c-.1 0-.2.1-.2.1-.2.1-.4.1-.5.2-.1 0-.3.1-.4.1l-1.5.5h-.2l-1.5.5c-.1 0-.2.1-.3.1.2-.1.3-.1.5-.1h.6c.2 0 .4.1.6.2l.6.3c.1.1.3.2.4.2.1.1.2.2.4.3l.3.3.3.3.1.1c.1.1.1.2.2.2 0 .1.1.1.1.2 0 0 .1.1.1.2.2.2.3.5.5.7 0 0 0 .1.1.1.2.3.3.5.4.8.1.1.1.3.2.4.1.1.1.3.2.4v.1c.1.1.1.3.1.4v.1c0 .1.1.3.1.4 0 .1.1.3.1.4 0 .2 0 .3.1.5v1.3c0 .2-.1.4-.2.6-.1.2-.2.4-.2.5v.1c-.1.1-.2.3-.3.4 1.4-1.2 2.7-2.5 4.1-3.7.1-.1.2-.2.3-.4 0-.1.1-.1.1-.2 0 0 0-.1.1-.1 0-.1 0-.1.1-.2V958.5c-.1 0-.1 0-.1-.1z"/><path fill="#F9B142" d="M1126.7 954.8c-.8-.5-1.6-.6-2.2-.4-.4.1-.6.2-.9.4-.2.1-.5.4-.6.6-.1.1-.3.5-.4.9-.1.5-.2.8-.2 1.3 0 2.3 1.5 4.7 2.9 5.8.6.5.9.7 1.3.8.4.2.9.3 1.2.3.2 0 .7.1 1.2-.1s.8-.3 1.1-.7c.5-.5.7-1.3.7-2.3-.1-2.3-1.9-5.3-4.1-6.6zm-.8 8.9c-1.8-1-3.3-3.5-3.3-5.6 0-2.1 1.4-3 3.2-2 1.8 1 3.3 3.5 3.3 5.6.1 2.1-1.4 3-3.2 2z"/><path fill="#3D75A9" d="m958.9 879.2 1.6-.9 126.5 73-1.5 1z"/><path fill="#175294" d="m959.1 764.5 1.6-.9-.2 114.7-1.6.9z"/><path fill="#5386B4" d="m953.4 754.7 137.9 79.6-.2 127.7-137.9-79.6.2-127.7zm132.1 197.6.2-114.7-126.6-73.1-.2 114.7 126.6 73.1"/><path fill="#3D75A9" d="m953.4 754.7 1.6-.9 138 79.6-1.6.9z"/><path fill="#175294" d="m1091.4 834.3 1.6-.9-.3 127.8-1.6.9z"/><path fill="#0C3461" d="m960.5 878.3 50.5 29.1 48.4 28 17.7 10.2 8.4 4.8v-20.9l.2-91.9-69.5-40.1-24.2-14-17.7-10.2-13.6-7.9-.1 46z"/><path fill="#27639E" d="m960.5 878.3 125.2-40.7-125-72.2z"/><path fill="#3D75A9" d="m1467.2 917.1-1.5-1-166.7 96.2 1.6.9z"/><path fill="#5386B4" d="m1467 802.4-1.5-.9.2 114.6 1.5 1z"/><path fill="#175294" d="m1472.9 920.3-178 102.7-.2-127.7 178-102.7.2 127.7zm-172.3 92.9 166.6-96.2-.2-114.7-166.6 96.2.2 114.7"/><path fill="#3D75A9" d="m1472.7 792.6-1.6-.9-178 102.7 1.6.9z"/><path fill="#5386B4" d="m1294.7 895.3-1.6-.9.2 127.7 1.6 1z"/><path fill="#F7F0E9" d="m1300.4 898.6.1 48.6.1 40.6v23.6l40.2-23.2 24.1-13.9 17.7-10.2 37-21.4 46.1-26.5-.1-54.7-.1-55.2v-3l-15.5 9-24.2 13.9-50.1 28.9-38.5 22.3z"/><path fill="#0C3461" d="M1465.7 915v1.2l-6.4 3.6-21.8 12.6-17.9 10.3-20.2 11.7-16.8 9.7-14.6 8.4-3.1 1.8-24.1 13.9-40.2 23.2v-23.6l-.1-40.6-.1-22.8v-25.8l14.6-8.5 22.2-12.7 12.7-7.4 21.8-12.5 4-2.4 3.3-1.9 35.8-20.7 11-6.3 24.1-13.9 15.6-9v58.2l.1 9.6v.1z"/><path fill="#27639E" d="m1464.3 804-163.7 207.4v-23.6l-.1-40.6-.1-22.8v-25.8l14.6-8.5 22.2-12.7 12.7-7.4 21.8-12.5 4-2.4 3.3-1.9 35.8-20.7 11-6.3 24.1-13.9z"/><path fill="#114077" d="M1245.8 738.8 940.1 562.4v100.8l305.7 176.5z"/><path fill="#175294" d="m1245.8 738.8 262-151.3v100.8l-262 151.4z"/><path fill="#5386B4" d="M1507.8 587.5 1202.1 411l-262 151.4 305.7 176.4z"/><path fill="#144B8A" d="m1420.4 587.6-218.3-126.1-174.6 100.9 218.3 126z"/><path fill="#175294" d="M1202.1 461.5v50.4l-131 75.7-43.6-25.2z"/><path fill="#114077" d="m1202.1 511.9 174.7 100.9 43.6-25.2-218.3-126.1z"/><path fill="#E9F0F7" d="m1245.8 789.3-87.3 100.8-43.6-25.2 87.2-100.8z"/><path fill="#3D75A9" d="m1202.1 764.1-87.2 100.8-43.7-25.2 87.3-100.8z"/><path fill="#E9F0F7" d="m1158.5 738.9-87.3 100.8-43.6-25.2 87.3-100.8z"/><path fill="#3D75A9" d="m1114.9 713.7-87.3 100.8-43.6-25.2 87.2-100.8z"/><path fill="#E9F0F7" d="M1071.2 688.5 984 789.3l-43.7-25.2 87.3-100.8z"/><path fill="#3D75A9" d="m1027.6 663.3-87.3 100.8-43.6-25.2L984 638.1z"/><path fill="#E9F0F7" d="m984 638.1-87.3 100.8-43.6-25.2 87.2-100.8z"/><path fill="#5386B4" d="M1158.5 890.1c-1.4 10.5-13.2 16.5-22.7 11-12.9-7.5-20.9-21.3-20.9-36.2l43.6 25.2z"/><path fill="#175294" d="M1114.9 864.9c-1.4 10.5-13.2 16.5-22.7 11-12.9-7.5-20.9-21.3-20.9-36.2l43.6 25.2z"/><path fill="#5386B4" d="M1071.2 839.7c-1.4 10.5-13.2 16.5-22.7 11-12.9-7.5-20.9-21.3-20.9-36.2l43.6 25.2z"/><path fill="#175294" d="M1027.6 814.5c-1.4 10.5-13.2 16.5-22.7 11C992 818 984 804.2 984 789.3l43.6 25.2z"/><path fill="#5386B4" d="M984 789.3c-1.4 10.5-13.2 16.5-22.7 11-12.9-7.5-20.9-21.3-20.9-36.2l43.6 25.2z"/><path fill="#175294" d="M940.3 764.1c-1.4 10.5-13.2 16.5-22.7 11-12.9-7.5-20.9-21.3-20.9-36.2l43.6 25.2z"/><path fill="#5386B4" d="M896.7 738.9c-1.4 10.5-13.2 16.5-22.7 11-12.9-7.5-20.9-21.3-20.9-36.2l43.6 25.2zM1245.8 789.3v50.4l-87.3 50.4z"/><path fill="#175294" d="m1245.8 789.3-5.5 3.2V674.2l5.5-3.2z"/><path fill="#5386B4" d="M1240.3 674.2 934.6 497.7V616l305.7 176.5z"/><path fill="#3D75A9" d="M1245.8 671 940.1 494.5l-5.5 3.2 305.7 176.5z"/><path fill="#28D48C" d="M1120 1019.2v-22.5L940.1 892.8v22.5z"/><path fill="#5386B4" d="m938.5 893.8 179.9 103.9v22.4L938.5 916.3l-1.7-1v-22.5z"/><path fill="#175294" d="m1118.4 997.7 1.6-1v22.5l-1.6.9z"/><path fill="#3D75A9" d="M1118.4 997.7 938.5 893.8l1.6-1L1120 996.7z"/><path fill="#28D48C" d="M1245.8 1091.8v-22.5l-43.7-25.2v22.5z"/><path fill="#28D48C" d="m1244.1 1070.3 1.7-1v22.5l-1.7.9z"/><path fill="#3D75A9" d="m1244.1 1070.3-43.7-25.2 1.7-1 43.7 25.2z"/><path fill="#28D48C" d="M1244.1 1092.7v-22.4L1509.5 917v22.5z"/><path fill="#175294" d="M1245.8 1093.7v-22.5L1511.1 918v22.4z"/><path fill="#3D75A9" d="M1245.8 1071.2 1511.1 918l-1.6-1-265.4 153.3z"/><path fill="#5386B4" d="m1244.1 1070.3 1.7.9v22.5l-1.7-1-43.7-25.2v-22.4z"/><path fill="#E0773A" d="M1145.6 187.8c-.2-1.4-.3-2.8-.4-4.1-.1-1-.2-2-.3-2.9-.2-3.1-.4-6.2-.4-9.2 0-9.6 1.3-18.2 3.6-25.7 1.5-4.8 3.5-9.1 5.8-12.9.2-.3.4-.7.6-1.1.6-.9 1.2-1.6 1.8-2.4.8-1 1.5-2.1 2.3-3 3-3.4 6.4-6.2 10.1-8.3l25.1-14.6c-.5.3-.9.7-1.4.9-1.4.9-2.7 1.7-4 2.8-1.5 1.2-2.8 2.6-4.1 4l-.6.6c-.8.9-1.5 2-2.3 3-.6.8-1.3 1.6-1.8 2.4-.2.3-.4.7-.6 1.1-2.3 3.8-4.3 8.1-5.8 12.9-2.3 7.4-3.6 16-3.6 25.7 0 3 .1 6.1.4 9.2.1 1 .2 2 .3 2.9.2 2.4.5 4.8.9 7.3.1.5.1 1 .2 1.4.5 2.8 1 5.6 1.7 8.5.3 1.4.7 2.8 1 4.3.5 2 1 4 1.6 5.9.3 1.1.7 2.3 1 3.4.7 2.2 1.4 4.5 2.2 6.7.3.9.6 1.8 1 2.7 1.2 3.1 2.4 6.1 3.7 9.2.1.3.3.7.5 1 1.2 2.7 2.5 5.4 3.8 8.1.4.8.8 1.7 1.3 2.5 1.3 2.5 2.6 5 4 7.5.3.5.5 1 .8 1.5 1.7 2.9 3.4 5.7 5.2 8.5.5.8 1.1 1.6 1.6 2.4 1.3 2 2.7 4 4.1 6 .8 1.1 1.5 2.1 2.3 3.1 1.2 1.6 2.5 3.2 3.8 4.8 1.1 1.3 2.1 2.7 3.2 3.9 1 1.2 2.1 2.4 3.2 3.6 1.8 2 3.7 4 5.5 5.9 1.2 1.2 2.3 2.4 3.5 3.5.9.9 1.9 1.8 2.8 2.6 1.5 1.4 3.1 2.8 4.7 4.1.9.8 1.9 1.6 2.9 2.4 1.7 1.4 3.5 2.7 5.2 3.9.8.6 1.7 1.2 2.5 1.8 2.6 1.8 5.3 3.5 7.9 5 1.8 1 3.5 2 5.3 2.8.5.3 1 .5 1.5.7 1.3.6 2.7 1.3 4 1.8.5.2.9.4 1.4.6 1.2.5 2.5 1 3.7 1.4l.9.3c1.5.5 3 1 4.5 1.4.2.1.4.1.6.2 2.3.6 4.6 1.1 6.9 1.5h.1c1.9.3 3.7.5 5.6.6.4 0 .7 0 1.1.1 1.6.1 3.2.1 4.8 0 .3 0 .5-.1.8-.1 1.3-.1 2.5-.2 3.8-.4.4-.1.8-.1 1.2-.2 1.4-.3 2.8-.6 4.2-1 .1 0 .1 0 .2-.1 1.3-.4 2.5-.8 3.8-1.3.4-.1.7-.3 1.1-.5 1-.5 2.1-1 3.1-1.5.3-.2.7-.3 1-.5-1.6.9-3.3 1.9-5.1 3l-1.3.8c-6.2 3.6-13.1 7.6-18.7 10.8-.2.1-.3.2-.5.3-.2.1-.4.2-.5.3-1 .5-2 1-3.1 1.5l-.6.3c-.2.1-.3.1-.5.2-1.2.5-2.5.9-3.8 1.3 0 0-.1 0-.1.1-1.4.4-2.7.7-4.2 1-.2 0-.3.1-.5.1s-.4 0-.7.1c-1.2.2-2.5.3-3.8.4-.2 0-.4.1-.6.1h-.2c-1.6.1-3.2.1-4.8 0h-.5c-.2 0-.4-.1-.6-.1-1.8-.1-3.7-.3-5.6-.6-2.3-.3-4.6-.9-6.9-1.5-.1 0-.3 0-.4-.1-.1 0-.2-.1-.2-.1-1.5-.4-3-.9-4.5-1.4l-.9-.3c-1.2-.4-2.4-.9-3.7-1.4-.2-.1-.3-.1-.5-.2-.3-.1-.6-.3-.9-.4-1.3-.6-2.6-1.2-4-1.8-.5-.2-1-.5-1.5-.7-1.7-.9-3.5-1.8-5.3-2.8-2.7-1.5-5.3-3.3-7.9-5-.8-.6-1.7-1.2-2.5-1.8-1.8-1.3-3.5-2.6-5.2-3.9-1-.8-1.9-1.6-2.9-2.4-1.6-1.3-3.2-2.7-4.7-4.1-.9-.9-1.9-1.7-2.8-2.6-.6-.6-1.2-1.1-1.8-1.6-.6-.6-1.2-1.3-1.8-1.9-1.9-1.9-3.7-3.9-5.5-5.9-.6-.6-1.2-1.2-1.8-1.9-.5-.6-.9-1.1-1.4-1.7-1.1-1.3-2.2-2.6-3.2-3.9-.7-.9-1.4-1.7-2.1-2.6-.6-.7-1.1-1.5-1.6-2.2-.8-1-1.5-2.1-2.3-3.1-.5-.7-1.1-1.4-1.6-2.2-.9-1.2-1.7-2.5-2.5-3.8-.5-.8-1.1-1.6-1.6-2.4-.2-.3-.5-.7-.7-1-1.5-2.3-2.9-4.7-4.3-7-.1-.2-.2-.3-.3-.5-.1-.1-.1-.2-.2-.3-.2-.4-.4-.8-.6-1.1-1-1.7-1.9-3.4-2.8-5.1l-1.2-2.4c-.4-.8-.9-1.7-1.3-2.5-.4-.7-.7-1.4-1.1-2.2-.9-2-1.8-3.9-2.7-5.9-.2-.3-.3-.7-.5-1 0-.1-.1-.2-.1-.3-1.1-2.5-2.1-5-3.1-7.5-.2-.5-.3-.9-.5-1.4-.3-.9-.7-1.8-1-2.7-.4-1.2-.9-2.5-1.3-3.7-.3-1-.6-2-.9-2.9-.4-1.1-.7-2.3-1-3.4-.2-.7-.5-1.4-.6-2.1-.4-1.3-.6-2.5-.9-3.8-.4-1.4-.7-2.8-1-4.3-.1-.5-.3-1-.4-1.5-.5-2.3-.9-4.7-1.3-7-.1-.5-.1-1-.2-1.4-.4-1.4-.6-2.4-.7-3.5z"/><path fill="#FFCE7C" d="M1382.4 323.4c-.4 125.1-148 282-155.8 290.3-7.7-17.2-154-343.8-153.6-468.9.4-125.1 69.8-157.5 155.3-108.2s154.5 161.7 154.1 286.8zm-154.9-8.1c46 26.6 83.4 5.2 83.6-47.6.2-52.9-37-117.3-83-143.8-46-26.6-83.4-5.2-83.6 47.6-.1 52.9 37 117.3 83 143.8z"/><path fill="#E0773A" d="M1382.1 308.1c-.1-2.5-.2-5-.4-7.6-.1-1.5-.2-3-.4-4.6-.2-2.2-.3-4.5-.6-6.7-.2-1.6-.4-3.2-.5-4.8-.2-2.1-.5-4.1-.7-6.2-.6-4.4-1.2-8.7-2-13.1-.2-.9-.3-1.8-.5-2.7-.6-3.4-1.3-6.9-2-10.3l-1.2-5.4c-.4-1.6-.7-3.2-1.1-4.8-.5-2-1-3.9-1.5-5.9-.4-1.6-.8-3.1-1.2-4.7l-.9-3.3c-1.4-4.8-2.8-9.5-4.3-14.2-.2-.6-.4-1.2-.6-1.7-1.5-4.5-3.1-9-4.8-13.4-.4-1.2-.9-2.3-1.4-3.5-1.3-3.2-2.5-6.3-3.9-9.5-.5-1.1-.9-2.3-1.4-3.4-1.7-3.9-3.5-7.8-5.4-11.7l-.3-.6c-1.7-3.6-3.6-7.2-5.4-10.7-.6-1.2-1.2-2.3-1.8-3.4-1.4-2.7-2.9-5.3-4.4-7.9-.7-1.2-1.3-2.3-2-3.5-1.9-3.2-3.8-6.3-5.7-9.3l-.9-1.5c-2.4-3.7-4.8-7.3-7.3-10.8-.6-.9-1.3-1.8-1.9-2.7-2.4-3.4-4.8-6.6-7.3-9.9-.4-.6-.9-1.2-1.3-1.7-3.3-4.3-6.8-8.5-10.3-12.5l-2.1-2.4c-1.7-1.9-3.3-3.7-5-5.6-.8-.9-1.6-1.8-2.5-2.7-2.4-2.5-4.8-5-7.2-7.4-.2-.1-.3-.3-.4-.5l-.5-.5-6.3-6c-.8-.7-1.5-1.4-2.3-2-1.5-1.4-3.1-2.8-4.6-4.1-.9-.8-1.8-1.5-2.7-2.3-1.4-1.2-2.9-2.4-4.3-3.6-1-.8-1.9-1.5-2.9-2.3-1.4-1.1-2.9-2.2-4.3-3.3-1-.7-1.9-1.5-2.9-2.2-1.5-1.1-3-2.2-4.5-3.2-.9-.7-1.9-1.3-2.8-2-1.7-1.1-3.3-2.2-5-3.3-.8-.5-1.6-1.1-2.4-1.6-2.5-1.6-5-3.1-7.5-4.5-2.4-1.4-4.7-2.6-7-3.9-.7-.4-1.4-.7-2.1-1.1-1.7-.9-3.4-1.7-5.1-2.5-.7-.3-1.4-.7-2.2-1l-6-2.7c-.3-.1-.6-.3-.9-.4-.4-.2-.8-.3-1.1-.4-2.5-1-4.9-2-7.4-2.8l-2.7-.9-5.7-1.8-3.3-.9c-1.1-.3-2.1-.5-3.2-.8-1.2-.3-2.5-.5-3.7-.8-1.1-.2-2.1-.4-3.1-.6-1.4-.2-2.7-.4-4.1-.6l-2.1-.3c-1.7-.2-3.4-.3-5.1-.4-.3 0-.7-.1-1.1-.1-2-.1-3.9-.1-5.9-.1-.5 0-1.1 0-1.6.1-1.2 0-2.3.1-3.4.2-2.2.2-4.4.4-6.6.8-.4.1-.8.1-1.2.2-2.4.4-4.8 1-7.1 1.6-.6.2-1.3.4-1.9.6-1.7.5-3.3 1.1-5 1.8l-2.1.9c-1.7.8-3.4 1.6-5.1 2.5-.6.3-1.3.6-1.9 1l25.1-14.6c.3-.1.5-.3.8-.4.4-.2.7-.3 1.1-.5 1.7-.9 3.4-1.7 5.1-2.5.3-.1.6-.3 1-.5s.8-.3 1.2-.4c1.6-.6 3.3-1.2 5-1.8.4-.1.9-.3 1.3-.5.2-.1.4-.1.6-.1 2.3-.7 4.7-1.2 7.1-1.6.1 0 .2 0 .2-.1.3-.1.6-.1 1-.1 2.2-.3 4.3-.6 6.6-.8.4 0 .7-.1 1.1-.1.8 0 1.6-.1 2.3-.1.5 0 1 0 1.6-.1 1.9 0 3.8 0 5.7.1h.2c.3 0 .7.1 1.1.1 1.7.1 3.4.2 5.1.4l2.1.3c.8.1 1.7.2 2.5.3.5.1 1 .2 1.6.3 1 .2 2.1.4 3.1.6 1.2.2 2.5.5 3.7.8 1.1.2 2.1.5 3.2.8.6.2 1.2.3 1.8.4.5.1 1 .3 1.5.5 1.9.5 3.8 1.1 5.7 1.8l2.7.9c2.4.9 4.9 1.8 7.4 2.8.3.1.6.2 1 .4.1 0 .1.1.2.1.3.1.6.3.9.4 2 .8 4 1.7 6 2.7.7.3 1.4.7 2.2 1 1.7.8 3.4 1.6 5.1 2.5.7.4 1.4.7 2.1 1.1 2.3 1.2 4.7 2.5 7 3.9l7.5 4.5c.8.5 1.6 1 2.4 1.6 1.7 1.1 3.3 2.2 5 3.3.9.6 1.9 1.3 2.8 2 1.5 1.1 3 2.1 4.5 3.2 1 .7 2 1.4 2.9 2.2 1.5 1.1 2.9 2.2 4.3 3.3 1 .8 1.9 1.5 2.9 2.3 1.5 1.2 2.9 2.4 4.3 3.6.9.8 1.8 1.5 2.7 2.3 1.6 1.3 3.1 2.7 4.6 4.1.8.7 1.5 1.4 2.3 2l6.3 6 .5.5.4.4c2.4 2.4 4.9 4.9 7.2 7.4.8.9 1.7 1.8 2.5 2.7 1.7 1.8 3.4 3.7 5 5.6.4.4.7.8 1.1 1.2.3.4.7.8 1 1.2 3.5 4.1 6.9 8.2 10.3 12.5.1.1.2.3.3.4.3.4.6.9 1 1.3 2.5 3.2 4.9 6.5 7.3 9.9.4.5.8 1 1.2 1.6.3.4.5.7.7 1.1 2.5 3.6 4.9 7.2 7.3 10.8.1.1.1.2.2.2.3.4.5.8.8 1.3l5.7 9.3c.3.5.6.9.9 1.4.4.7.8 1.4 1.1 2.1 1.5 2.6 3 5.2 4.4 7.9.4.7.8 1.5 1.2 2.2l.6 1.2c1.9 3.5 3.7 7.1 5.4 10.7.1.2.2.4.3.5v.1c1.9 3.8 3.6 7.8 5.4 11.7.2.4.4.8.5 1.2.3.7.6 1.5.9 2.2 1.3 3.1 2.6 6.3 3.9 9.5.3.7.6 1.4.9 2.2.2.4.3.9.5 1.3 1.7 4.4 3.3 8.9 4.8 13.4.1.2.1.3.2.5.1.4.2.8.4 1.3 1.5 4.7 3 9.4 4.3 14.2l.6 1.8c.1.5.3 1 .4 1.5.4 1.6.8 3.1 1.2 4.7.5 2 1 3.9 1.5 5.9.4 1.6.7 3.2 1.1 4.8.3 1.2.6 2.5.8 3.7.1.6.2 1.2.3 1.7.7 3.4 1.4 6.8 2 10.3.2.9.3 1.8.5 2.7.7 4.3 1.4 8.7 2 13.1 0 .3.1.5.1.8l.6 5.4c.2 1.6.4 3.2.5 4.8.2 2.2.4 4.5.6 6.7.1 1.5.3 3 .4 4.6.2 2.5.3 5 .4 7.6.1 1.3.1 2.5.2 3.8.1 3.8.2 7.6.2 11.5-.4 125.1-148 282-155.8 290.3l-25.1 14.6c7.8-8.3 155.4-165.2 155.8-290.3 0-3.8 0-7.7-.2-11.5-.4-1.4-.4-2.7-.5-4z"/></svg>